<?plantuml 1.2026.1?><svg xmlns="http://www.w3.org/2000/svg" xmlns:xlink="http://www.w3.org/1999/xlink" contentStyleType="text/css" data-diagram-type="CLASS" height="1216px" preserveAspectRatio="none" style="width:2869px;height:1216px;background:#FFFFFF;" version="1.1" viewBox="0 0 2869 1216" width="2869px" zoomAndPan="magnify"><title>geometry</title><defs/><g><g class="title" data-source-line="1"><text fill="#000000" font-family="sans-serif" font-size="14" font-weight="bold" lengthAdjust="spacing" textLength="63.0205" x="1396.1787" y="24.5332">geometry</text></g><!--class AbstractShape--><g class="entity" data-qualified-name="AbstractShape" data-source-line="5" id="ent0002"><rect fill="#F1F1F1" height="153.6563" rx="2.5" ry="2.5" style="stroke:#181818;stroke-width:0.5;" width="224.0508" x="1237.5" y="587.1094"/><ellipse cx="1299.3584" cy="603.1094" fill="#A9DCDF" rx="11" ry="11" style="stroke:#181818;stroke-width:1;"/><path d="M1301.5459,604.875 L1297.4053,604.875 L1296.9834,605.9063 L1297.4053,605.9063 Q1298.0146,605.9063 1298.2803,606.1406 Q1298.5459,606.375 1298.5459,606.7656 Q1298.5459,607.1406 1298.2803,607.375 Q1298.0146,607.6094 1297.4053,607.6094 L1295.1084,607.6094 Q1294.499,607.6094 1294.249,607.375 Q1293.9834,607.1406 1293.9834,606.75 Q1293.9834,606.375 1294.2646,606.1406 Q1294.5303,605.8906 1295.1553,605.9063 L1297.8271,599.25 L1296.7178,599.25 Q1296.1084,599.25 1295.8428,599.0156 Q1295.5771,598.7813 1295.5771,598.3906 Q1295.5771,598.0156 1295.8428,597.7813 Q1296.1084,597.5469 1296.7178,597.5469 L1300.3896,597.5469 L1303.7803,605.9063 Q1304.374,605.9063 1304.5615,606.0469 Q1304.9521,606.3125 1304.9521,606.7656 Q1304.9521,607.1406 1304.6865,607.375 Q1304.4365,607.6094 1303.8271,607.6094 L1301.5303,607.6094 Q1300.9209,607.6094 1300.6553,607.375 Q1300.3896,607.1406 1300.3896,606.75 Q1300.3896,606.375 1300.6553,606.1406 Q1300.9209,605.9063 1301.5303,605.9063 L1301.9521,605.9063 L1301.5459,604.875 Z M1300.8271,603.1719 L1299.4678,599.7969 L1298.0928,603.1719 L1300.8271,603.1719 Z " fill="#000000"/><text fill="#000000" font-family="sans-serif" font-size="14" font-style="italic" lengthAdjust="spacing" textLength="91.834" x="1319.8584" y="608.8379">AbstractShape</text><line style="stroke:#181818;stroke-width:0.5;" x1="1238.5" x2="1460.5508" y1="619.1094" y2="619.1094"/><text fill="#000000" font-family="sans-serif" font-size="14" lengthAdjust="spacing" textLength="108.9307" x="1243.5" y="637.6426">#style : SVGStyle</text><text fill="#000000" font-family="sans-serif" font-size="14" lengthAdjust="spacing" textLength="171.9307" x="1243.5" y="655.252">#transform : SVGTransform</text><line style="stroke:#181818;stroke-width:1;" x1="1238.5" x2="1460.5508" y1="662.3281" y2="662.3281"/><text fill="#000000" font-family="sans-serif" font-size="14" lengthAdjust="spacing" textLength="212.0508" x="1243.5" y="680.8613">+getDescription(int indent) : String</text><text fill="#000000" font-family="sans-serif" font-size="14" lengthAdjust="spacing" textLength="159.9404" x="1243.5" y="698.4707">+rotate(double deg) : void</text><text fill="#000000" font-family="sans-serif" font-size="14" lengthAdjust="spacing" textLength="140.4443" x="1243.5" y="716.0801">+getStyle() : SVGStyle</text><text fill="#000000" font-family="sans-serif" font-size="14" lengthAdjust="spacing" textLength="205.7686" x="1243.5" y="733.6895">+getTransform() : SVGTransform</text></g><!--class Circle--><g class="entity" data-qualified-name="Circle" data-source-line="15" id="ent0003"><rect fill="#F1F1F1" height="224.0938" rx="2.5" ry="2.5" style="stroke:#181818;stroke-width:0.5;" width="233.4092" x="7" y="968.1094"/><ellipse cx="101.5649" cy="984.1094" fill="#ADD1B2" rx="11" ry="11" style="stroke:#181818;stroke-width:1;"/><path d="M104.3306,979.9844 Q104.4868,979.7656 104.6743,979.6563 Q104.8618,979.5469 105.0806,979.5469 Q105.4556,979.5469 105.6899,979.8125 Q105.9243,980.0625 105.9243,980.6719 L105.9243,982.125 Q105.9243,982.7344 105.6899,983 Q105.4556,983.2656 105.0806,983.2656 Q104.7368,983.2656 104.5337,983.0625 Q104.3306,982.875 104.2212,982.3594 Q104.1743,982 103.9868,981.8125 Q103.6587,981.4375 103.0493,981.2188 Q102.4399,981 101.8149,981 Q101.0493,981 100.4087,981.3281 Q99.7837,981.6563 99.2837,982.4063 Q98.7993,983.1563 98.7993,984.1875 L98.7993,985.2813 Q98.7993,986.5156 99.6899,987.3438 Q100.5806,988.1563 102.1743,988.1563 Q103.1118,988.1563 103.7681,987.9063 Q104.1587,987.75 104.5806,987.3125 Q104.8462,987.0469 104.9868,986.9688 Q105.1431,986.8906 105.3462,986.8906 Q105.6743,986.8906 105.9243,987.1563 Q106.1899,987.4063 106.1899,987.75 Q106.1899,988.0938 105.8462,988.5 Q105.3462,989.0781 104.5493,989.4063 Q103.4712,989.8594 102.1743,989.8594 Q100.6587,989.8594 99.4556,989.2344 Q98.4712,988.7344 97.7837,987.6719 Q97.0962,986.5938 97.0962,985.3125 L97.0962,984.1563 Q97.0962,982.8281 97.7056,981.6875 Q98.3306,980.5313 99.4243,979.9219 Q100.5181,979.2969 101.7524,979.2969 Q102.4868,979.2969 103.1274,979.4688 Q103.7837,979.625 104.3306,979.9844 Z " fill="#000000"/><text fill="#000000" font-family="sans-serif" font-size="14" lengthAdjust="spacing" textLength="35.7793" x="122.0649" y="989.8379">Circle</text><line style="stroke:#181818;stroke-width:0.5;" x1="8" x2="239.4092" y1="1000.1094" y2="1000.1094"/><text fill="#000000" font-family="sans-serif" font-size="14" lengthAdjust="spacing" textLength="96.5029" x="13" y="1018.6426">-radius : double</text><text fill="#000000" font-family="sans-serif" font-size="14" lengthAdjust="spacing" textLength="87.1514" x="13" y="1036.252">-center : Point</text><line style="stroke:#181818;stroke-width:1;" x1="8" x2="239.4092" y1="1043.3281" y2="1043.3281"/><text fill="#000000" font-family="sans-serif" font-size="14" lengthAdjust="spacing" textLength="131.1406" x="13" y="1061.8613">+getHeight() : double</text><text fill="#000000" font-family="sans-serif" font-size="14" lengthAdjust="spacing" textLength="126.458" x="13" y="1079.4707">+getWidth() : double</text><text fill="#000000" font-family="sans-serif" font-size="14" lengthAdjust="spacing" textLength="122.5615" x="13" y="1097.0801">+getCenter() : Point</text><text fill="#000000" font-family="sans-serif" font-size="14" lengthAdjust="spacing" textLength="212.0508" x="13" y="1114.6895">+getDescription(int indent) : String</text><text fill="#000000" font-family="sans-serif" font-size="14" lengthAdjust="spacing" textLength="218.2988" x="13" y="1132.2988">+move(double dx, double dy) : void</text><text fill="#000000" font-family="sans-serif" font-size="14" lengthAdjust="spacing" textLength="221.4092" x="13" y="1149.9082">+resize(double px, double py) : void</text><text fill="#000000" font-family="sans-serif" font-size="14" lengthAdjust="spacing" textLength="159.9404" x="13" y="1167.5176">+rotate(double deg) : void</text><text fill="#000000" font-family="sans-serif" font-size="14" lengthAdjust="spacing" textLength="103.1133" x="13" y="1185.127">+copy() : IShape</text></g><!--class Ellipse--><g class="entity" data-qualified-name="Ellipse" data-source-line="29" id="ent0004"><rect fill="#F1F1F1" height="206.4844" rx="2.5" ry="2.5" style="stroke:#181818;stroke-width:0.5;" width="233.4092" x="275" y="977.1094"/><ellipse cx="366.834" cy="993.1094" fill="#ADD1B2" rx="11" ry="11" style="stroke:#181818;stroke-width:1;"/><path d="M369.5996,988.9844 Q369.7559,988.7656 369.9434,988.6563 Q370.1309,988.5469 370.3496,988.5469 Q370.7246,988.5469 370.959,988.8125 Q371.1934,989.0625 371.1934,989.6719 L371.1934,991.125 Q371.1934,991.7344 370.959,992 Q370.7246,992.2656 370.3496,992.2656 Q370.0059,992.2656 369.8027,992.0625 Q369.5996,991.875 369.4902,991.3594 Q369.4434,991 369.2559,990.8125 Q368.9277,990.4375 368.3184,990.2188 Q367.709,990 367.084,990 Q366.3184,990 365.6777,990.3281 Q365.0527,990.6563 364.5527,991.4063 Q364.0684,992.1563 364.0684,993.1875 L364.0684,994.2813 Q364.0684,995.5156 364.959,996.3438 Q365.8496,997.1563 367.4434,997.1563 Q368.3809,997.1563 369.0371,996.9063 Q369.4277,996.75 369.8496,996.3125 Q370.1152,996.0469 370.2559,995.9688 Q370.4121,995.8906 370.6152,995.8906 Q370.9434,995.8906 371.1934,996.1563 Q371.459,996.4063 371.459,996.75 Q371.459,997.0938 371.1152,997.5 Q370.6152,998.0781 369.8184,998.4063 Q368.7402,998.8594 367.4434,998.8594 Q365.9277,998.8594 364.7246,998.2344 Q363.7402,997.7344 363.0527,996.6719 Q362.3652,995.5938 362.3652,994.3125 L362.3652,993.1563 Q362.3652,991.8281 362.9746,990.6875 Q363.5996,989.5313 364.6934,988.9219 Q365.7871,988.2969 367.0215,988.2969 Q367.7559,988.2969 368.3965,988.4688 Q369.0527,988.625 369.5996,988.9844 Z " fill="#000000"/><text fill="#000000" font-family="sans-serif" font-size="14" lengthAdjust="spacing" textLength="41.2412" x="387.334" y="998.8379">Ellipse</text><line style="stroke:#181818;stroke-width:0.5;" x1="276" x2="507.4092" y1="1009.1094" y2="1009.1094"/><text fill="#000000" font-family="sans-serif" font-size="14" lengthAdjust="spacing" textLength="87.1514" x="281" y="1027.6426">-center : Point</text><text fill="#000000" font-family="sans-serif" font-size="14" lengthAdjust="spacing" textLength="86.3721" x="281" y="1045.252">-radius : Point</text><line style="stroke:#181818;stroke-width:1;" x1="276" x2="507.4092" y1="1052.3281" y2="1052.3281"/><text fill="#000000" font-family="sans-serif" font-size="14" lengthAdjust="spacing" textLength="126.458" x="281" y="1070.8613">+getWidth() : double</text><text fill="#000000" font-family="sans-serif" font-size="14" lengthAdjust="spacing" textLength="131.1406" x="281" y="1088.4707">+getHeight() : double</text><text fill="#000000" font-family="sans-serif" font-size="14" lengthAdjust="spacing" textLength="122.5615" x="281" y="1106.0801">+getCenter() : Point</text><text fill="#000000" font-family="sans-serif" font-size="14" lengthAdjust="spacing" textLength="212.0508" x="281" y="1123.6895">+getDescription(int indent) : String</text><text fill="#000000" font-family="sans-serif" font-size="14" lengthAdjust="spacing" textLength="218.2988" x="281" y="1141.2988">+move(double dx, double dy) : void</text><text fill="#000000" font-family="sans-serif" font-size="14" lengthAdjust="spacing" textLength="221.4092" x="281" y="1158.9082">+resize(double px, double py) : void</text><text fill="#000000" font-family="sans-serif" font-size="14" lengthAdjust="spacing" textLength="103.1133" x="281" y="1176.5176">+copy() : IShape</text></g><!--class Line--><g class="entity" data-qualified-name="Line" data-source-line="42" id="ent0005"><rect fill="#F1F1F1" height="241.7031" rx="2.5" ry="2.5" style="stroke:#181818;stroke-width:0.5;" width="233.4092" x="543" y="959.1094"/><ellipse cx="642.2202" cy="975.1094" fill="#ADD1B2" rx="11" ry="11" style="stroke:#181818;stroke-width:1;"/><path d="M644.9858,970.9844 Q645.1421,970.7656 645.3296,970.6563 Q645.5171,970.5469 645.7358,970.5469 Q646.1108,970.5469 646.3452,970.8125 Q646.5796,971.0625 646.5796,971.6719 L646.5796,973.125 Q646.5796,973.7344 646.3452,974 Q646.1108,974.2656 645.7358,974.2656 Q645.3921,974.2656 645.189,974.0625 Q644.9858,973.875 644.8765,973.3594 Q644.8296,973 644.6421,972.8125 Q644.314,972.4375 643.7046,972.2188 Q643.0952,972 642.4702,972 Q641.7046,972 641.064,972.3281 Q640.439,972.6563 639.939,973.4063 Q639.4546,974.1563 639.4546,975.1875 L639.4546,976.2813 Q639.4546,977.5156 640.3452,978.3438 Q641.2358,979.1563 642.8296,979.1563 Q643.7671,979.1563 644.4233,978.9063 Q644.814,978.75 645.2358,978.3125 Q645.5015,978.0469 645.6421,977.9688 Q645.7983,977.8906 646.0015,977.8906 Q646.3296,977.8906 646.5796,978.1563 Q646.8452,978.4063 646.8452,978.75 Q646.8452,979.0938 646.5015,979.5 Q646.0015,980.0781 645.2046,980.4063 Q644.1265,980.8594 642.8296,980.8594 Q641.314,980.8594 640.1108,980.2344 Q639.1265,979.7344 638.439,978.6719 Q637.7515,977.5938 637.7515,976.3125 L637.7515,975.1563 Q637.7515,973.8281 638.3608,972.6875 Q638.9858,971.5313 640.0796,970.9219 Q641.1733,970.2969 642.4077,970.2969 Q643.1421,970.2969 643.7827,970.4688 Q644.439,970.625 644.9858,970.9844 Z " fill="#000000"/><text fill="#000000" font-family="sans-serif" font-size="14" lengthAdjust="spacing" textLength="26.4688" x="662.7202" y="980.8379">Line</text><line style="stroke:#181818;stroke-width:0.5;" x1="544" x2="775.4092" y1="991.1094" y2="991.1094"/><text fill="#000000" font-family="sans-serif" font-size="14" lengthAdjust="spacing" textLength="75.4688" x="549" y="1009.6426">-start : Point</text><text fill="#000000" font-family="sans-serif" font-size="14" lengthAdjust="spacing" textLength="71.5996" x="549" y="1027.252">-end : Point</text><line style="stroke:#181818;stroke-width:1;" x1="544" x2="775.4092" y1="1034.3281" y2="1034.3281"/><text fill="#000000" font-family="sans-serif" font-size="14" lengthAdjust="spacing" textLength="110.1064" x="549" y="1052.8613">+getStart() : Point</text><text fill="#000000" font-family="sans-serif" font-size="14" lengthAdjust="spacing" textLength="105.4512" x="549" y="1070.4707">+getEnd() : Point</text><text fill="#000000" font-family="sans-serif" font-size="14" lengthAdjust="spacing" textLength="126.458" x="549" y="1088.0801">+getWidth() : double</text><text fill="#000000" font-family="sans-serif" font-size="14" lengthAdjust="spacing" textLength="131.1406" x="549" y="1105.6895">+getHeight() : double</text><text fill="#000000" font-family="sans-serif" font-size="14" lengthAdjust="spacing" textLength="122.5615" x="549" y="1123.2988">+getCenter() : Point</text><text fill="#000000" font-family="sans-serif" font-size="14" lengthAdjust="spacing" textLength="212.0508" x="549" y="1140.9082">+getDescription(int indent) : String</text><text fill="#000000" font-family="sans-serif" font-size="14" lengthAdjust="spacing" textLength="218.2988" x="549" y="1158.5176">+move(double dx, double dy) : void</text><text fill="#000000" font-family="sans-serif" font-size="14" lengthAdjust="spacing" textLength="221.4092" x="549" y="1176.127">+resize(double px, double py) : void</text><text fill="#000000" font-family="sans-serif" font-size="14" lengthAdjust="spacing" textLength="103.1133" x="549" y="1193.7363">+copy() : IShape</text></g><!--class Polygon--><g class="entity" data-qualified-name="Polygon" data-source-line="57" id="ent0006"><rect fill="#F1F1F1" height="241.7031" rx="2.5" ry="2.5" style="stroke:#181818;stroke-width:0.5;" width="244.3125" x="811.5" y="959.1094"/><ellipse cx="904.1099" cy="975.1094" fill="#ADD1B2" rx="11" ry="11" style="stroke:#181818;stroke-width:1;"/><path d="M906.8755,970.9844 Q907.0317,970.7656 907.2192,970.6563 Q907.4067,970.5469 907.6255,970.5469 Q908.0005,970.5469 908.2349,970.8125 Q908.4692,971.0625 908.4692,971.6719 L908.4692,973.125 Q908.4692,973.7344 908.2349,974 Q908.0005,974.2656 907.6255,974.2656 Q907.2817,974.2656 907.0786,974.0625 Q906.8755,973.875 906.7661,973.3594 Q906.7192,973 906.5317,972.8125 Q906.2036,972.4375 905.5942,972.2188 Q904.9849,972 904.3599,972 Q903.5942,972 902.9536,972.3281 Q902.3286,972.6563 901.8286,973.4063 Q901.3442,974.1563 901.3442,975.1875 L901.3442,976.2813 Q901.3442,977.5156 902.2349,978.3438 Q903.1255,979.1563 904.7192,979.1563 Q905.6567,979.1563 906.313,978.9063 Q906.7036,978.75 907.1255,978.3125 Q907.3911,978.0469 907.5317,977.9688 Q907.688,977.8906 907.8911,977.8906 Q908.2192,977.8906 908.4692,978.1563 Q908.7349,978.4063 908.7349,978.75 Q908.7349,979.0938 908.3911,979.5 Q907.8911,980.0781 907.0942,980.4063 Q906.0161,980.8594 904.7192,980.8594 Q903.2036,980.8594 902.0005,980.2344 Q901.0161,979.7344 900.3286,978.6719 Q899.6411,977.5938 899.6411,976.3125 L899.6411,975.1563 Q899.6411,973.8281 900.2505,972.6875 Q900.8755,971.5313 901.9692,970.9219 Q903.063,970.2969 904.2974,970.2969 Q905.0317,970.2969 905.6724,970.4688 Q906.3286,970.625 906.8755,970.9844 Z " fill="#000000"/><text fill="#000000" font-family="sans-serif" font-size="14" lengthAdjust="spacing" textLength="50.5928" x="924.6099" y="980.8379">Polygon</text><line style="stroke:#181818;stroke-width:0.5;" x1="812.5" x2="1054.8125" y1="991.1094" y2="991.1094"/><text fill="#000000" font-family="sans-serif" font-size="14" lengthAdjust="spacing" textLength="134.6133" x="817.5" y="1009.6426">-vertices : List&lt;Point&gt;</text><line style="stroke:#181818;stroke-width:1;" x1="812.5" x2="1054.8125" y1="1016.7188" y2="1016.7188"/><text fill="#000000" font-family="sans-serif" font-size="14" lengthAdjust="spacing" textLength="162.2578" x="817.5" y="1035.252">+addVertex(Point p) : void</text><text fill="#000000" font-family="sans-serif" font-size="14" lengthAdjust="spacing" textLength="232.3125" x="817.5" y="1052.8613">+addVertex(double x, double y) : void</text><text fill="#000000" font-family="sans-serif" font-size="14" lengthAdjust="spacing" textLength="126.458" x="817.5" y="1070.4707">+getWidth() : double</text><text fill="#000000" font-family="sans-serif" font-size="14" lengthAdjust="spacing" textLength="131.1406" x="817.5" y="1088.0801">+getHeight() : double</text><text fill="#000000" font-family="sans-serif" font-size="14" lengthAdjust="spacing" textLength="122.5615" x="817.5" y="1105.6895">+getCenter() : Point</text><text fill="#000000" font-family="sans-serif" font-size="14" lengthAdjust="spacing" textLength="212.0508" x="817.5" y="1123.2988">+getDescription(int indent) : String</text><text fill="#000000" font-family="sans-serif" font-size="14" lengthAdjust="spacing" textLength="221.4092" x="817.5" y="1140.9082">+resize(double dx, double dy) : void</text><text fill="#000000" font-family="sans-serif" font-size="14" lengthAdjust="spacing" textLength="218.2988" x="817.5" y="1158.5176">+move(double dx, double dy) : void</text><text fill="#000000" font-family="sans-serif" font-size="14" lengthAdjust="spacing" textLength="159.9404" x="817.5" y="1176.127">+rotate(double deg) : void</text><text fill="#000000" font-family="sans-serif" font-size="14" lengthAdjust="spacing" textLength="103.1133" x="817.5" y="1193.7363">+copy() : IShape</text></g><!--class PolyLine--><g class="entity" data-qualified-name="PolyLine" data-source-line="72" id="ent0007"><rect fill="#F1F1F1" height="259.3125" rx="2.5" ry="2.5" style="stroke:#181818;stroke-width:0.5;" width="244.3125" x="1090.5" y="950.6094"/><ellipse cx="1181.5547" cy="966.6094" fill="#ADD1B2" rx="11" ry="11" style="stroke:#181818;stroke-width:1;"/><path d="M1184.3203,962.4844 Q1184.4766,962.2656 1184.6641,962.1563 Q1184.8516,962.0469 1185.0703,962.0469 Q1185.4453,962.0469 1185.6797,962.3125 Q1185.9141,962.5625 1185.9141,963.1719 L1185.9141,964.625 Q1185.9141,965.2344 1185.6797,965.5 Q1185.4453,965.7656 1185.0703,965.7656 Q1184.7266,965.7656 1184.5234,965.5625 Q1184.3203,965.375 1184.2109,964.8594 Q1184.1641,964.5 1183.9766,964.3125 Q1183.6484,963.9375 1183.0391,963.7188 Q1182.4297,963.5 1181.8047,963.5 Q1181.0391,963.5 1180.3984,963.8281 Q1179.7734,964.1563 1179.2734,964.9063 Q1178.7891,965.6563 1178.7891,966.6875 L1178.7891,967.7813 Q1178.7891,969.0156 1179.6797,969.8438 Q1180.5703,970.6563 1182.1641,970.6563 Q1183.1016,970.6563 1183.7578,970.4063 Q1184.1484,970.25 1184.5703,969.8125 Q1184.8359,969.5469 1184.9766,969.4688 Q1185.1328,969.3906 1185.3359,969.3906 Q1185.6641,969.3906 1185.9141,969.6563 Q1186.1797,969.9063 1186.1797,970.25 Q1186.1797,970.5938 1185.8359,971 Q1185.3359,971.5781 1184.5391,971.9063 Q1183.4609,972.3594 1182.1641,972.3594 Q1180.6484,972.3594 1179.4453,971.7344 Q1178.4609,971.2344 1177.7734,970.1719 Q1177.0859,969.0938 1177.0859,967.8125 L1177.0859,966.6563 Q1177.0859,965.3281 1177.6953,964.1875 Q1178.3203,963.0313 1179.4141,962.4219 Q1180.5078,961.7969 1181.7422,961.7969 Q1182.4766,961.7969 1183.1172,961.9688 Q1183.7734,962.125 1184.3203,962.4844 Z " fill="#000000"/><text fill="#000000" font-family="sans-serif" font-size="14" lengthAdjust="spacing" textLength="53.7031" x="1202.0547" y="972.3379">PolyLine</text><line style="stroke:#181818;stroke-width:0.5;" x1="1091.5" x2="1333.8125" y1="982.6094" y2="982.6094"/><text fill="#000000" font-family="sans-serif" font-size="14" lengthAdjust="spacing" textLength="134.6133" x="1096.5" y="1001.1426">-vertices : List&lt;Point&gt;</text><line style="stroke:#181818;stroke-width:1;" x1="1091.5" x2="1333.8125" y1="1008.2188" y2="1008.2188"/><text fill="#000000" font-family="sans-serif" font-size="14" lengthAdjust="spacing" textLength="166.1475" x="1096.5" y="1026.752">+addVertex(Point pt) : void</text><text fill="#000000" font-family="sans-serif" font-size="14" lengthAdjust="spacing" textLength="232.3125" x="1096.5" y="1044.3613">+addVertex(double x, double y) : void</text><text fill="#000000" font-family="sans-serif" font-size="14" lengthAdjust="spacing" textLength="221.3887" x="1096.5" y="1061.9707">+setVertex(int index, Point pt) : void</text><text fill="#000000" font-family="sans-serif" font-size="14" lengthAdjust="spacing" textLength="126.458" x="1096.5" y="1079.5801">+getWidth() : double</text><text fill="#000000" font-family="sans-serif" font-size="14" lengthAdjust="spacing" textLength="131.1406" x="1096.5" y="1097.1895">+getHeight() : double</text><text fill="#000000" font-family="sans-serif" font-size="14" lengthAdjust="spacing" textLength="122.5615" x="1096.5" y="1114.7988">+getCenter() : Point</text><text fill="#000000" font-family="sans-serif" font-size="14" lengthAdjust="spacing" textLength="212.0508" x="1096.5" y="1132.4082">+getDescription(int indent) : String</text><text fill="#000000" font-family="sans-serif" font-size="14" lengthAdjust="spacing" textLength="218.2988" x="1096.5" y="1150.0176">+move(double dx, double dy) : void</text><text fill="#000000" font-family="sans-serif" font-size="14" lengthAdjust="spacing" textLength="219.8369" x="1096.5" y="1167.627">+resize(double sx, double sy) : void</text><text fill="#000000" font-family="sans-serif" font-size="14" lengthAdjust="spacing" textLength="159.9404" x="1096.5" y="1185.2363">+rotate(double deg) : void</text><text fill="#000000" font-family="sans-serif" font-size="14" lengthAdjust="spacing" textLength="103.1133" x="1096.5" y="1202.8457">+copy() : IShape</text></g><!--class Rectangle--><g class="entity" data-qualified-name="Rectangle" data-source-line="88" id="ent0008"><rect fill="#F1F1F1" height="241.7031" rx="2.5" ry="2.5" style="stroke:#181818;stroke-width:0.5;" width="233.4092" x="1370" y="959.1094"/><ellipse cx="1450.9341" cy="975.1094" fill="#ADD1B2" rx="11" ry="11" style="stroke:#181818;stroke-width:1;"/><path d="M1453.6997,970.9844 Q1453.856,970.7656 1454.0435,970.6563 Q1454.231,970.5469 1454.4497,970.5469 Q1454.8247,970.5469 1455.0591,970.8125 Q1455.2935,971.0625 1455.2935,971.6719 L1455.2935,973.125 Q1455.2935,973.7344 1455.0591,974 Q1454.8247,974.2656 1454.4497,974.2656 Q1454.106,974.2656 1453.9028,974.0625 Q1453.6997,973.875 1453.5903,973.3594 Q1453.5435,973 1453.356,972.8125 Q1453.0278,972.4375 1452.4185,972.2188 Q1451.8091,972 1451.1841,972 Q1450.4185,972 1449.7778,972.3281 Q1449.1528,972.6563 1448.6528,973.4063 Q1448.1685,974.1563 1448.1685,975.1875 L1448.1685,976.2813 Q1448.1685,977.5156 1449.0591,978.3438 Q1449.9497,979.1563 1451.5435,979.1563 Q1452.481,979.1563 1453.1372,978.9063 Q1453.5278,978.75 1453.9497,978.3125 Q1454.2153,978.0469 1454.356,977.9688 Q1454.5122,977.8906 1454.7153,977.8906 Q1455.0435,977.8906 1455.2935,978.1563 Q1455.5591,978.4063 1455.5591,978.75 Q1455.5591,979.0938 1455.2153,979.5 Q1454.7153,980.0781 1453.9185,980.4063 Q1452.8403,980.8594 1451.5435,980.8594 Q1450.0278,980.8594 1448.8247,980.2344 Q1447.8403,979.7344 1447.1528,978.6719 Q1446.4653,977.5938 1446.4653,976.3125 L1446.4653,975.1563 Q1446.4653,973.8281 1447.0747,972.6875 Q1447.6997,971.5313 1448.7935,970.9219 Q1449.8872,970.2969 1451.1216,970.2969 Q1451.856,970.2969 1452.4966,970.4688 Q1453.1528,970.625 1453.6997,970.9844 Z " fill="#000000"/><text fill="#000000" font-family="sans-serif" font-size="14" lengthAdjust="spacing" textLength="63.041" x="1471.4341" y="980.8379">Rectangle</text><line style="stroke:#181818;stroke-width:0.5;" x1="1371" x2="1602.4092" y1="991.1094" y2="991.1094"/><text fill="#000000" font-family="sans-serif" font-size="14" lengthAdjust="spacing" textLength="96.4961" x="1376" y="1009.6426">-position : Point</text><text fill="#000000" font-family="sans-serif" font-size="14" lengthAdjust="spacing" textLength="73.1377" x="1376" y="1027.252">-size : Point</text><text fill="#000000" font-family="sans-serif" font-size="14" lengthAdjust="spacing" textLength="86.3721" x="1376" y="1044.8613">-radius : Point</text><line style="stroke:#181818;stroke-width:1;" x1="1371" x2="1602.4092" y1="1051.9375" y2="1051.9375"/><text fill="#000000" font-family="sans-serif" font-size="14" lengthAdjust="spacing" textLength="131.1406" x="1376" y="1070.4707">+getHeight() : double</text><text fill="#000000" font-family="sans-serif" font-size="14" lengthAdjust="spacing" textLength="126.458" x="1376" y="1088.0801">+getWidth() : double</text><text fill="#000000" font-family="sans-serif" font-size="14" lengthAdjust="spacing" textLength="122.5615" x="1376" y="1105.6895">+getCenter() : Point</text><text fill="#000000" font-family="sans-serif" font-size="14" lengthAdjust="spacing" textLength="212.0508" x="1376" y="1123.2988">+getDescription(int indent) : String</text><text fill="#000000" font-family="sans-serif" font-size="14" lengthAdjust="spacing" textLength="218.2988" x="1376" y="1140.9082">+move(double dx, double dy) : void</text><text fill="#000000" font-family="sans-serif" font-size="14" lengthAdjust="spacing" textLength="221.4092" x="1376" y="1158.5176">+resize(double px, double py) : void</text><text fill="#000000" font-family="sans-serif" font-size="14" lengthAdjust="spacing" textLength="215.9473" x="1376" y="1176.127">+radius(double rx, double ry) : void</text><text fill="#000000" font-family="sans-serif" font-size="14" lengthAdjust="spacing" textLength="103.1133" x="1376" y="1193.7363">+copy() : IShape</text></g><!--class Text--><g class="entity" data-qualified-name="Text" data-source-line="103" id="ent0009"><rect fill="#F1F1F1" height="206.4844" rx="2.5" ry="2.5" style="stroke:#181818;stroke-width:0.5;" width="233.4092" x="1638" y="977.1094"/><ellipse cx="1736.8408" cy="993.1094" fill="#ADD1B2" rx="11" ry="11" style="stroke:#181818;stroke-width:1;"/><path d="M1739.6064,988.9844 Q1739.7627,988.7656 1739.9502,988.6563 Q1740.1377,988.5469 1740.3564,988.5469 Q1740.7314,988.5469 1740.9658,988.8125 Q1741.2002,989.0625 1741.2002,989.6719 L1741.2002,991.125 Q1741.2002,991.7344 1740.9658,992 Q1740.7314,992.2656 1740.3564,992.2656 Q1740.0127,992.2656 1739.8096,992.0625 Q1739.6064,991.875 1739.4971,991.3594 Q1739.4502,991 1739.2627,990.8125 Q1738.9346,990.4375 1738.3252,990.2188 Q1737.7158,990 1737.0908,990 Q1736.3252,990 1735.6846,990.3281 Q1735.0596,990.6563 1734.5596,991.4063 Q1734.0752,992.1563 1734.0752,993.1875 L1734.0752,994.2813 Q1734.0752,995.5156 1734.9658,996.3438 Q1735.8564,997.1563 1737.4502,997.1563 Q1738.3877,997.1563 1739.0439,996.9063 Q1739.4346,996.75 1739.8564,996.3125 Q1740.1221,996.0469 1740.2627,995.9688 Q1740.4189,995.8906 1740.6221,995.8906 Q1740.9502,995.8906 1741.2002,996.1563 Q1741.4658,996.4063 1741.4658,996.75 Q1741.4658,997.0938 1741.1221,997.5 Q1740.6221,998.0781 1739.8252,998.4063 Q1738.7471,998.8594 1737.4502,998.8594 Q1735.9346,998.8594 1734.7314,998.2344 Q1733.7471,997.7344 1733.0596,996.6719 Q1732.3721,995.5938 1732.3721,994.3125 L1732.3721,993.1563 Q1732.3721,991.8281 1732.9814,990.6875 Q1733.6064,989.5313 1734.7002,988.9219 Q1735.7939,988.2969 1737.0283,988.2969 Q1737.7627,988.2969 1738.4033,988.4688 Q1739.0596,988.625 1739.6064,988.9844 Z " fill="#000000"/><text fill="#000000" font-family="sans-serif" font-size="14" lengthAdjust="spacing" textLength="27.2275" x="1757.3408" y="998.8379">Text</text><line style="stroke:#181818;stroke-width:0.5;" x1="1639" x2="1870.4092" y1="1009.1094" y2="1009.1094"/><text fill="#000000" font-family="sans-serif" font-size="14" lengthAdjust="spacing" textLength="75.4688" x="1644" y="1027.6426">-text : String</text><text fill="#000000" font-family="sans-serif" font-size="14" lengthAdjust="spacing" textLength="87.1514" x="1644" y="1045.252">-center : Point</text><line style="stroke:#181818;stroke-width:1;" x1="1639" x2="1870.4092" y1="1052.3281" y2="1052.3281"/><text fill="#000000" font-family="sans-serif" font-size="14" lengthAdjust="spacing" textLength="126.458" x="1644" y="1070.8613">+getWidth() : double</text><text fill="#000000" font-family="sans-serif" font-size="14" lengthAdjust="spacing" textLength="131.1406" x="1644" y="1088.4707">+getHeight() : double</text><text fill="#000000" font-family="sans-serif" font-size="14" lengthAdjust="spacing" textLength="122.5615" x="1644" y="1106.0801">+getCenter() : Point</text><text fill="#000000" font-family="sans-serif" font-size="14" lengthAdjust="spacing" textLength="212.0508" x="1644" y="1123.6895">+getDescription(int indent) : String</text><text fill="#000000" font-family="sans-serif" font-size="14" lengthAdjust="spacing" textLength="218.2988" x="1644" y="1141.2988">+move(double dx, double dy) : void</text><text fill="#000000" font-family="sans-serif" font-size="14" lengthAdjust="spacing" textLength="221.4092" x="1644" y="1158.9082">+resize(double px, double py) : void</text><text fill="#000000" font-family="sans-serif" font-size="14" lengthAdjust="spacing" textLength="103.1133" x="1644" y="1176.5176">+copy() : IShape</text></g><!--class Triangle--><g class="entity" data-qualified-name="Triangle" data-source-line="116" id="ent0010"><rect fill="#F1F1F1" height="259.3125" rx="2.5" ry="2.5" style="stroke:#181818;stroke-width:0.5;" width="363.7432" x="1906.5" y="950.6094"/><ellipse cx="2058.832" cy="966.6094" fill="#ADD1B2" rx="11" ry="11" style="stroke:#181818;stroke-width:1;"/><path d="M2061.5977,962.4844 Q2061.7539,962.2656 2061.9414,962.1563 Q2062.1289,962.0469 2062.3477,962.0469 Q2062.7227,962.0469 2062.957,962.3125 Q2063.1914,962.5625 2063.1914,963.1719 L2063.1914,964.625 Q2063.1914,965.2344 2062.957,965.5 Q2062.7227,965.7656 2062.3477,965.7656 Q2062.0039,965.7656 2061.8008,965.5625 Q2061.5977,965.375 2061.4883,964.8594 Q2061.4414,964.5 2061.2539,964.3125 Q2060.9258,963.9375 2060.3164,963.7188 Q2059.707,963.5 2059.082,963.5 Q2058.3164,963.5 2057.6758,963.8281 Q2057.0508,964.1563 2056.5508,964.9063 Q2056.0664,965.6563 2056.0664,966.6875 L2056.0664,967.7813 Q2056.0664,969.0156 2056.957,969.8438 Q2057.8477,970.6563 2059.4414,970.6563 Q2060.3789,970.6563 2061.0352,970.4063 Q2061.4258,970.25 2061.8477,969.8125 Q2062.1133,969.5469 2062.2539,969.4688 Q2062.4102,969.3906 2062.6133,969.3906 Q2062.9414,969.3906 2063.1914,969.6563 Q2063.457,969.9063 2063.457,970.25 Q2063.457,970.5938 2063.1133,971 Q2062.6133,971.5781 2061.8164,971.9063 Q2060.7383,972.3594 2059.4414,972.3594 Q2057.9258,972.3594 2056.7227,971.7344 Q2055.7383,971.2344 2055.0508,970.1719 Q2054.3633,969.0938 2054.3633,967.8125 L2054.3633,966.6563 Q2054.3633,965.3281 2054.9727,964.1875 Q2055.5977,963.0313 2056.6914,962.4219 Q2057.7852,961.7969 2059.0195,961.7969 Q2059.7539,961.7969 2060.3945,961.9688 Q2061.0508,962.125 2061.5977,962.4844 Z " fill="#000000"/><text fill="#000000" font-family="sans-serif" font-size="14" lengthAdjust="spacing" textLength="50.5791" x="2079.332" y="972.3379">Triangle</text><line style="stroke:#181818;stroke-width:0.5;" x1="1907.5" x2="2269.2432" y1="982.6094" y2="982.6094"/><text fill="#000000" font-family="sans-serif" font-size="14" lengthAdjust="spacing" textLength="134.6133" x="1912.5" y="1001.1426">-vertices : List&lt;Point&gt;</text><line style="stroke:#181818;stroke-width:1;" x1="1907.5" x2="2269.2432" y1="1008.2188" y2="1008.2188"/><text fill="#000000" font-family="sans-serif" font-size="14" lengthAdjust="spacing" textLength="169.251" x="1912.5" y="1026.752">+getVertices() : List&lt;Point&gt;</text><text fill="#000000" font-family="sans-serif" font-size="14" lengthAdjust="spacing" textLength="126.458" x="1912.5" y="1044.3613">+getWidth() : double</text><text fill="#000000" font-family="sans-serif" font-size="14" lengthAdjust="spacing" textLength="131.1406" x="1912.5" y="1061.9707">+getHeight() : double</text><text fill="#000000" font-family="sans-serif" font-size="14" lengthAdjust="spacing" textLength="122.5615" x="1912.5" y="1079.5801">+getCenter() : Point</text><text fill="#000000" font-family="sans-serif" font-size="14" lengthAdjust="spacing" textLength="212.0508" x="1912.5" y="1097.1895">+getDescription(int indent) : String</text><text fill="#000000" font-family="sans-serif" font-size="14" lengthAdjust="spacing" textLength="218.2988" x="1912.5" y="1114.7988">+move(double dx, double dy) : void</text><text fill="#000000" font-family="sans-serif" font-size="14" lengthAdjust="spacing" textLength="219.8369" x="1912.5" y="1132.4082">+resize(double sx, double sy) : void</text><text fill="#000000" font-family="sans-serif" font-size="14" lengthAdjust="spacing" textLength="159.9404" x="1912.5" y="1150.0176">+rotate(double deg) : void</text><text fill="#000000" font-family="sans-serif" font-size="14" lengthAdjust="spacing" textLength="351.7432" x="1912.5" y="1167.627">-scalePoint(Point p, Point c, double sx, double sy) : Point</text><text fill="#000000" font-family="sans-serif" font-size="14" lengthAdjust="spacing" textLength="347.8672" x="1912.5" y="1185.2363">-rotatePoint(Point point, Point center, double rad) : Point</text><text fill="#000000" font-family="sans-serif" font-size="14" lengthAdjust="spacing" textLength="103.1133" x="1912.5" y="1202.8457">+copy() : IShape</text></g><!--class Group--><g class="entity" data-qualified-name="Group" data-source-line="132" id="ent0011"><rect fill="#F1F1F1" height="259.3125" rx="2.5" ry="2.5" style="stroke:#181818;stroke-width:0.5;" width="233.4092" x="2306" y="950.6094"/><ellipse cx="2398.9995" cy="966.6094" fill="#ADD1B2" rx="11" ry="11" style="stroke:#181818;stroke-width:1;"/><path d="M2401.7651,962.4844 Q2401.9214,962.2656 2402.1089,962.1563 Q2402.2964,962.0469 2402.5151,962.0469 Q2402.8901,962.0469 2403.1245,962.3125 Q2403.3589,962.5625 2403.3589,963.1719 L2403.3589,964.625 Q2403.3589,965.2344 2403.1245,965.5 Q2402.8901,965.7656 2402.5151,965.7656 Q2402.1714,965.7656 2401.9683,965.5625 Q2401.7651,965.375 2401.6558,964.8594 Q2401.6089,964.5 2401.4214,964.3125 Q2401.0933,963.9375 2400.4839,963.7188 Q2399.8745,963.5 2399.2495,963.5 Q2398.4839,963.5 2397.8433,963.8281 Q2397.2183,964.1563 2396.7183,964.9063 Q2396.2339,965.6563 2396.2339,966.6875 L2396.2339,967.7813 Q2396.2339,969.0156 2397.1245,969.8438 Q2398.0151,970.6563 2399.6089,970.6563 Q2400.5464,970.6563 2401.2026,970.4063 Q2401.5933,970.25 2402.0151,969.8125 Q2402.2808,969.5469 2402.4214,969.4688 Q2402.5776,969.3906 2402.7808,969.3906 Q2403.1089,969.3906 2403.3589,969.6563 Q2403.6245,969.9063 2403.6245,970.25 Q2403.6245,970.5938 2403.2808,971 Q2402.7808,971.5781 2401.9839,971.9063 Q2400.9058,972.3594 2399.6089,972.3594 Q2398.0933,972.3594 2396.8901,971.7344 Q2395.9058,971.2344 2395.2183,970.1719 Q2394.5308,969.0938 2394.5308,967.8125 L2394.5308,966.6563 Q2394.5308,965.3281 2395.1401,964.1875 Q2395.7651,963.0313 2396.8589,962.4219 Q2397.9526,961.7969 2399.187,961.7969 Q2399.9214,961.7969 2400.562,961.9688 Q2401.2183,962.125 2401.7651,962.4844 Z " fill="#000000"/><text fill="#000000" font-family="sans-serif" font-size="14" lengthAdjust="spacing" textLength="38.9102" x="2419.4995" y="972.3379">Group</text><line style="stroke:#181818;stroke-width:0.5;" x1="2307" x2="2538.4092" y1="982.6094" y2="982.6094"/><text fill="#000000" font-family="sans-serif" font-size="14" lengthAdjust="spacing" textLength="158.7715" x="2312" y="1001.1426">#elements : List&lt;IShape&gt;</text><line style="stroke:#181818;stroke-width:1;" x1="2307" x2="2538.4092" y1="1008.2188" y2="1008.2188"/><text fill="#000000" font-family="sans-serif" font-size="14" lengthAdjust="spacing" textLength="155.2646" x="2312" y="1026.752">+add(IShape child) : void</text><text fill="#000000" font-family="sans-serif" font-size="14" lengthAdjust="spacing" textLength="145.1475" x="2312" y="1044.3613">+get(int index) : IShape</text><text fill="#000000" font-family="sans-serif" font-size="14" lengthAdjust="spacing" textLength="189.499" x="2312" y="1061.9707">+getElements() : List&lt;IShape&gt;</text><text fill="#000000" font-family="sans-serif" font-size="14" lengthAdjust="spacing" textLength="122.5615" x="2312" y="1079.5801">+getCenter() : Point</text><text fill="#000000" font-family="sans-serif" font-size="14" lengthAdjust="spacing" textLength="131.1406" x="2312" y="1097.1895">+getHeight() : double</text><text fill="#000000" font-family="sans-serif" font-size="14" lengthAdjust="spacing" textLength="126.458" x="2312" y="1114.7988">+getWidth() : double</text><text fill="#000000" font-family="sans-serif" font-size="14" lengthAdjust="spacing" textLength="212.0508" x="2312" y="1132.4082">+getDescription(int indent) : String</text><text fill="#000000" font-family="sans-serif" font-size="14" lengthAdjust="spacing" textLength="218.2988" x="2312" y="1150.0176">+move(double dx, double dy) : void</text><text fill="#000000" font-family="sans-serif" font-size="14" lengthAdjust="spacing" textLength="221.4092" x="2312" y="1167.627">+resize(double px, double py) : void</text><text fill="#000000" font-family="sans-serif" font-size="14" lengthAdjust="spacing" textLength="159.9404" x="2312" y="1185.2363">+rotate(double deg) : void</text><text fill="#000000" font-family="sans-serif" font-size="14" lengthAdjust="spacing" textLength="103.1133" x="2312" y="1202.8457">+copy() : IShape</text></g><!--class IShape--><g class="entity" data-qualified-name="IShape" data-source-line="148" id="ent0012"><rect fill="#F1F1F1" height="224.0938" rx="2.5" ry="2.5" style="stroke:#181818;stroke-width:0.5;" width="233.4092" x="1365" y="153.6094"/><ellipse cx="1455.2686" cy="169.6094" fill="#B4A7E5" rx="11" ry="11" style="stroke:#181818;stroke-width:1;"/><path d="M1456.2217,166.25 L1456.2217,172.9063 L1457.9404,172.9063 Q1458.5498,172.9063 1458.8154,173.1406 Q1459.0811,173.375 1459.0811,173.7656 Q1459.0811,174.1406 1458.8154,174.375 Q1458.5498,174.6094 1457.9404,174.6094 L1452.7998,174.6094 Q1452.1904,174.6094 1451.9248,174.375 Q1451.6592,174.1406 1451.6592,173.75 Q1451.6592,173.375 1451.9248,173.1406 Q1452.1904,172.9063 1452.7998,172.9063 L1454.5186,172.9063 L1454.5186,166.25 L1452.7998,166.25 Q1452.1904,166.25 1451.9248,166.0156 Q1451.6592,165.7813 1451.6592,165.3906 Q1451.6592,165.0156 1451.9248,164.7813 Q1452.1904,164.5469 1452.7998,164.5469 L1457.9404,164.5469 Q1458.5498,164.5469 1458.8154,164.7813 Q1459.0811,165.0156 1459.0811,165.3906 Q1459.0811,165.7813 1458.8154,166.0156 Q1458.5498,166.25 1457.9404,166.25 L1456.2217,166.25 Z " fill="#000000"/><text fill="#000000" font-family="sans-serif" font-size="14" font-style="italic" lengthAdjust="spacing" textLength="44.3721" x="1475.7686" y="175.3379">IShape</text><line style="stroke:#181818;stroke-width:0.5;" x1="1366" x2="1597.4092" y1="185.6094" y2="185.6094"/><line style="stroke:#181818;stroke-width:0.5;" x1="1366" x2="1597.4092" y1="193.6094" y2="193.6094"/><text fill="#000000" font-family="sans-serif" font-size="14" lengthAdjust="spacing" textLength="126.458" x="1371" y="212.1426">~getWidth() : double</text><text fill="#000000" font-family="sans-serif" font-size="14" lengthAdjust="spacing" textLength="131.1406" x="1371" y="229.752">~getHeight() : double</text><text fill="#000000" font-family="sans-serif" font-size="14" lengthAdjust="spacing" textLength="122.5615" x="1371" y="247.3613">~getCenter() : Point</text><text fill="#000000" font-family="sans-serif" font-size="14" lengthAdjust="spacing" textLength="140.4443" x="1371" y="264.9707">~getStyle() : SVGStyle</text><text fill="#000000" font-family="sans-serif" font-size="14" lengthAdjust="spacing" textLength="205.7686" x="1371" y="282.5801">~getTransform() : SVGTransform</text><text fill="#000000" font-family="sans-serif" font-size="14" lengthAdjust="spacing" textLength="212.0508" x="1371" y="300.1895">~getDescription(int indent) : String</text><text fill="#000000" font-family="sans-serif" font-size="14" lengthAdjust="spacing" textLength="218.2988" x="1371" y="317.7988">~move(double dx, double dy) : void</text><text fill="#000000" font-family="sans-serif" font-size="14" lengthAdjust="spacing" textLength="221.4092" x="1371" y="335.4082">~resize(double px, double py) : void</text><text fill="#000000" font-family="sans-serif" font-size="14" lengthAdjust="spacing" textLength="159.9404" x="1371" y="353.0176">~rotate(double deg) : void</text><text fill="#000000" font-family="sans-serif" font-size="14" lengthAdjust="spacing" textLength="103.1133" x="1371" y="370.627">~copy() : IShape</text></g><!--class Path--><g class="entity" data-qualified-name="Path" data-source-line="161" id="ent0013"><rect fill="#F1F1F1" height="241.7031" rx="2.5" ry="2.5" style="stroke:#181818;stroke-width:0.5;" width="287.8779" x="2574.5" y="959.1094"/><ellipse cx="2699.7891" cy="975.1094" fill="#ADD1B2" rx="11" ry="11" style="stroke:#181818;stroke-width:1;"/><path d="M2702.5547,970.9844 Q2702.7109,970.7656 2702.8984,970.6563 Q2703.0859,970.5469 2703.3047,970.5469 Q2703.6797,970.5469 2703.9141,970.8125 Q2704.1484,971.0625 2704.1484,971.6719 L2704.1484,973.125 Q2704.1484,973.7344 2703.9141,974 Q2703.6797,974.2656 2703.3047,974.2656 Q2702.9609,974.2656 2702.7578,974.0625 Q2702.5547,973.875 2702.4453,973.3594 Q2702.3984,973 2702.2109,972.8125 Q2701.8828,972.4375 2701.2734,972.2188 Q2700.6641,972 2700.0391,972 Q2699.2734,972 2698.6328,972.3281 Q2698.0078,972.6563 2697.5078,973.4063 Q2697.0234,974.1563 2697.0234,975.1875 L2697.0234,976.2813 Q2697.0234,977.5156 2697.9141,978.3438 Q2698.8047,979.1563 2700.3984,979.1563 Q2701.3359,979.1563 2701.9922,978.9063 Q2702.3828,978.75 2702.8047,978.3125 Q2703.0703,978.0469 2703.2109,977.9688 Q2703.3672,977.8906 2703.5703,977.8906 Q2703.8984,977.8906 2704.1484,978.1563 Q2704.4141,978.4063 2704.4141,978.75 Q2704.4141,979.0938 2704.0703,979.5 Q2703.5703,980.0781 2702.7734,980.4063 Q2701.6953,980.8594 2700.3984,980.8594 Q2698.8828,980.8594 2697.6797,980.2344 Q2696.6953,979.7344 2696.0078,978.6719 Q2695.3203,977.5938 2695.3203,976.3125 L2695.3203,975.1563 Q2695.3203,973.8281 2695.9297,972.6875 Q2696.5547,971.5313 2697.6484,970.9219 Q2698.7422,970.2969 2699.9766,970.2969 Q2700.7109,970.2969 2701.3516,970.4688 Q2702.0078,970.625 2702.5547,970.9844 Z " fill="#000000"/><text fill="#000000" font-family="sans-serif" font-size="14" lengthAdjust="spacing" textLength="28.7998" x="2720.2891" y="980.8379">Path</text><line style="stroke:#181818;stroke-width:0.5;" x1="2575.5" x2="2861.3779" y1="991.1094" y2="991.1094"/><text fill="#000000" font-family="sans-serif" font-size="14" lengthAdjust="spacing" textLength="101.9443" x="2580.5" y="1009.6426">-path : SVGPath</text><line style="stroke:#181818;stroke-width:1;" x1="2575.5" x2="2861.3779" y1="1016.7188" y2="1016.7188"/><text fill="#000000" font-family="sans-serif" font-size="14" lengthAdjust="spacing" textLength="117.8789" x="2580.5" y="1035.252">+draw() : SVGPath</text><text fill="#000000" font-family="sans-serif" font-size="14" lengthAdjust="spacing" textLength="126.458" x="2580.5" y="1052.8613">+getWidth() : double</text><text fill="#000000" font-family="sans-serif" font-size="14" lengthAdjust="spacing" textLength="131.1406" x="2580.5" y="1070.4707">+getHeight() : double</text><text fill="#000000" font-family="sans-serif" font-size="14" lengthAdjust="spacing" textLength="122.5615" x="2580.5" y="1088.0801">+getCenter() : Point</text><text fill="#000000" font-family="sans-serif" font-size="14" lengthAdjust="spacing" textLength="212.0508" x="2580.5" y="1105.6895">+getDescription(int indent) : String</text><text fill="#000000" font-family="sans-serif" font-size="14" lengthAdjust="spacing" textLength="218.2988" x="2580.5" y="1123.2988">+move(double dx, double dy) : void</text><text fill="#000000" font-family="sans-serif" font-size="14" lengthAdjust="spacing" textLength="205.8164" x="2580.5" y="1140.9082">+moveCenter(Point center) : void</text><text fill="#000000" font-family="sans-serif" font-size="14" lengthAdjust="spacing" textLength="275.8779" x="2580.5" y="1158.5176">+resize(double scaleX, double scaleY) : void</text><text fill="#000000" font-family="sans-serif" font-size="14" lengthAdjust="spacing" textLength="187.1748" x="2580.5" y="1176.127">+rotate(double degrees) : void</text><text fill="#000000" font-family="sans-serif" font-size="14" lengthAdjust="spacing" textLength="103.1133" x="2580.5" y="1193.7363">+copy() : IShape</text></g><!--class Point--><g class="entity" data-qualified-name="Point" data-source-line="176" id="ent0014"><rect fill="#F1F1F1" height="453.0156" rx="2.5" ry="2.5" style="stroke:#181818;stroke-width:0.5;" width="233.4092" x="1497" y="437.6094"/><ellipse cx="1593.4995" cy="453.6094" fill="#ADD1B2" rx="11" ry="11" style="stroke:#181818;stroke-width:1;"/><path d="M1596.2651,449.4844 Q1596.4214,449.2656 1596.6089,449.1563 Q1596.7964,449.0469 1597.0151,449.0469 Q1597.3901,449.0469 1597.6245,449.3125 Q1597.8589,449.5625 1597.8589,450.1719 L1597.8589,451.625 Q1597.8589,452.2344 1597.6245,452.5 Q1597.3901,452.7656 1597.0151,452.7656 Q1596.6714,452.7656 1596.4683,452.5625 Q1596.2651,452.375 1596.1558,451.8594 Q1596.1089,451.5 1595.9214,451.3125 Q1595.5933,450.9375 1594.9839,450.7188 Q1594.3745,450.5 1593.7495,450.5 Q1592.9839,450.5 1592.3433,450.8281 Q1591.7183,451.1563 1591.2183,451.9063 Q1590.7339,452.6563 1590.7339,453.6875 L1590.7339,454.7813 Q1590.7339,456.0156 1591.6245,456.8438 Q1592.5151,457.6563 1594.1089,457.6563 Q1595.0464,457.6563 1595.7026,457.4063 Q1596.0933,457.25 1596.5151,456.8125 Q1596.7808,456.5469 1596.9214,456.4688 Q1597.0776,456.3906 1597.2808,456.3906 Q1597.6089,456.3906 1597.8589,456.6563 Q1598.1245,456.9063 1598.1245,457.25 Q1598.1245,457.5938 1597.7808,458 Q1597.2808,458.5781 1596.4839,458.9063 Q1595.4058,459.3594 1594.1089,459.3594 Q1592.5933,459.3594 1591.3901,458.7344 Q1590.4058,458.2344 1589.7183,457.1719 Q1589.0308,456.0938 1589.0308,454.8125 L1589.0308,453.6563 Q1589.0308,452.3281 1589.6401,451.1875 Q1590.2651,450.0313 1591.3589,449.4219 Q1592.4526,448.7969 1593.687,448.7969 Q1594.4214,448.7969 1595.062,448.9688 Q1595.7183,449.125 1596.2651,449.4844 Z " fill="#000000"/><text fill="#000000" font-family="sans-serif" font-size="14" lengthAdjust="spacing" textLength="31.9102" x="1613.9995" y="459.3379">Point</text><line style="stroke:#181818;stroke-width:0.5;" x1="1498" x2="1729.4092" y1="469.6094" y2="469.6094"/><text fill="#000000" font-family="sans-serif" font-size="14" lengthAdjust="spacing" textLength="65.3721" x="1503" y="488.1426">-x : double</text><text fill="#000000" font-family="sans-serif" font-size="14" lengthAdjust="spacing" textLength="65.3721" x="1503" y="505.752">-y : double</text><line style="stroke:#181818;stroke-width:1;" x1="1498" x2="1729.4092" y1="512.8281" y2="512.8281"/><text fill="#000000" font-family="sans-serif" font-size="14" lengthAdjust="spacing" textLength="100.0098" x="1503" y="531.3613">+getX() : double</text><text fill="#000000" font-family="sans-serif" font-size="14" lengthAdjust="spacing" textLength="100.0098" x="1503" y="548.9707">+getY() : double</text><text fill="#000000" font-family="sans-serif" font-size="14" lengthAdjust="spacing" textLength="135.7959" x="1503" y="566.5801">+setX(double x) : void</text><text fill="#000000" font-family="sans-serif" font-size="14" lengthAdjust="spacing" textLength="135.7959" x="1503" y="584.1895">+setY(double y) : void</text><text fill="#000000" font-family="sans-serif" font-size="14" lengthAdjust="spacing" textLength="187.168" x="1503" y="601.7988">+set(double x, double y) : void</text><text fill="#000000" font-family="sans-serif" font-size="14" lengthAdjust="spacing" textLength="213.6504" x="1503" y="619.4082">+add(double dx, double dy) : Point</text><text fill="#000000" font-family="sans-serif" font-size="14" lengthAdjust="spacing" textLength="128.0234" x="1503" y="637.0176">+add(Point p) : Point</text><text fill="#000000" font-family="sans-serif" font-size="14" lengthAdjust="spacing" textLength="216.7402" x="1503" y="654.627">+mult(double dx, double dy) : Point</text><text fill="#000000" font-family="sans-serif" font-size="14" lengthAdjust="spacing" textLength="131.1133" x="1503" y="672.2363">+mult(Point p) : Point</text><text fill="#000000" font-family="sans-serif" font-size="14" lengthAdjust="spacing" textLength="126.458" x="1503" y="689.8457">+getWidth() : double</text><text fill="#000000" font-family="sans-serif" font-size="14" lengthAdjust="spacing" textLength="131.1406" x="1503" y="707.4551">+getHeight() : double</text><text fill="#000000" font-family="sans-serif" font-size="14" lengthAdjust="spacing" textLength="122.5615" x="1503" y="725.0645">+getCenter() : Point</text><text fill="#000000" font-family="sans-serif" font-size="14" lengthAdjust="spacing" textLength="140.4443" x="1503" y="742.6738">+getStyle() : SVGStyle</text><text fill="#000000" font-family="sans-serif" font-size="14" lengthAdjust="spacing" textLength="205.7686" x="1503" y="760.2832">+getTransform() : SVGTransform</text><text fill="#000000" font-family="sans-serif" font-size="14" lengthAdjust="spacing" textLength="212.0508" x="1503" y="777.8926">+getDescription(int indent) : String</text><text fill="#000000" font-family="sans-serif" font-size="14" lengthAdjust="spacing" textLength="218.2988" x="1503" y="795.502">+move(double dx, double dy) : void</text><text fill="#000000" font-family="sans-serif" font-size="14" lengthAdjust="spacing" textLength="221.4092" x="1503" y="813.1113">+resize(double px, double py) : void</text><text fill="#000000" font-family="sans-serif" font-size="14" lengthAdjust="spacing" textLength="159.9404" x="1503" y="830.7207">+rotate(double deg) : void</text><text fill="#000000" font-family="sans-serif" font-size="14" lengthAdjust="spacing" textLength="103.1133" x="1503" y="848.3301">+copy() : IShape</text><text fill="#000000" font-family="sans-serif" font-size="14" lengthAdjust="spacing" textLength="113.9893" x="1503" y="865.9395">+toString() : String</text><text fill="#000000" font-family="sans-serif" font-size="14" lengthAdjust="spacing" textLength="172.3887" x="1503" y="883.5488">+equals(Object e) : boolean</text></g><!--class ISVGShape--><g class="entity" data-qualified-name="ISVGShape" data-source-line="213" id="ent0025"><rect fill="#F1F1F1" height="48" rx="2.5" ry="2.5" style="stroke:#181818;stroke-width:0.5;" width="105.9375" x="1428.5" y="45.6094"/><ellipse cx="1443.5" cy="61.6094" fill="#ADD1B2" rx="11" ry="11" style="stroke:#181818;stroke-width:1;"/><path d="M1446.2656,57.4844 Q1446.4219,57.2656 1446.6094,57.1563 Q1446.7969,57.0469 1447.0156,57.0469 Q1447.3906,57.0469 1447.625,57.3125 Q1447.8594,57.5625 1447.8594,58.1719 L1447.8594,59.625 Q1447.8594,60.2344 1447.625,60.5 Q1447.3906,60.7656 1447.0156,60.7656 Q1446.6719,60.7656 1446.4688,60.5625 Q1446.2656,60.375 1446.1563,59.8594 Q1446.1094,59.5 1445.9219,59.3125 Q1445.5938,58.9375 1444.9844,58.7188 Q1444.375,58.5 1443.75,58.5 Q1442.9844,58.5 1442.3438,58.8281 Q1441.7188,59.1563 1441.2188,59.9063 Q1440.7344,60.6563 1440.7344,61.6875 L1440.7344,62.7813 Q1440.7344,64.0156 1441.625,64.8438 Q1442.5156,65.6563 1444.1094,65.6563 Q1445.0469,65.6563 1445.7031,65.4063 Q1446.0938,65.25 1446.5156,64.8125 Q1446.7813,64.5469 1446.9219,64.4688 Q1447.0781,64.3906 1447.2813,64.3906 Q1447.6094,64.3906 1447.8594,64.6563 Q1448.125,64.9063 1448.125,65.25 Q1448.125,65.5938 1447.7813,66 Q1447.2813,66.5781 1446.4844,66.9063 Q1445.4063,67.3594 1444.1094,67.3594 Q1442.5938,67.3594 1441.3906,66.7344 Q1440.4063,66.2344 1439.7188,65.1719 Q1439.0313,64.0938 1439.0313,62.8125 L1439.0313,61.6563 Q1439.0313,60.3281 1439.6406,59.1875 Q1440.2656,58.0313 1441.3594,57.4219 Q1442.4531,56.7969 1443.6875,56.7969 Q1444.4219,56.7969 1445.0625,56.9688 Q1445.7188,57.125 1446.2656,57.4844 Z " fill="#000000"/><text fill="#000000" font-family="sans-serif" font-size="14" lengthAdjust="spacing" textLength="73.9375" x="1457.5" y="67.3379">ISVGShape</text><line style="stroke:#181818;stroke-width:0.5;" x1="1429.5" x2="1533.4375" y1="77.6094" y2="77.6094"/><line style="stroke:#181818;stroke-width:0.5;" x1="1429.5" x2="1533.4375" y1="85.6094" y2="85.6094"/></g><!--reverse link IShape to AbstractShape--><g class="link" data-entity-1="ent0012" data-entity-2="ent0002" data-link-type="extension" data-source-line="203" id="lnk15"><path codeLine="203" d="M1438.7825,394.9272 C1416.5825,461.5872 1394.63,527.5394 1374.9,586.8094" fill="none" id="IShape-backto-AbstractShape" style="stroke:#181818;stroke-width:1;stroke-dasharray:7,7;"/><polygon fill="none" points="1444.47,377.8494,1433.0899,393.0314,1444.4751,396.823,1444.47,377.8494" style="stroke:#181818;stroke-width:1;"/></g><!--reverse link AbstractShape to Circle--><g class="link" data-entity-1="ent0002" data-entity-2="ent0003" data-link-type="extension" data-source-line="204" id="lnk16"><path codeLine="204" d="M1219.3336,677.6583 C1013.3536,700.9083 584.13,767.8694 257.5,950.6094 C248.36,955.7194 239.38,961.6094 230.67,967.9894" fill="none" id="AbstractShape-backto-Circle" style="stroke:#181818;stroke-width:1;"/><polygon fill="none" points="1237.22,675.6394,1218.6606,671.6962,1220.0066,683.6204,1237.22,675.6394" style="stroke:#181818;stroke-width:1;"/></g><!--reverse link AbstractShape to Ellipse--><g class="link" data-entity-1="ent0002" data-entity-2="ent0004" data-link-type="extension" data-source-line="205" id="lnk17"><path codeLine="205" d="M1219.6826,691.7518 C1054.6426,728.6018 758.46,808.1094 525.5,950.6094 C512.99,958.2594 500.69,967.2494 488.93,976.8694" fill="none" id="AbstractShape-backto-Ellipse" style="stroke:#181818;stroke-width:1;"/><polygon fill="none" points="1237.25,687.8294,1218.3751,685.896,1220.9901,697.6076,1237.25,687.8294" style="stroke:#181818;stroke-width:1;"/></g><!--reverse link AbstractShape to Line--><g class="link" data-entity-1="ent0002" data-entity-2="ent0005" data-link-type="extension" data-source-line="206" id="lnk18"><path codeLine="206" d="M1220.7595,718.3059 C1104.4595,768.6159 936.52,848.6294 793.5,950.6094 C787.73,954.7294 781.96,959.0794 776.23,963.6094" fill="none" id="AbstractShape-backto-Line" style="stroke:#181818;stroke-width:1;"/><polygon fill="none" points="1237.28,711.1594,1218.3773,712.7991,1223.1417,723.8128,1237.28,711.1594" style="stroke:#181818;stroke-width:1;"/></g><!--reverse link AbstractShape to Polygon--><g class="link" data-entity-1="ent0002" data-entity-2="ent0006" data-link-type="extension" data-source-line="207" id="lnk19"><path codeLine="207" d="M1259.9519,754.227 C1198.8019,815.087 1124.82,888.7094 1054.37,958.8194" fill="none" id="AbstractShape-backto-Polygon" style="stroke:#181818;stroke-width:1;"/><polygon fill="none" points="1272.71,741.5294,1255.7193,749.9743,1264.1844,758.4797,1272.71,741.5294" style="stroke:#181818;stroke-width:1;"/></g><!--reverse link AbstractShape to PolyLine--><g class="link" data-entity-1="ent0002" data-entity-2="ent0007" data-link-type="extension" data-source-line="208" id="lnk20"><path codeLine="208" d="M1318.5548,758.6179 C1299.2248,817.0279 1277.8,881.7894 1255.14,950.2694" fill="none" id="AbstractShape-backto-PolyLine" style="stroke:#181818;stroke-width:1;"/><polygon fill="none" points="1324.21,741.5294,1312.8586,756.7328,1324.251,760.503,1324.21,741.5294" style="stroke:#181818;stroke-width:1;"/></g><!--reverse link AbstractShape to Rectangle--><g class="link" data-entity-1="ent0002" data-entity-2="ent0008" data-link-type="extension" data-source-line="209" id="lnk21"><path codeLine="209" d="M1380.445,758.618 C1400.585,819.478 1423.49,888.7094 1446.7,958.8194" fill="none" id="AbstractShape-backto-Rectangle" style="stroke:#181818;stroke-width:1;"/><polygon fill="none" points="1374.79,741.5294,1374.7488,760.503,1386.1412,756.733,1374.79,741.5294" style="stroke:#181818;stroke-width:1;"/></g><!--reverse link AbstractShape to Text--><g class="link" data-entity-1="ent0002" data-entity-2="ent0009" data-link-type="extension" data-source-line="210" id="lnk22"><path codeLine="210" d="M1385.8152,757.6636 C1407.4252,805.8536 1433.76,850.0794 1479.5,890.6094 C1530.47,935.7794 1563.66,913.0894 1620.5,950.6094 C1632.47,958.5094 1644.33,967.5494 1655.75,977.0894" fill="none" id="AbstractShape-backto-Text" style="stroke:#181818;stroke-width:1;"/><polygon fill="none" points="1378.45,741.2394,1380.3404,760.1186,1391.2899,755.2085,1378.45,741.2394" style="stroke:#181818;stroke-width:1;"/></g><!--reverse link AbstractShape to Triangle--><g class="link" data-entity-1="ent0002" data-entity-2="ent0010" data-link-type="extension" data-source-line="211" id="lnk23"><path codeLine="211" d="M1380.2228,757.9688 C1400.3228,808.5888 1427.54,855.3094 1479.5,890.6094 C1631.47,993.8494 1716.45,886.1694 1888.5,950.6094 C1894.49,952.8494 1900.49,955.2994 1906.47,957.9094" fill="none" id="AbstractShape-backto-Triangle" style="stroke:#181818;stroke-width:1;"/><polygon fill="none" points="1373.58,741.2394,1374.6464,760.1831,1385.7993,755.7545,1373.58,741.2394" style="stroke:#181818;stroke-width:1;"/></g><!--reverse link AbstractShape to Group--><g class="link" data-entity-1="ent0002" data-entity-2="ent0011" data-link-type="extension" data-source-line="212" id="lnk24"><path codeLine="212" d="M1378.8317,758.1273 C1398.5117,809.4773 1425.93,856.9494 1479.5,890.6094 C1632.15,986.5094 2123.84,877.2294 2288.5,950.6094 C2294.39,953.2294 2300.17,956.2294 2305.84,959.5294" fill="none" id="AbstractShape-backto-Group" style="stroke:#181818;stroke-width:1;"/><polygon fill="none" points="1372.39,741.3194,1373.229,760.2745,1384.4343,755.98,1372.39,741.3194" style="stroke:#181818;stroke-width:1;"/></g><!--reverse link ISVGShape to IShape--><g class="link" data-entity-1="ent0025" data-entity-2="ent0012" data-link-type="extension" data-source-line="213" id="lnk26"><path codeLine="213" d="M1481.5,111.6294 C1481.5,127.0794 1481.5,130.7094 1481.5,153.3994" fill="none" id="ISVGShape-backto-IShape" style="stroke:#181818;stroke-width:1;"/><polygon fill="none" points="1481.5,93.6294,1475.5,111.6294,1487.5,111.6294,1481.5,93.6294" style="stroke:#181818;stroke-width:1;"/></g><!--reverse link AbstractShape to Path--><g class="link" data-entity-1="ent0002" data-entity-2="ent0013" data-link-type="extension" data-source-line="214" id="lnk27"><path codeLine="214" d="M1378.4824,758.176 C1398.0624,809.716 1425.53,857.3894 1479.5,890.6094 C1683.63,1016.2594 2332.43,865.4694 2556.5,950.6094 C2563.04,953.0994 2569.53,955.9494 2575.93,959.0994" fill="none" id="AbstractShape-backto-Path" style="stroke:#181818;stroke-width:1;"/><polygon fill="none" points="1372.09,741.3494,1372.8735,760.3069,1384.0913,756.0452,1372.09,741.3494" style="stroke:#181818;stroke-width:1;"/></g><!--reverse link IShape to Point--><g class="link" data-entity-1="ent0012" data-entity-2="ent0014" data-link-type="extension" data-source-line="215" id="lnk28"><path codeLine="215" d="M1524.214,394.9284 C1530.504,413.8284 1531.55,416.9594 1538.42,437.5794" fill="none" id="IShape-backto-Point" style="stroke:#181818;stroke-width:1;stroke-dasharray:7,7;"/><polygon fill="none" points="1518.53,377.8494,1518.521,396.823,1529.907,393.0337,1518.53,377.8494" style="stroke:#181818;stroke-width:1;"/></g><?plantuml-src tLXHJzim47xFhx2qbw2jQCyJceGOOaX8GojYyEWcH-ejZJFxofgDvRVFTkmuRfCs83HHNgBaxilv_Fdy-H9ac0F9W2y0HHL5yWShIYheWYGvbV8OKR3P4k4yuSMK_GRoFeheJAAW2JOGScmVftDQ0laJ4VA6IAnKs0zaUdqsrRV6g525lEDYqJYktADoJYRgybRbWPz09eALo7WHim89Ar8ey42_eb8fCeCJ72b2dFBbJ0sJGgRzzvobBeePD3u8Cp2UTbJdzMdyZQ9cHYTC97apbGaHD6LBgR3DQCQMg9H0ADibLpa6-Ny6bitH16zVC8vlBCLvZ_t4n38E5sqy4Gj-xsbOlIFkjWe84I3LqZbSwN7b6cuhhGalAvFckLbfJzTfdhDIEhuskV4KRj8rnCeWZI-8ha52BbZXs9181GPaG97sCZ7LoCrvdHRffl5LidR9yohZXINk7WIo17JLN329HoRjZvuncgRN2WAhs7X86GpYlJO9dqwrhXN_byoGfc4wHvB-j1shgUuKwQEvngUHBG4jqD6ZaBqXzwB6fSV9PrcMhv0WBRBsw2cvP3hjG3zq1cFLTQyF8pCjXnCU9qRgoHMiq1A9-hQJwzOJ_5MAwvLWtShQjUEpPgTgY0aNWbxr_bGxBA4vc1ITtZcLIdp0zTYT_MY21-_hQnl3qE2hcQOX8uDBU2RuihJzDUImK77QzMkmeMJ7ZP4aSvQdw-hg5RWpb6ivR72_yZxyrfLyjDpiGu_Bz5plQ0BMPbQW7fXLFKH3FS1RFVYrKk_uMh684HJMeoYiHr9ORwMmtj9qK9oxWqtVclbeew_QLD1VRgRMysArHgFiCDsDlKsFjAxSUDtGZxVRYrC0oB4jdSwXeNSLVgrMmMChy3SzlDskswJ6kRPklPcxZOVQl5sTe9Qd8ORzWcbKfxltZiKonn7l6rXlWEUigIVzQzWN0TGsv4qoyLfUy7D9Snb_cNrNVIi1xPrndWCjT5bQjJnwE3mCVn55uG-ZeuV9nFvnwVFOdmjzBlq5qsUt7v93hg7NskwxpwcRoLwxxQlwVER0LZoegl36yq4EZE1rMMkgx1y0?></g></svg>