<?plantuml 1.2026.1?><svg xmlns="http://www.w3.org/2000/svg" xmlns:xlink="http://www.w3.org/1999/xlink" contentStyleType="text/css" data-diagram-type="CLASS" height="1124px" preserveAspectRatio="none" style="width:1183px;height:1124px;background:#FFFFFF;" version="1.1" viewBox="0 0 1183 1124" width="1183px" zoomAndPan="magnify"><title>io</title><defs/><g><g class="title" data-source-line="1"><text fill="#000000" font-family="sans-serif" font-size="14" font-weight="bold" lengthAdjust="spacing" textLength="12.4414" x="578.6997" y="24.5332">io</text></g><!--class SVGImport--><g class="entity" data-qualified-name="SVGImport" data-source-line="5" id="ent0002"><rect fill="#F1F1F1" height="276.9219" rx="2.5" ry="2.5" style="stroke:#181818;stroke-width:0.5;" width="390.957" x="7" y="221.6094"/><ellipse cx="163.6079" cy="237.6094" fill="#ADD1B2" rx="11" ry="11" style="stroke:#181818;stroke-width:1;"/><path d="M166.3735,233.4844 Q166.5298,233.2656 166.7173,233.1563 Q166.9048,233.0469 167.1235,233.0469 Q167.4985,233.0469 167.7329,233.3125 Q167.9673,233.5625 167.9673,234.1719 L167.9673,235.625 Q167.9673,236.2344 167.7329,236.5 Q167.4985,236.7656 167.1235,236.7656 Q166.7798,236.7656 166.5767,236.5625 Q166.3735,236.375 166.2642,235.8594 Q166.2173,235.5 166.0298,235.3125 Q165.7017,234.9375 165.0923,234.7188 Q164.4829,234.5 163.8579,234.5 Q163.0923,234.5 162.4517,234.8281 Q161.8267,235.1563 161.3267,235.9063 Q160.8423,236.6563 160.8423,237.6875 L160.8423,238.7813 Q160.8423,240.0156 161.7329,240.8438 Q162.6235,241.6563 164.2173,241.6563 Q165.1548,241.6563 165.811,241.4063 Q166.2017,241.25 166.6235,240.8125 Q166.8892,240.5469 167.0298,240.4688 Q167.186,240.3906 167.3892,240.3906 Q167.7173,240.3906 167.9673,240.6563 Q168.2329,240.9063 168.2329,241.25 Q168.2329,241.5938 167.8892,242 Q167.3892,242.5781 166.5923,242.9063 Q165.5142,243.3594 164.2173,243.3594 Q162.7017,243.3594 161.4985,242.7344 Q160.5142,242.2344 159.8267,241.1719 Q159.1392,240.0938 159.1392,238.8125 L159.1392,237.6563 Q159.1392,236.3281 159.7485,235.1875 Q160.3735,234.0313 161.4673,233.4219 Q162.561,232.7969 163.7954,232.7969 Q164.5298,232.7969 165.1704,232.9688 Q165.8267,233.125 166.3735,233.4844 Z " fill="#000000"/><text fill="#000000" font-family="sans-serif" font-size="14" lengthAdjust="spacing" textLength="69.2412" x="184.1079" y="243.3379">SVGImport</text><line style="stroke:#181818;stroke-width:0.5;" x1="8" x2="396.957" y1="253.6094" y2="253.6094"/><text fill="#000000" font-family="sans-serif" font-size="14" lengthAdjust="spacing" text-decoration="underline" textLength="224.9092" x="13" y="272.1426">-shapes : List&lt;Class&lt;ISVGShape&gt;&gt;</text><text fill="#000000" font-family="sans-serif" font-size="14" lengthAdjust="spacing" text-decoration="underline" textLength="171.9854" x="13" y="289.752">-point : Class&lt;ISVGShape&gt;</text><text fill="#000000" font-family="sans-serif" font-size="14" lengthAdjust="spacing" text-decoration="underline" textLength="116.7168" x="13" y="307.3613">-pointFieldX : Field</text><text fill="#000000" font-family="sans-serif" font-size="14" lengthAdjust="spacing" text-decoration="underline" textLength="116.7168" x="13" y="324.9707">-pointFieldY : Field</text><text fill="#000000" font-family="sans-serif" font-size="14" lengthAdjust="spacing" text-decoration="underline" textLength="333.0537" x="13" y="342.5801">-constructorCache : Map&lt;Class&lt;?&gt;, Constructor&lt;?&gt;&gt;</text><text fill="#000000" font-family="sans-serif" font-size="14" lengthAdjust="spacing" text-decoration="underline" textLength="261.4746" x="13" y="360.1895">-fieldCache : Map&lt;Class&lt;?&gt;, List&lt;Field&gt;&gt;</text><line style="stroke:#181818;stroke-width:1;" x1="8" x2="396.957" y1="367.2656" y2="367.2656"/><text fill="#000000" font-family="sans-serif" font-size="14" lengthAdjust="spacing" text-decoration="underline" textLength="203.4785" x="13" y="385.7988">+register(Class&lt;T&gt; shape) : void</text><text fill="#000000" font-family="sans-serif" font-size="14" lengthAdjust="spacing" text-decoration="underline" textLength="352.502" x="13" y="403.4082">-cachePointFields(Class&lt;ISVGShape&gt; pointClass) : void</text><text fill="#000000" font-family="sans-serif" font-size="14" lengthAdjust="spacing" text-decoration="underline" textLength="378.957" x="13" y="421.0176">-createPoint(SVGField pointField, XMLTag tag) : ISVGShape</text><text fill="#000000" font-family="sans-serif" font-size="14" lengthAdjust="spacing" text-decoration="underline" textLength="265.3438" x="13" y="438.627">-createPoint(String rawPoint) : ISVGShape</text><text fill="#000000" font-family="sans-serif" font-size="14" lengthAdjust="spacing" text-decoration="underline" textLength="332.2676" x="13" y="456.2363">-createPointList(String rawPoints) : List&lt;ISVGShape&gt;</text><text fill="#000000" font-family="sans-serif" font-size="14" lengthAdjust="spacing" text-decoration="underline" textLength="261.0918" x="13" y="473.8457">+load(String filename) : List&lt;ISVGShape&gt;</text><text fill="#000000" font-family="sans-serif" font-size="14" lengthAdjust="spacing" text-decoration="underline" textLength="225.2783" x="13" y="491.4551">+convert(XMLTag tag) : ISVGShape</text></g><!--class XMLTag--><g class="entity" data-qualified-name="XMLTag" data-source-line="22" id="ent0003"><rect fill="#F1F1F1" height="629.1094" rx="2.5" ry="2.5" style="stroke:#181818;stroke-width:0.5;" width="582.0283" x="433.5" y="45.6094"/><ellipse cx="693.8091" cy="61.6094" fill="#ADD1B2" rx="11" ry="11" style="stroke:#181818;stroke-width:1;"/><path d="M696.5747,57.4844 Q696.731,57.2656 696.9185,57.1563 Q697.106,57.0469 697.3247,57.0469 Q697.6997,57.0469 697.9341,57.3125 Q698.1685,57.5625 698.1685,58.1719 L698.1685,59.625 Q698.1685,60.2344 697.9341,60.5 Q697.6997,60.7656 697.3247,60.7656 Q696.981,60.7656 696.7778,60.5625 Q696.5747,60.375 696.4653,59.8594 Q696.4185,59.5 696.231,59.3125 Q695.9028,58.9375 695.2935,58.7188 Q694.6841,58.5 694.0591,58.5 Q693.2935,58.5 692.6528,58.8281 Q692.0278,59.1563 691.5278,59.9063 Q691.0435,60.6563 691.0435,61.6875 L691.0435,62.7813 Q691.0435,64.0156 691.9341,64.8438 Q692.8247,65.6563 694.4185,65.6563 Q695.356,65.6563 696.0122,65.4063 Q696.4028,65.25 696.8247,64.8125 Q697.0903,64.5469 697.231,64.4688 Q697.3872,64.3906 697.5903,64.3906 Q697.9185,64.3906 698.1685,64.6563 Q698.4341,64.9063 698.4341,65.25 Q698.4341,65.5938 698.0903,66 Q697.5903,66.5781 696.7935,66.9063 Q695.7153,67.3594 694.4185,67.3594 Q692.9028,67.3594 691.6997,66.7344 Q690.7153,66.2344 690.0278,65.1719 Q689.3403,64.0938 689.3403,62.8125 L689.3403,61.6563 Q689.3403,60.3281 689.9497,59.1875 Q690.5747,58.0313 691.6685,57.4219 Q692.7622,56.7969 693.9966,56.7969 Q694.731,56.7969 695.3716,56.9688 Q696.0278,57.125 696.5747,57.4844 Z " fill="#000000"/><text fill="#000000" font-family="sans-serif" font-size="14" lengthAdjust="spacing" textLength="52.9102" x="714.3091" y="67.3379">XMLTag</text><line style="stroke:#181818;stroke-width:0.5;" x1="434.5" x2="1014.5283" y1="77.6094" y2="77.6094"/><text fill="#000000" font-family="sans-serif" font-size="14" lengthAdjust="spacing" textLength="91.0479" x="439.5" y="96.1426">#name : String</text><text fill="#000000" font-family="sans-serif" font-size="14" lengthAdjust="spacing" textLength="170.4473" x="439.5" y="113.752">#content : Optional&lt;String&gt;</text><text fill="#000000" font-family="sans-serif" font-size="14" lengthAdjust="spacing" textLength="242.7783" x="439.5" y="131.3613">-attributes : Map&lt;String, XMLAttribute&gt;</text><text fill="#000000" font-family="sans-serif" font-size="14" lengthAdjust="spacing" textLength="159.5303" x="439.5" y="148.9707">#children : List&lt;XMLTag&gt;</text><line style="stroke:#181818;stroke-width:1;" x1="434.5" x2="1014.5283" y1="156.0469" y2="156.0469"/><text fill="#000000" font-family="sans-serif" font-size="14" lengthAdjust="spacing" textLength="146.6719" x="439.5" y="174.5801">+getTagName() : String</text><text fill="#000000" font-family="sans-serif" font-size="14" lengthAdjust="spacing" textLength="229.9609" x="439.5" y="192.1895">+getTextContent() : Optional&lt;String&gt;</text><text fill="#000000" font-family="sans-serif" font-size="14" lengthAdjust="spacing" textLength="177.8301" x="439.5" y="209.7988">+hasTextContent() : boolean</text><text fill="#000000" font-family="sans-serif" font-size="14" lengthAdjust="spacing" textLength="236.1748" x="439.5" y="227.4082">+setTextContent(String content) : void</text><text fill="#000000" font-family="sans-serif" font-size="14" lengthAdjust="spacing" textLength="229.1885" x="439.5" y="245.0176">+hasAttribute(String name) : boolean</text><text fill="#000000" font-family="sans-serif" font-size="14" lengthAdjust="spacing" textLength="257.1748" x="439.5" y="262.627">+getAttribute(String name) : XMLAttribute</text><text fill="#000000" font-family="sans-serif" font-size="14" lengthAdjust="spacing" textLength="235.3887" x="439.5" y="280.2363">+addAttribute(XMLAttribute attr) : void</text><text fill="#000000" font-family="sans-serif" font-size="14" lengthAdjust="spacing" textLength="291.4297" x="439.5" y="297.8457">+addAttribute(String name, Object value) : void</text><text fill="#000000" font-family="sans-serif" font-size="14" lengthAdjust="spacing" textLength="229.1543" x="439.5" y="315.4551">+removeAttribute(String name) : void</text><text fill="#000000" font-family="sans-serif" font-size="14" lengthAdjust="spacing" textLength="152.9131" x="439.5" y="333.0645">+getAttributeCount() : int</text><text fill="#000000" font-family="sans-serif" font-size="14" lengthAdjust="spacing" textLength="267.2783" x="439.5" y="350.6738">+attributeStream() : Stream&lt;XMLAttribute&gt;</text><text fill="#000000" font-family="sans-serif" font-size="14" lengthAdjust="spacing" textLength="219.0645" x="439.5" y="368.2832">+appendChild(XMLTag child) : void</text><text fill="#000000" font-family="sans-serif" font-size="14" lengthAdjust="spacing" textLength="279.7334" x="439.5" y="385.8926">+insertChildAt(int index, XMLTag child) : void</text><text fill="#000000" font-family="sans-serif" font-size="14" lengthAdjust="spacing" textLength="243.1748" x="439.5" y="403.502">+removeChild(XMLTag child) : boolean</text><text fill="#000000" font-family="sans-serif" font-size="14" lengthAdjust="spacing" textLength="153.7061" x="439.5" y="421.1113">+hasChildren() : boolean</text><text fill="#000000" font-family="sans-serif" font-size="14" lengthAdjust="spacing" textLength="152.9131" x="439.5" y="438.7207">+getChildrenCount() : int</text><text fill="#000000" font-family="sans-serif" font-size="14" lengthAdjust="spacing" textLength="191.8164" x="439.5" y="456.3301">+getChildren() : List&lt;XMLTag&gt;</text><text fill="#000000" font-family="sans-serif" font-size="14" lengthAdjust="spacing" textLength="267.3125" x="439.5" y="473.9395">+getChildAt(int index) : Optional&lt;XMLTag&gt;</text><text fill="#000000" font-family="sans-serif" font-size="14" lengthAdjust="spacing" textLength="217.4717" x="439.5" y="491.5488">+childStream() : Stream&lt;XMLTag&gt;</text><text fill="#000000" font-family="sans-serif" font-size="14" lengthAdjust="spacing" textLength="380.1055" x="439.5" y="509.1582">+getFirstChildByName(String tagName) : Optional&lt;XMLTag&gt;</text><text fill="#000000" font-family="sans-serif" font-size="14" lengthAdjust="spacing" textLength="229.1543" x="439.5" y="526.7676">+getFirstChild() : Optional&lt;XMLTag&gt;</text><text fill="#000000" font-family="sans-serif" font-size="14" lengthAdjust="spacing" textLength="297.6299" x="439.5" y="544.377">+findFirst(String tagName) : Optional&lt;XMLTag&gt;</text><text fill="#000000" font-family="sans-serif" font-size="14" lengthAdjust="spacing" textLength="255.6162" x="439.5" y="561.9863">+findAll(String tagName) : List&lt;XMLTag&gt;</text><text fill="#000000" font-family="sans-serif" font-size="14" lengthAdjust="spacing" textLength="237.7061" x="439.5" y="579.5957">+childrenStream() : Stream&lt;XMLTag&gt;</text><text fill="#000000" font-family="sans-serif" font-size="14" lengthAdjust="spacing" textLength="113.9893" x="439.5" y="597.2051">+toString() : String</text><text fill="#000000" font-family="sans-serif" font-size="14" lengthAdjust="spacing" textLength="463.4219" x="439.5" y="614.8145">+toFormattedString(int depth, boolean pretty, int indentSize) : StringBuilder</text><text fill="#000000" font-family="sans-serif" font-size="14" lengthAdjust="spacing" textLength="570.0283" x="439.5" y="632.4238">+toFormattedString(StringBuilder sb, int depth, boolean pretty, int indentSize) : StringBuilder</text><text fill="#000000" font-family="sans-serif" font-size="14" lengthAdjust="spacing" text-decoration="underline" textLength="173.9131" x="439.5" y="650.0332">+escape(String text) : String</text><text fill="#000000" font-family="sans-serif" font-size="14" lengthAdjust="spacing" text-decoration="underline" textLength="189.4854" x="439.5" y="667.6426">+unescape(String text) : String</text></g><!--class XMLParseException--><g class="entity" data-qualified-name="XMLParseException" data-source-line="59" id="ent0004"><rect fill="#F1F1F1" height="48" rx="2.5" ry="2.5" style="stroke:#181818;stroke-width:0.5;" width="158.8408" x="1018" y="902.1094"/><ellipse cx="1033" cy="918.1094" fill="#ADD1B2" rx="11" ry="11" style="stroke:#181818;stroke-width:1;"/><path d="M1035.7656,913.9844 Q1035.9219,913.7656 1036.1094,913.6563 Q1036.2969,913.5469 1036.5156,913.5469 Q1036.8906,913.5469 1037.125,913.8125 Q1037.3594,914.0625 1037.3594,914.6719 L1037.3594,916.125 Q1037.3594,916.7344 1037.125,917 Q1036.8906,917.2656 1036.5156,917.2656 Q1036.1719,917.2656 1035.9688,917.0625 Q1035.7656,916.875 1035.6563,916.3594 Q1035.6094,916 1035.4219,915.8125 Q1035.0938,915.4375 1034.4844,915.2188 Q1033.875,915 1033.25,915 Q1032.4844,915 1031.8438,915.3281 Q1031.2188,915.6563 1030.7188,916.4063 Q1030.2344,917.1563 1030.2344,918.1875 L1030.2344,919.2813 Q1030.2344,920.5156 1031.125,921.3438 Q1032.0156,922.1563 1033.6094,922.1563 Q1034.5469,922.1563 1035.2031,921.9063 Q1035.5938,921.75 1036.0156,921.3125 Q1036.2813,921.0469 1036.4219,920.9688 Q1036.5781,920.8906 1036.7813,920.8906 Q1037.1094,920.8906 1037.3594,921.1563 Q1037.625,921.4063 1037.625,921.75 Q1037.625,922.0938 1037.2813,922.5 Q1036.7813,923.0781 1035.9844,923.4063 Q1034.9063,923.8594 1033.6094,923.8594 Q1032.0938,923.8594 1030.8906,923.2344 Q1029.9063,922.7344 1029.2188,921.6719 Q1028.5313,920.5938 1028.5313,919.3125 L1028.5313,918.1563 Q1028.5313,916.8281 1029.1406,915.6875 Q1029.7656,914.5313 1030.8594,913.9219 Q1031.9531,913.2969 1033.1875,913.2969 Q1033.9219,913.2969 1034.5625,913.4688 Q1035.2188,913.625 1035.7656,913.9844 Z " fill="#000000"/><text fill="#000000" font-family="sans-serif" font-size="14" lengthAdjust="spacing" textLength="126.8408" x="1047" y="923.8379">XMLParseException</text><line style="stroke:#181818;stroke-width:0.5;" x1="1019" x2="1175.8408" y1="934.1094" y2="934.1094"/><line style="stroke:#181818;stroke-width:0.5;" x1="1019" x2="1175.8408" y1="942.1094" y2="942.1094"/></g><!--class XMLParser--><g class="entity" data-qualified-name="XMLParser" data-source-line="62" id="ent0005"><rect fill="#F1F1F1" height="382.5781" rx="2.5" ry="2.5" style="stroke:#181818;stroke-width:0.5;" width="226.7578" x="89" y="734.6094"/><ellipse cx="163.1187" cy="750.6094" fill="#ADD1B2" rx="11" ry="11" style="stroke:#181818;stroke-width:1;"/><path d="M165.8843,746.4844 Q166.0405,746.2656 166.228,746.1563 Q166.4155,746.0469 166.6343,746.0469 Q167.0093,746.0469 167.2437,746.3125 Q167.478,746.5625 167.478,747.1719 L167.478,748.625 Q167.478,749.2344 167.2437,749.5 Q167.0093,749.7656 166.6343,749.7656 Q166.2905,749.7656 166.0874,749.5625 Q165.8843,749.375 165.7749,748.8594 Q165.728,748.5 165.5405,748.3125 Q165.2124,747.9375 164.603,747.7188 Q163.9937,747.5 163.3687,747.5 Q162.603,747.5 161.9624,747.8281 Q161.3374,748.1563 160.8374,748.9063 Q160.353,749.6563 160.353,750.6875 L160.353,751.7813 Q160.353,753.0156 161.2437,753.8438 Q162.1343,754.6563 163.728,754.6563 Q164.6655,754.6563 165.3218,754.4063 Q165.7124,754.25 166.1343,753.8125 Q166.3999,753.5469 166.5405,753.4688 Q166.6968,753.3906 166.8999,753.3906 Q167.228,753.3906 167.478,753.6563 Q167.7437,753.9063 167.7437,754.25 Q167.7437,754.5938 167.3999,755 Q166.8999,755.5781 166.103,755.9063 Q165.0249,756.3594 163.728,756.3594 Q162.2124,756.3594 161.0093,755.7344 Q160.0249,755.2344 159.3374,754.1719 Q158.6499,753.0938 158.6499,751.8125 L158.6499,750.6563 Q158.6499,749.3281 159.2593,748.1875 Q159.8843,747.0313 160.978,746.4219 Q162.0718,745.7969 163.3062,745.7969 Q164.0405,745.7969 164.6812,745.9688 Q165.3374,746.125 165.8843,746.4844 Z " fill="#000000"/><text fill="#000000" font-family="sans-serif" font-size="14" lengthAdjust="spacing" textLength="70.0205" x="183.6187" y="756.3379">XMLParser</text><line style="stroke:#181818;stroke-width:0.5;" x1="90" x2="314.7578" y1="766.6094" y2="766.6094"/><text fill="#000000" font-family="sans-serif" font-size="14" lengthAdjust="spacing" textLength="127.6201" x="95" y="785.1426">-br : BufferedReader</text><text fill="#000000" font-family="sans-serif" font-size="14" lengthAdjust="spacing" textLength="74.6895" x="95" y="802.752">-current : int</text><text fill="#000000" font-family="sans-serif" font-size="14" lengthAdjust="spacing" textLength="64.5859" x="95" y="820.3613">-index : int</text><line style="stroke:#181818;stroke-width:1;" x1="90" x2="314.7578" y1="827.4375" y2="827.4375"/><text fill="#000000" font-family="sans-serif" font-size="14" lengthAdjust="spacing" textLength="117.0996" x="95" y="845.9707">+parse() : XMLTag</text><text fill="#000000" font-family="sans-serif" font-size="14" lengthAdjust="spacing" textLength="137.71" x="95" y="863.5801">-parseTag() : XMLTag</text><text fill="#000000" font-family="sans-serif" font-size="14" lengthAdjust="spacing" textLength="158.7168" x="95" y="881.1895">-parseTagName() : String</text><text fill="#000000" font-family="sans-serif" font-size="14" lengthAdjust="spacing" textLength="193.7373" x="95" y="898.7988">-parseAttribute() : XMLAttribute</text><text fill="#000000" font-family="sans-serif" font-size="14" lengthAdjust="spacing" textLength="186.7305" x="95" y="916.4082">-parseAttributeName() : String</text><text fill="#000000" font-family="sans-serif" font-size="14" lengthAdjust="spacing" textLength="185.1924" x="95" y="934.0176">-parseAttributeValue() : String</text><text fill="#000000" font-family="sans-serif" font-size="14" lengthAdjust="spacing" textLength="173.5098" x="95" y="951.627">-parseTextContent() : String</text><text fill="#000000" font-family="sans-serif" font-size="14" lengthAdjust="spacing" textLength="214.7578" x="95" y="969.2363">-unescapeXML(String text) : String</text><text fill="#000000" font-family="sans-serif" font-size="14" lengthAdjust="spacing" textLength="149.3789" x="95" y="986.8457">-skipWhitespace() : void</text><text fill="#000000" font-family="sans-serif" font-size="14" lengthAdjust="spacing" textLength="136.917" x="95" y="1004.4551">-skipComment() : void</text><text fill="#000000" font-family="sans-serif" font-size="14" lengthAdjust="spacing" textLength="147.0479" x="95" y="1022.0645">-skipDeclaration() : void</text><text fill="#000000" font-family="sans-serif" font-size="14" lengthAdjust="spacing" textLength="193.7852" x="95" y="1039.6738">-peek(char expected) : boolean</text><text fill="#000000" font-family="sans-serif" font-size="14" lengthAdjust="spacing" textLength="203.123" x="95" y="1057.2832">-peek(String expected) : boolean</text><text fill="#000000" font-family="sans-serif" font-size="14" lengthAdjust="spacing" textLength="204.6748" x="95" y="1074.8926">-expect(char expected) : boolean</text><text fill="#000000" font-family="sans-serif" font-size="14" lengthAdjust="spacing" textLength="214.0127" x="95" y="1092.502">-expect(String expected) : boolean</text><text fill="#000000" font-family="sans-serif" font-size="14" lengthAdjust="spacing" textLength="104.2686" x="95" y="1110.1113">-advance() : void</text></g><!--class Exception--><g class="entity" data-qualified-name="Exception" data-source-line="85" id="ent0006"><rect fill="#F1F1F1" height="48" rx="2.5" ry="2.5" style="stroke:#181818;stroke-width:0.5;" width="93.4824" x="1051" y="336.1094"/><ellipse cx="1066" cy="352.1094" fill="#ADD1B2" rx="11" ry="11" style="stroke:#181818;stroke-width:1;"/><path d="M1068.7656,347.9844 Q1068.9219,347.7656 1069.1094,347.6563 Q1069.2969,347.5469 1069.5156,347.5469 Q1069.8906,347.5469 1070.125,347.8125 Q1070.3594,348.0625 1070.3594,348.6719 L1070.3594,350.125 Q1070.3594,350.7344 1070.125,351 Q1069.8906,351.2656 1069.5156,351.2656 Q1069.1719,351.2656 1068.9688,351.0625 Q1068.7656,350.875 1068.6563,350.3594 Q1068.6094,350 1068.4219,349.8125 Q1068.0938,349.4375 1067.4844,349.2188 Q1066.875,349 1066.25,349 Q1065.4844,349 1064.8438,349.3281 Q1064.2188,349.6563 1063.7188,350.4063 Q1063.2344,351.1563 1063.2344,352.1875 L1063.2344,353.2813 Q1063.2344,354.5156 1064.125,355.3438 Q1065.0156,356.1563 1066.6094,356.1563 Q1067.5469,356.1563 1068.2031,355.9063 Q1068.5938,355.75 1069.0156,355.3125 Q1069.2813,355.0469 1069.4219,354.9688 Q1069.5781,354.8906 1069.7813,354.8906 Q1070.1094,354.8906 1070.3594,355.1563 Q1070.625,355.4063 1070.625,355.75 Q1070.625,356.0938 1070.2813,356.5 Q1069.7813,357.0781 1068.9844,357.4063 Q1067.9063,357.8594 1066.6094,357.8594 Q1065.0938,357.8594 1063.8906,357.2344 Q1062.9063,356.7344 1062.2188,355.6719 Q1061.5313,354.5938 1061.5313,353.3125 L1061.5313,352.1563 Q1061.5313,350.8281 1062.1406,349.6875 Q1062.7656,348.5313 1063.8594,347.9219 Q1064.9531,347.2969 1066.1875,347.2969 Q1066.9219,347.2969 1067.5625,347.4688 Q1068.2188,347.625 1068.7656,347.9844 Z " fill="#000000"/><text fill="#000000" font-family="sans-serif" font-size="14" lengthAdjust="spacing" textLength="61.4824" x="1080" y="357.8379">Exception</text><line style="stroke:#181818;stroke-width:0.5;" x1="1052" x2="1143.4824" y1="368.1094" y2="368.1094"/><line style="stroke:#181818;stroke-width:0.5;" x1="1052" x2="1143.4824" y1="376.1094" y2="376.1094"/></g><!--reverse link Exception to XMLParseException--><g class="link" data-entity-1="ent0006" data-entity-2="ent0004" data-link-type="extension" data-source-line="85" id="lnk7"><path codeLine="85" d="M1097.5,402.2694 C1097.5,493.6794 1097.5,810.8594 1097.5,902.0694" fill="none" id="Exception-backto-XMLParseException" style="stroke:#181818;stroke-width:1;"/><polygon fill="none" points="1097.5,384.2694,1091.5,402.2694,1103.5,402.2694,1097.5,384.2694" style="stroke:#181818;stroke-width:1;"/></g><?plantuml-src fLPTJzim57tlhx2qbo0QQSzJrGcoCI71G0CnzkWcjwr74bksqvMn_VTTVoLEcXIalLIDxxddVXtVH3DT0c5yDbDFh1PKqeha9LNgJ6l9Les6ovpNT-mtaFUpcRMGkuSlbvNWKfEN6I4fUL6QQfR_9MfB1IZoWLmnfHUP0Iyk4NrdpfVBFbXmLcl43c4Zg0i6PV68MFjd2l1Z783fAosRN7EPqNmBYBgcmcVtSJadMGV0vq7yjI4SzxD5se3EASMVqyvJmWO181FdSRzqxJb1dXrdmoHDXDks59KCk-BgjASJ31AeTXG9UbcQg3bpydXzTKytHDED8MYPZx2W0EeDaVINVNwRbsdAqDDcRBlLctBKgvBJ8dYjMGarhU1L9npi3gHEfWhx6_Jg0KQixuYXHfWBPa-GHuELuetGZDUqN3Yham8D5q5v1JYZRMXxIPQEQSlAGa8TCdU18t5iGEF1LqmXEOcJS1ROwypbOgqZsPoIBLL3t8hp4cXjpQfFurlgAuo4OudQx0Ckj3rcnCGcSN47B9WMHGUEhRQBlVWzQCGx9pUhdv1higDb0pqN2HNVmMGsBIvEEUEDRnCAqGKE9dG7MeL1uD_5SA885WBg8ZDp3JgpG-x5OxL27LhGcKxCLcDr0VlsoXrwk4h6QUFcuv0ohwbaP331TbXaP4nE3kNO0UA4UwABmJQtqNR5V1TCAaTw_cmbxkUZdU8dsNkkoIHiZJbQt5jvZSDPMOx03xeHBkxn6ZLtLCExg_a5bnNg2WeFC2qjGEZjF8oC20bQFyz9w7QjpKkrOpflC0MG4uGz354hn_CV8Tej2Yh7PTas2PV7eBeMsTH7iV6wlQLImUTz3dOkk7aFZD9_EwmaCfmtwpL8ABu1TVcb96-aT4lPIJfr4ksUtK8LXYlnkmW7PP7s41-cpW_thxTrgsLakmqnhxCyc0qs2XckyCWUkepH9uUI4lnO4z-t35zAWkOkHlj9O6mPhwf0tZDy0fo3f6OiVQC0U4hoBPK4zWBtBmoMaKVubAOmxlmuZyUymaIB7QtZqb12dQ8MVzBqK6YpVm00?></g></svg>