<?plantuml 1.2026.1?><svg xmlns="http://www.w3.org/2000/svg" xmlns:xlink="http://www.w3.org/1999/xlink" contentStyleType="text/css" data-diagram-type="CLASS" height="1338px" preserveAspectRatio="none" style="width:4475px;height:1338px;background:#FFFFFF;" version="1.1" viewBox="0 0 4475 1338" width="4475px" zoomAndPan="magnify"><title>svg</title><defs/><g><g class="title" data-source-line="1"><text fill="#000000" font-family="sans-serif" font-size="14" font-weight="bold" lengthAdjust="spacing" textLength="24.124" x="2218.4849" y="24.5332">svg</text></g><!--class AbstractAnimate--><g class="entity" data-qualified-name="AbstractAnimate" data-source-line="5" id="ent0002"><rect fill="#F1F1F1" height="576.2813" rx="2.5" ry="2.5" style="stroke:#181818;stroke-width:0.5;" width="401.4912" x="1120" y="259.6094"/><ellipse cx="1265.1406" cy="275.6094" fill="#A9DCDF" rx="11" ry="11" style="stroke:#181818;stroke-width:1;"/><path d="M1267.3281,277.375 L1263.1875,277.375 L1262.7656,278.4063 L1263.1875,278.4063 Q1263.7969,278.4063 1264.0625,278.6406 Q1264.3281,278.875 1264.3281,279.2656 Q1264.3281,279.6406 1264.0625,279.875 Q1263.7969,280.1094 1263.1875,280.1094 L1260.8906,280.1094 Q1260.2813,280.1094 1260.0313,279.875 Q1259.7656,279.6406 1259.7656,279.25 Q1259.7656,278.875 1260.0469,278.6406 Q1260.3125,278.3906 1260.9375,278.4063 L1263.6094,271.75 L1262.5,271.75 Q1261.8906,271.75 1261.625,271.5156 Q1261.3594,271.2813 1261.3594,270.8906 Q1261.3594,270.5156 1261.625,270.2813 Q1261.8906,270.0469 1262.5,270.0469 L1266.1719,270.0469 L1269.5625,278.4063 Q1270.1563,278.4063 1270.3438,278.5469 Q1270.7344,278.8125 1270.7344,279.2656 Q1270.7344,279.6406 1270.4688,279.875 Q1270.2188,280.1094 1269.6094,280.1094 L1267.3125,280.1094 Q1266.7031,280.1094 1266.4375,279.875 Q1266.1719,279.6406 1266.1719,279.25 Q1266.1719,278.875 1266.4375,278.6406 Q1266.7031,278.4063 1267.3125,278.4063 L1267.7344,278.4063 L1267.3281,277.375 Z M1266.6094,275.6719 L1265.25,272.2969 L1263.875,275.6719 L1266.6094,275.6719 Z " fill="#000000"/><text fill="#000000" font-family="sans-serif" font-size="14" font-style="italic" lengthAdjust="spacing" textLength="102.71" x="1285.6406" y="281.3379">AbstractAnimate</text><line style="stroke:#181818;stroke-width:0.5;" x1="1121" x2="1520.4912" y1="291.6094" y2="291.6094"/><text fill="#000000" font-family="sans-serif" font-size="14" lengthAdjust="spacing" textLength="155.6543" x="1126" y="310.1426">-begin : Optional&lt;String&gt;</text><text fill="#000000" font-family="sans-serif" font-size="14" lengthAdjust="spacing" textLength="144.7578" x="1126" y="327.752">-end : Optional&lt;String&gt;</text><text fill="#000000" font-family="sans-serif" font-size="14" lengthAdjust="spacing" textLength="220.2334" x="1126" y="345.3613">-dur : Optional&lt;AnimationDuration&gt;</text><text fill="#000000" font-family="sans-serif" font-size="14" lengthAdjust="spacing" textLength="222.5576" x="1126" y="362.9707">-min : Optional&lt;AnimationDuration&gt;</text><text fill="#000000" font-family="sans-serif" font-size="14" lengthAdjust="spacing" textLength="226.4473" x="1126" y="380.5801">-max : Optional&lt;AnimationDuration&gt;</text><text fill="#000000" font-family="sans-serif" font-size="14" lengthAdjust="spacing" textLength="231.8818" x="1126" y="398.1895">-restart : Optional&lt;AnimationRestart&gt;</text><text fill="#000000" font-family="sans-serif" font-size="14" lengthAdjust="spacing" textLength="261.4951" x="1126" y="415.7988">-repeatCount : Optional&lt;AnimationCount&gt;</text><text fill="#000000" font-family="sans-serif" font-size="14" lengthAdjust="spacing" textLength="262.2539" x="1126" y="433.4082">-repeatDur : Optional&lt;AnimationDuration&gt;</text><text fill="#000000" font-family="sans-serif" font-size="14" lengthAdjust="spacing" textLength="178.1855" x="1126" y="451.0176">-fill : Optional&lt;AnimationFill&gt;</text><line style="stroke:#181818;stroke-width:1;" x1="1121" x2="1520.4912" y1="458.0938" y2="458.0938"/><text fill="#000000" font-family="sans-serif" font-size="14" lengthAdjust="spacing" textLength="240.8506" x="1126" y="476.627">+begin(String begin) : AbstractAnimate</text><text fill="#000000" font-family="sans-serif" font-size="14" lengthAdjust="spacing" textLength="99.9961" x="1126" y="494.2363">+begin() : String</text><text fill="#000000" font-family="sans-serif" font-size="14" lengthAdjust="spacing" textLength="219.0576" x="1126" y="511.8457">+end(String end) : AbstractAnimate</text><text fill="#000000" font-family="sans-serif" font-size="14" lengthAdjust="spacing" textLength="89.0996" x="1126" y="529.4551">+end() : String</text><text fill="#000000" font-family="sans-serif" font-size="14" lengthAdjust="spacing" textLength="291.4092" x="1126" y="547.0645">+dur(AnimationDuration dur) : AbstractAnimate</text><text fill="#000000" font-family="sans-serif" font-size="14" lengthAdjust="spacing" textLength="164.5752" x="1126" y="564.6738">+dur() : AnimationDuration</text><text fill="#000000" font-family="sans-serif" font-size="14" lengthAdjust="spacing" textLength="296.0576" x="1126" y="582.2832">+min(AnimationDuration min) : AbstractAnimate</text><text fill="#000000" font-family="sans-serif" font-size="14" lengthAdjust="spacing" textLength="166.8994" x="1126" y="599.8926">+min() : AnimationDuration</text><text fill="#000000" font-family="sans-serif" font-size="14" lengthAdjust="spacing" textLength="303.8369" x="1126" y="617.502">+max(AnimationDuration max) : AbstractAnimate</text><text fill="#000000" font-family="sans-serif" font-size="14" lengthAdjust="spacing" textLength="170.7891" x="1126" y="635.1113">+max() : AnimationDuration</text><text fill="#000000" font-family="sans-serif" font-size="14" lengthAdjust="spacing" textLength="322.499" x="1126" y="652.7207">+restart(AnimationRestart restart) : AbstractAnimate</text><text fill="#000000" font-family="sans-serif" font-size="14" lengthAdjust="spacing" textLength="176.2236" x="1126" y="670.3301">+restart() : AnimationRestart</text><text fill="#000000" font-family="sans-serif" font-size="14" lengthAdjust="spacing" textLength="389.4912" x="1126" y="687.9395">+repeatCount(AnimationCount repeatCount) : AbstractAnimate</text><text fill="#000000" font-family="sans-serif" font-size="14" lengthAdjust="spacing" textLength="205.8369" x="1126" y="705.5488">+repeatCount() : AnimationCount</text><text fill="#000000" font-family="sans-serif" font-size="14" lengthAdjust="spacing" textLength="375.4502" x="1126" y="723.1582">+repeatDur(AnimationDuration repeatDur) : AbstractAnimate</text><text fill="#000000" font-family="sans-serif" font-size="14" lengthAdjust="spacing" textLength="206.5957" x="1126" y="740.7676">+repeatDur() : AnimationDuration</text><text fill="#000000" font-family="sans-serif" font-size="14" lengthAdjust="spacing" textLength="242.3477" x="1126" y="758.377">+fill(AnimationFill fill) : AbstractAnimate</text><text fill="#000000" font-family="sans-serif" font-size="14" lengthAdjust="spacing" textLength="122.5273" x="1126" y="775.9863">+fill() : AnimationFill</text><text fill="#000000" font-family="sans-serif" font-size="14" lengthAdjust="spacing" textLength="85.9756" x="1126" y="793.5957">+reset() : void</text><text fill="#000000" font-family="sans-serif" font-size="14" lengthAdjust="spacing" textLength="140.4443" x="1126" y="811.2051">+getStyle() : SVGStyle</text><text fill="#000000" font-family="sans-serif" font-size="14" lengthAdjust="spacing" textLength="205.7686" x="1126" y="828.8145">+getTransform() : SVGTransform</text></g><!--class AnimationFill--><g class="entity" data-qualified-name="AnimationFill" data-source-line="39" id="ent0003"><rect fill="#F1F1F1" height="118.4375" rx="2.5" ry="2.5" style="stroke:#181818;stroke-width:0.5;" width="125.9893" x="113.5" y="63.6094"/><ellipse cx="134.7332" cy="79.6094" fill="#EB937F" rx="11" ry="11" style="stroke:#181818;stroke-width:1;"/><path d="M133.5926,80.4063 L133.5926,82.9063 L137.9207,82.9063 L137.9207,81.9844 Q137.9207,81.375 138.1551,81.1094 Q138.4051,80.8438 138.7801,80.8438 Q139.1551,80.8438 139.3895,81.1094 Q139.6238,81.375 139.6238,81.9844 L139.6238,84.6094 L131.6238,84.6094 Q130.9988,84.6094 130.7332,84.375 Q130.4832,84.1406 130.4832,83.75 Q130.4832,83.375 130.7488,83.1406 Q131.0145,82.9063 131.6238,82.9063 L131.8895,82.9063 L131.8895,76.25 L131.6238,76.25 Q130.9988,76.25 130.7332,76.0156 Q130.4832,75.7813 130.4832,75.3906 Q130.4832,75.0156 130.7332,74.7813 Q130.9988,74.5469 131.6238,74.5469 L139.2488,74.5469 L139.2488,77.1406 Q139.2488,77.75 139.0145,78.0156 Q138.7957,78.2656 138.4051,78.2656 Q138.0301,78.2656 137.7957,78.0156 Q137.5613,77.75 137.5613,77.1406 L137.5613,76.25 L133.5926,76.25 L133.5926,78.7031 L135.077,78.7031 Q135.077,78.0469 135.202,77.8594 Q135.4676,77.4531 135.9363,77.4531 Q136.3113,77.4531 136.5457,77.7188 Q136.7801,77.9688 136.7801,78.5781 L136.7801,80.5469 Q136.7801,81.0938 136.6551,81.2813 Q136.3895,81.6719 135.9363,81.6719 Q135.4676,81.6719 135.202,81.2656 Q135.077,81.0781 135.077,80.4063 L133.5926,80.4063 Z " fill="#000000"/><text fill="#000000" font-family="sans-serif" font-size="14" lengthAdjust="spacing" textLength="80.1377" x="150.1184" y="85.3379">AnimationFill</text><line style="stroke:#181818;stroke-width:0.5;" x1="114.5" x2="238.4893" y1="95.6094" y2="95.6094"/><text fill="#000000" font-family="sans-serif" font-size="14" lengthAdjust="spacing" textLength="46.6826" x="119.5" y="114.1426">remove</text><text fill="#000000" font-family="sans-serif" font-size="14" lengthAdjust="spacing" textLength="38.9102" x="119.5" y="131.752">freeze</text><text fill="#000000" font-family="sans-serif" font-size="14" lengthAdjust="spacing" textLength="27.248" x="119.5" y="149.3613">auto</text><line style="stroke:#181818;stroke-width:1;" x1="114.5" x2="238.4893" y1="156.4375" y2="156.4375"/><text fill="#000000" font-family="sans-serif" font-size="14" lengthAdjust="spacing" textLength="113.9893" x="119.5" y="174.9707">+toString() : String</text></g><!--class AnimationRestart--><g class="entity" data-qualified-name="AnimationRestart" data-source-line="47" id="ent0004"><rect fill="#F1F1F1" height="118.4375" rx="2.5" ry="2.5" style="stroke:#181818;stroke-width:0.5;" width="139.3789" x="275" y="63.6094"/><ellipse cx="290" cy="79.6094" fill="#EB937F" rx="11" ry="11" style="stroke:#181818;stroke-width:1;"/><path d="M288.8594,80.4063 L288.8594,82.9063 L293.1875,82.9063 L293.1875,81.9844 Q293.1875,81.375 293.4219,81.1094 Q293.6719,80.8438 294.0469,80.8438 Q294.4219,80.8438 294.6563,81.1094 Q294.8906,81.375 294.8906,81.9844 L294.8906,84.6094 L286.8906,84.6094 Q286.2656,84.6094 286,84.375 Q285.75,84.1406 285.75,83.75 Q285.75,83.375 286.0156,83.1406 Q286.2813,82.9063 286.8906,82.9063 L287.1563,82.9063 L287.1563,76.25 L286.8906,76.25 Q286.2656,76.25 286,76.0156 Q285.75,75.7813 285.75,75.3906 Q285.75,75.0156 286,74.7813 Q286.2656,74.5469 286.8906,74.5469 L294.5156,74.5469 L294.5156,77.1406 Q294.5156,77.75 294.2813,78.0156 Q294.0625,78.2656 293.6719,78.2656 Q293.2969,78.2656 293.0625,78.0156 Q292.8281,77.75 292.8281,77.1406 L292.8281,76.25 L288.8594,76.25 L288.8594,78.7031 L290.3438,78.7031 Q290.3438,78.0469 290.4688,77.8594 Q290.7344,77.4531 291.2031,77.4531 Q291.5781,77.4531 291.8125,77.7188 Q292.0469,77.9688 292.0469,78.5781 L292.0469,80.5469 Q292.0469,81.0938 291.9219,81.2813 Q291.6563,81.6719 291.2031,81.6719 Q290.7344,81.6719 290.4688,81.2656 Q290.3438,81.0781 290.3438,80.4063 L288.8594,80.4063 Z " fill="#000000"/><text fill="#000000" font-family="sans-serif" font-size="14" lengthAdjust="spacing" textLength="107.3789" x="304" y="85.3379">AnimationRestart</text><line style="stroke:#181818;stroke-width:0.5;" x1="276" x2="413.3789" y1="95.6094" y2="95.6094"/><text fill="#000000" font-family="sans-serif" font-size="14" lengthAdjust="spacing" textLength="42.793" x="281" y="114.1426">always</text><text fill="#000000" font-family="sans-serif" font-size="14" lengthAdjust="spacing" textLength="105.0752" x="281" y="131.752">when_not_active</text><text fill="#000000" font-family="sans-serif" font-size="14" lengthAdjust="spacing" textLength="35.0205" x="281" y="149.3613">never</text><line style="stroke:#181818;stroke-width:1;" x1="276" x2="413.3789" y1="156.4375" y2="156.4375"/><text fill="#000000" font-family="sans-serif" font-size="14" lengthAdjust="spacing" textLength="113.9893" x="281" y="174.9707">+toString() : String</text></g><!--class AnimationTransformType--><g class="entity" data-qualified-name="AnimationTransformType" data-source-line="55" id="ent0005"><rect fill="#F1F1F1" height="153.6563" rx="2.5" ry="2.5" style="stroke:#181818;stroke-width:0.5;" width="189.165" x="449" y="45.6094"/><ellipse cx="464" cy="61.6094" fill="#EB937F" rx="11" ry="11" style="stroke:#181818;stroke-width:1;"/><path d="M462.8594,62.4063 L462.8594,64.9063 L467.1875,64.9063 L467.1875,63.9844 Q467.1875,63.375 467.4219,63.1094 Q467.6719,62.8438 468.0469,62.8438 Q468.4219,62.8438 468.6563,63.1094 Q468.8906,63.375 468.8906,63.9844 L468.8906,66.6094 L460.8906,66.6094 Q460.2656,66.6094 460,66.375 Q459.75,66.1406 459.75,65.75 Q459.75,65.375 460.0156,65.1406 Q460.2813,64.9063 460.8906,64.9063 L461.1563,64.9063 L461.1563,58.25 L460.8906,58.25 Q460.2656,58.25 460,58.0156 Q459.75,57.7813 459.75,57.3906 Q459.75,57.0156 460,56.7813 Q460.2656,56.5469 460.8906,56.5469 L468.5156,56.5469 L468.5156,59.1406 Q468.5156,59.75 468.2813,60.0156 Q468.0625,60.2656 467.6719,60.2656 Q467.2969,60.2656 467.0625,60.0156 Q466.8281,59.75 466.8281,59.1406 L466.8281,58.25 L462.8594,58.25 L462.8594,60.7031 L464.3438,60.7031 Q464.3438,60.0469 464.4688,59.8594 Q464.7344,59.4531 465.2031,59.4531 Q465.5781,59.4531 465.8125,59.7188 Q466.0469,59.9688 466.0469,60.5781 L466.0469,62.5469 Q466.0469,63.0938 465.9219,63.2813 Q465.6563,63.6719 465.2031,63.6719 Q464.7344,63.6719 464.4688,63.2656 Q464.3438,63.0781 464.3438,62.4063 L462.8594,62.4063 Z " fill="#000000"/><text fill="#000000" font-family="sans-serif" font-size="14" lengthAdjust="spacing" textLength="157.165" x="478" y="67.3379">AnimationTransformType</text><line style="stroke:#181818;stroke-width:0.5;" x1="450" x2="637.165" y1="77.6094" y2="77.6094"/><text fill="#000000" font-family="sans-serif" font-size="14" lengthAdjust="spacing" textLength="53.6963" x="455" y="96.1426">translate</text><text fill="#000000" font-family="sans-serif" font-size="14" lengthAdjust="spacing" textLength="32.6826" x="455" y="113.752">scale</text><text fill="#000000" font-family="sans-serif" font-size="14" lengthAdjust="spacing" textLength="35.7998" x="455" y="131.3613">rotate</text><text fill="#000000" font-family="sans-serif" font-size="14" lengthAdjust="spacing" textLength="38.8965" x="455" y="148.9707">skewx</text><text fill="#000000" font-family="sans-serif" font-size="14" lengthAdjust="spacing" textLength="38.8965" x="455" y="166.5801">skewy</text><line style="stroke:#181818;stroke-width:1;" x1="450" x2="637.165" y1="173.6563" y2="173.6563"/><text fill="#000000" font-family="sans-serif" font-size="14" lengthAdjust="spacing" textLength="113.9893" x="455" y="192.1895">+toString() : String</text></g><!--class SVGAnimate--><g class="entity" data-qualified-name="SVGAnimate" data-source-line="65" id="ent0006"><rect fill="#F1F1F1" height="276.9219" rx="2.5" ry="2.5" style="stroke:#181818;stroke-width:0.5;" width="338.416" x="784.5" y="974.6094"/><ellipse cx="908.9961" cy="990.6094" fill="#ADD1B2" rx="11" ry="11" style="stroke:#181818;stroke-width:1;"/><path d="M911.7617,986.4844 Q911.918,986.2656 912.1055,986.1563 Q912.293,986.0469 912.5117,986.0469 Q912.8867,986.0469 913.1211,986.3125 Q913.3555,986.5625 913.3555,987.1719 L913.3555,988.625 Q913.3555,989.2344 913.1211,989.5 Q912.8867,989.7656 912.5117,989.7656 Q912.168,989.7656 911.9648,989.5625 Q911.7617,989.375 911.6523,988.8594 Q911.6055,988.5 911.418,988.3125 Q911.0898,987.9375 910.4805,987.7188 Q909.8711,987.5 909.2461,987.5 Q908.4805,987.5 907.8398,987.8281 Q907.2148,988.1563 906.7148,988.9063 Q906.2305,989.6563 906.2305,990.6875 L906.2305,991.7813 Q906.2305,993.0156 907.1211,993.8438 Q908.0117,994.6563 909.6055,994.6563 Q910.543,994.6563 911.1992,994.4063 Q911.5898,994.25 912.0117,993.8125 Q912.2773,993.5469 912.418,993.4688 Q912.5742,993.3906 912.7773,993.3906 Q913.1055,993.3906 913.3555,993.6563 Q913.6211,993.9063 913.6211,994.25 Q913.6211,994.5938 913.2773,995 Q912.7773,995.5781 911.9805,995.9063 Q910.9023,996.3594 909.6055,996.3594 Q908.0898,996.3594 906.8867,995.7344 Q905.9023,995.2344 905.2148,994.1719 Q904.5273,993.0938 904.5273,991.8125 L904.5273,990.6563 Q904.5273,989.3281 905.1367,988.1875 Q905.7617,987.0313 906.8555,986.4219 Q907.9492,985.7969 909.1836,985.7969 Q909.918,985.7969 910.5586,985.9688 Q911.2148,986.125 911.7617,986.4844 Z " fill="#000000"/><text fill="#000000" font-family="sans-serif" font-size="14" lengthAdjust="spacing" textLength="80.9238" x="929.4961" y="996.3379">SVGAnimate</text><line style="stroke:#181818;stroke-width:0.5;" x1="785.5" x2="1121.916" y1="1006.6094" y2="1006.6094"/><text fill="#000000" font-family="sans-serif" font-size="14" lengthAdjust="spacing" textLength="212.4541" x="790.5" y="1025.1426">#attributeName : Optional&lt;String&gt;</text><text fill="#000000" font-family="sans-serif" font-size="14" lengthAdjust="spacing" textLength="149.3994" x="790.5" y="1042.752">-from : Optional&lt;String&gt;</text><text fill="#000000" font-family="sans-serif" font-size="14" lengthAdjust="spacing" textLength="133.0752" x="790.5" y="1060.3613">-to : Optional&lt;String&gt;</text><text fill="#000000" font-family="sans-serif" font-size="14" lengthAdjust="spacing" textLength="136.1855" x="790.5" y="1077.9707">-by : Optional&lt;String&gt;</text><line style="stroke:#181818;stroke-width:1;" x1="785.5" x2="1121.916" y1="1085.0469" y2="1085.0469"/><text fill="#000000" font-family="sans-serif" font-size="14" lengthAdjust="spacing" textLength="326.416" x="790.5" y="1103.5801">+attributeName(String attributeName) : SVGAnimate</text><text fill="#000000" font-family="sans-serif" font-size="14" lengthAdjust="spacing" textLength="153.6719" x="790.5" y="1121.1895">+attributeName() : String</text><text fill="#000000" font-family="sans-serif" font-size="14" lengthAdjust="spacing" textLength="206.5547" x="790.5" y="1138.7988">+from(String from) : SVGAnimate</text><text fill="#000000" font-family="sans-serif" font-size="14" lengthAdjust="spacing" textLength="93.7412" x="790.5" y="1156.4082">+from() : String</text><text fill="#000000" font-family="sans-serif" font-size="14" lengthAdjust="spacing" textLength="173.9063" x="790.5" y="1174.0176">+to(String to) : SVGAnimate</text><text fill="#000000" font-family="sans-serif" font-size="14" lengthAdjust="spacing" textLength="77.417" x="790.5" y="1191.627">+to() : String</text><text fill="#000000" font-family="sans-serif" font-size="14" lengthAdjust="spacing" textLength="180.127" x="790.5" y="1209.2363">+by(String by) : SVGAnimate</text><text fill="#000000" font-family="sans-serif" font-size="14" lengthAdjust="spacing" textLength="80.5273" x="790.5" y="1226.8457">+by() : String</text><text fill="#000000" font-family="sans-serif" font-size="14" lengthAdjust="spacing" textLength="85.9756" x="790.5" y="1244.4551">+reset() : void</text></g><!--class SVGAnimateMotion--><g class="entity" data-qualified-name="SVGAnimateMotion" data-source-line="82" id="ent0007"><rect fill="#F1F1F1" height="276.9219" rx="2.5" ry="2.5" style="stroke:#181818;stroke-width:0.5;" width="325.9678" x="1157.5" y="974.6094"/><ellipse cx="1254.7617" cy="990.6094" fill="#ADD1B2" rx="11" ry="11" style="stroke:#181818;stroke-width:1;"/><path d="M1257.5273,986.4844 Q1257.6836,986.2656 1257.8711,986.1563 Q1258.0586,986.0469 1258.2773,986.0469 Q1258.6523,986.0469 1258.8867,986.3125 Q1259.1211,986.5625 1259.1211,987.1719 L1259.1211,988.625 Q1259.1211,989.2344 1258.8867,989.5 Q1258.6523,989.7656 1258.2773,989.7656 Q1257.9336,989.7656 1257.7305,989.5625 Q1257.5273,989.375 1257.418,988.8594 Q1257.3711,988.5 1257.1836,988.3125 Q1256.8555,987.9375 1256.2461,987.7188 Q1255.6367,987.5 1255.0117,987.5 Q1254.2461,987.5 1253.6055,987.8281 Q1252.9805,988.1563 1252.4805,988.9063 Q1251.9961,989.6563 1251.9961,990.6875 L1251.9961,991.7813 Q1251.9961,993.0156 1252.8867,993.8438 Q1253.7773,994.6563 1255.3711,994.6563 Q1256.3086,994.6563 1256.9648,994.4063 Q1257.3555,994.25 1257.7773,993.8125 Q1258.043,993.5469 1258.1836,993.4688 Q1258.3398,993.3906 1258.543,993.3906 Q1258.8711,993.3906 1259.1211,993.6563 Q1259.3867,993.9063 1259.3867,994.25 Q1259.3867,994.5938 1259.043,995 Q1258.543,995.5781 1257.7461,995.9063 Q1256.668,996.3594 1255.3711,996.3594 Q1253.8555,996.3594 1252.6523,995.7344 Q1251.668,995.2344 1250.9805,994.1719 Q1250.293,993.0938 1250.293,991.8125 L1250.293,990.6563 Q1250.293,989.3281 1250.9023,988.1875 Q1251.5273,987.0313 1252.6211,986.4219 Q1253.7148,985.7969 1254.9492,985.7969 Q1255.6836,985.7969 1256.3242,985.9688 Q1256.9805,986.125 1257.5273,986.4844 Z " fill="#000000"/><text fill="#000000" font-family="sans-serif" font-size="14" lengthAdjust="spacing" textLength="122.9443" x="1275.2617" y="996.3379">SVGAnimateMotion</text><line style="stroke:#181818;stroke-width:0.5;" x1="1158.5" x2="1482.4678" y1="1006.6094" y2="1006.6094"/><text fill="#000000" font-family="sans-serif" font-size="14" lengthAdjust="spacing" textLength="170.4404" x="1163.5" y="1025.1426">-path : Optional&lt;SVGPath&gt;</text><text fill="#000000" font-family="sans-serif" font-size="14" lengthAdjust="spacing" textLength="182.0957" x="1163.5" y="1042.752">-keyPoints : Optional&lt;String&gt;</text><text fill="#000000" font-family="sans-serif" font-size="14" lengthAdjust="spacing" textLength="157.1992" x="1163.5" y="1060.3613">-rotate : Optional&lt;String&gt;</text><text fill="#000000" font-family="sans-serif" font-size="14" lengthAdjust="spacing" textLength="155.6406" x="1163.5" y="1077.9707">-origin : Optional&lt;String&gt;</text><line style="stroke:#181818;stroke-width:1;" x1="1158.5" x2="1482.4678" y1="1085.0469" y2="1085.0469"/><text fill="#000000" font-family="sans-serif" font-size="14" lengthAdjust="spacing" textLength="268.8643" x="1163.5" y="1103.5801">+path(SVGPath path) : SVGAnimateMotion</text><text fill="#000000" font-family="sans-serif" font-size="14" lengthAdjust="spacing" textLength="114.7822" x="1163.5" y="1121.1895">+path() : SVGPath</text><text fill="#000000" font-family="sans-serif" font-size="14" lengthAdjust="spacing" textLength="313.9678" x="1163.5" y="1138.7988">+keyPoints(String keyPoints) : SVGAnimateMotion</text><text fill="#000000" font-family="sans-serif" font-size="14" lengthAdjust="spacing" textLength="126.4375" x="1163.5" y="1156.4082">+keyPoints() : String</text><text fill="#000000" font-family="sans-serif" font-size="14" lengthAdjust="spacing" textLength="264.1748" x="1163.5" y="1174.0176">+rotate(String rotate) : SVGAnimateMotion</text><text fill="#000000" font-family="sans-serif" font-size="14" lengthAdjust="spacing" textLength="101.541" x="1163.5" y="1191.627">+rotate() : String</text><text fill="#000000" font-family="sans-serif" font-size="14" lengthAdjust="spacing" textLength="261.0576" x="1163.5" y="1209.2363">+origin(String origin) : SVGAnimateMotion</text><text fill="#000000" font-family="sans-serif" font-size="14" lengthAdjust="spacing" textLength="99.9824" x="1163.5" y="1226.8457">+origin() : String</text><text fill="#000000" font-family="sans-serif" font-size="14" lengthAdjust="spacing" textLength="85.9756" x="1163.5" y="1244.4551">+reset() : void</text></g><!--class SVGAnimateTransform--><g class="entity" data-qualified-name="SVGAnimateTransform" data-source-line="99" id="ent0008"><rect fill="#F1F1F1" height="435.4063" rx="2.5" ry="2.5" style="stroke:#181818;stroke-width:0.5;" width="402.2021" x="1518.5" y="895.6094"/><ellipse cx="1642.9961" cy="911.6094" fill="#ADD1B2" rx="11" ry="11" style="stroke:#181818;stroke-width:1;"/><path d="M1645.7617,907.4844 Q1645.918,907.2656 1646.1055,907.1563 Q1646.293,907.0469 1646.5117,907.0469 Q1646.8867,907.0469 1647.1211,907.3125 Q1647.3555,907.5625 1647.3555,908.1719 L1647.3555,909.625 Q1647.3555,910.2344 1647.1211,910.5 Q1646.8867,910.7656 1646.5117,910.7656 Q1646.168,910.7656 1645.9648,910.5625 Q1645.7617,910.375 1645.6523,909.8594 Q1645.6055,909.5 1645.418,909.3125 Q1645.0898,908.9375 1644.4805,908.7188 Q1643.8711,908.5 1643.2461,908.5 Q1642.4805,908.5 1641.8398,908.8281 Q1641.2148,909.1563 1640.7148,909.9063 Q1640.2305,910.6563 1640.2305,911.6875 L1640.2305,912.7813 Q1640.2305,914.0156 1641.1211,914.8438 Q1642.0117,915.6563 1643.6055,915.6563 Q1644.543,915.6563 1645.1992,915.4063 Q1645.5898,915.25 1646.0117,914.8125 Q1646.2773,914.5469 1646.418,914.4688 Q1646.5742,914.3906 1646.7773,914.3906 Q1647.1055,914.3906 1647.3555,914.6563 Q1647.6211,914.9063 1647.6211,915.25 Q1647.6211,915.5938 1647.2773,916 Q1646.7773,916.5781 1645.9805,916.9063 Q1644.9023,917.3594 1643.6055,917.3594 Q1642.0898,917.3594 1640.8867,916.7344 Q1639.9023,916.2344 1639.2148,915.1719 Q1638.5273,914.0938 1638.5273,912.8125 L1638.5273,911.6563 Q1638.5273,910.3281 1639.1367,909.1875 Q1639.7617,908.0313 1640.8555,907.4219 Q1641.9492,906.7969 1643.1836,906.7969 Q1643.918,906.7969 1644.5586,906.9688 Q1645.2148,907.125 1645.7617,907.4844 Z " fill="#000000"/><text fill="#000000" font-family="sans-serif" font-size="14" lengthAdjust="spacing" textLength="144.71" x="1663.4961" y="917.3379">SVGAnimateTransform</text><line style="stroke:#181818;stroke-width:0.5;" x1="1519.5" x2="1919.7021" y1="927.6094" y2="927.6094"/><text fill="#000000" font-family="sans-serif" font-size="14" lengthAdjust="spacing" textLength="209.3301" x="1524.5" y="946.1426">-attributeName : Optional&lt;String&gt;</text><text fill="#000000" font-family="sans-serif" font-size="14" lengthAdjust="spacing" textLength="268.4541" x="1524.5" y="963.752">-type : Optional&lt;AnimationTransformType&gt;</text><text fill="#000000" font-family="sans-serif" font-size="14" lengthAdjust="spacing" textLength="149.3994" x="1524.5" y="981.3613">-from : Optional&lt;String&gt;</text><text fill="#000000" font-family="sans-serif" font-size="14" lengthAdjust="spacing" textLength="133.0752" x="1524.5" y="998.9707">-to : Optional&lt;String&gt;</text><text fill="#000000" font-family="sans-serif" font-size="14" lengthAdjust="spacing" textLength="136.1855" x="1524.5" y="1016.5801">-by : Optional&lt;String&gt;</text><text fill="#000000" font-family="sans-serif" font-size="14" lengthAdjust="spacing" textLength="184.4609" x="1524.5" y="1034.1895">-additive : Optional&lt;Boolean&gt;</text><text fill="#000000" font-family="sans-serif" font-size="14" lengthAdjust="spacing" textLength="207.7988" x="1524.5" y="1051.7988">-accumulate : Optional&lt;Boolean&gt;</text><line style="stroke:#181818;stroke-width:1;" x1="1519.5" x2="1919.7021" y1="1058.875" y2="1058.875"/><text fill="#000000" font-family="sans-serif" font-size="14" lengthAdjust="spacing" textLength="390.2021" x="1524.5" y="1077.4082">+attributeName(String attributeName) : SVGAnimateTransform</text><text fill="#000000" font-family="sans-serif" font-size="14" lengthAdjust="spacing" textLength="153.6719" x="1524.5" y="1095.0176">+attributeName() : String</text><text fill="#000000" font-family="sans-serif" font-size="14" lengthAdjust="spacing" textLength="387.8574" x="1524.5" y="1112.627">+type(AnimationTransformType type) : SVGAnimateTransform</text><text fill="#000000" font-family="sans-serif" font-size="14" lengthAdjust="spacing" textLength="212.7959" x="1524.5" y="1130.2363">+type() : AnimationTransformType</text><text fill="#000000" font-family="sans-serif" font-size="14" lengthAdjust="spacing" textLength="270.3408" x="1524.5" y="1147.8457">+from(String from) : SVGAnimateTransform</text><text fill="#000000" font-family="sans-serif" font-size="14" lengthAdjust="spacing" textLength="93.7412" x="1524.5" y="1165.4551">+from() : String</text><text fill="#000000" font-family="sans-serif" font-size="14" lengthAdjust="spacing" textLength="237.6924" x="1524.5" y="1183.0645">+to(String to) : SVGAnimateTransform</text><text fill="#000000" font-family="sans-serif" font-size="14" lengthAdjust="spacing" textLength="77.417" x="1524.5" y="1200.6738">+to() : String</text><text fill="#000000" font-family="sans-serif" font-size="14" lengthAdjust="spacing" textLength="243.9131" x="1524.5" y="1218.2832">+by(String by) : SVGAnimateTransform</text><text fill="#000000" font-family="sans-serif" font-size="14" lengthAdjust="spacing" textLength="80.5273" x="1524.5" y="1235.8926">+by() : String</text><text fill="#000000" font-family="sans-serif" font-size="14" lengthAdjust="spacing" textLength="324.1055" x="1524.5" y="1253.502">+additive(boolean additive) : SVGAnimateTransform</text><text fill="#000000" font-family="sans-serif" font-size="14" lengthAdjust="spacing" textLength="128.8027" x="1524.5" y="1271.1113">+additive() : Boolean</text><text fill="#000000" font-family="sans-serif" font-size="14" lengthAdjust="spacing" textLength="370.7813" x="1524.5" y="1288.7207">+accumulate(boolean accumulate) : SVGAnimateTransform</text><text fill="#000000" font-family="sans-serif" font-size="14" lengthAdjust="spacing" textLength="152.1406" x="1524.5" y="1306.3301">+accumulate() : Boolean</text><text fill="#000000" font-family="sans-serif" font-size="14" lengthAdjust="spacing" textLength="85.9756" x="1524.5" y="1323.9395">+reset() : void</text></g><!--class ArcCommandType--><g class="entity" data-qualified-name="ArcCommandType" data-source-line="125" id="ent0009"><rect fill="#F1F1F1" height="83.2188" rx="2.5" ry="2.5" style="stroke:#181818;stroke-width:0.5;" width="148.7031" x="673" y="81.1094"/><ellipse cx="688" cy="97.1094" fill="#EB937F" rx="11" ry="11" style="stroke:#181818;stroke-width:1;"/><path d="M686.8594,97.9063 L686.8594,100.4063 L691.1875,100.4063 L691.1875,99.4844 Q691.1875,98.875 691.4219,98.6094 Q691.6719,98.3438 692.0469,98.3438 Q692.4219,98.3438 692.6563,98.6094 Q692.8906,98.875 692.8906,99.4844 L692.8906,102.1094 L684.8906,102.1094 Q684.2656,102.1094 684,101.875 Q683.75,101.6406 683.75,101.25 Q683.75,100.875 684.0156,100.6406 Q684.2813,100.4063 684.8906,100.4063 L685.1563,100.4063 L685.1563,93.75 L684.8906,93.75 Q684.2656,93.75 684,93.5156 Q683.75,93.2813 683.75,92.8906 Q683.75,92.5156 684,92.2813 Q684.2656,92.0469 684.8906,92.0469 L692.5156,92.0469 L692.5156,94.6406 Q692.5156,95.25 692.2813,95.5156 Q692.0625,95.7656 691.6719,95.7656 Q691.2969,95.7656 691.0625,95.5156 Q690.8281,95.25 690.8281,94.6406 L690.8281,93.75 L686.8594,93.75 L686.8594,96.2031 L688.3438,96.2031 Q688.3438,95.5469 688.4688,95.3594 Q688.7344,94.9531 689.2031,94.9531 Q689.5781,94.9531 689.8125,95.2188 Q690.0469,95.4688 690.0469,96.0781 L690.0469,98.0469 Q690.0469,98.5938 689.9219,98.7813 Q689.6563,99.1719 689.2031,99.1719 Q688.7344,99.1719 688.4688,98.7656 Q688.3438,98.5781 688.3438,97.9063 L686.8594,97.9063 Z " fill="#000000"/><text fill="#000000" font-family="sans-serif" font-size="14" lengthAdjust="spacing" textLength="116.7031" x="702" y="102.8379">ArcCommandType</text><line style="stroke:#181818;stroke-width:0.5;" x1="674" x2="820.7031" y1="113.1094" y2="113.1094"/><text fill="#000000" font-family="sans-serif" font-size="14" lengthAdjust="spacing" textLength="67.6895" x="679" y="131.6426">RELATIVE</text><text fill="#000000" font-family="sans-serif" font-size="14" lengthAdjust="spacing" textLength="74.6895" x="679" y="149.252">ABSOLUTE</text><line style="stroke:#181818;stroke-width:0.5;" x1="674" x2="820.7031" y1="156.3281" y2="156.3281"/></g><!--class CubicBezierCommandType--><g class="entity" data-qualified-name="CubicBezierCommandType" data-source-line="130" id="ent0010"><rect fill="#F1F1F1" height="118.4375" rx="2.5" ry="2.5" style="stroke:#181818;stroke-width:0.5;" width="203.1787" x="75" y="488.6094"/><ellipse cx="90" cy="504.6094" fill="#EB937F" rx="11" ry="11" style="stroke:#181818;stroke-width:1;"/><path d="M88.8594,505.4063 L88.8594,507.9063 L93.1875,507.9063 L93.1875,506.9844 Q93.1875,506.375 93.4219,506.1094 Q93.6719,505.8438 94.0469,505.8438 Q94.4219,505.8438 94.6563,506.1094 Q94.8906,506.375 94.8906,506.9844 L94.8906,509.6094 L86.8906,509.6094 Q86.2656,509.6094 86,509.375 Q85.75,509.1406 85.75,508.75 Q85.75,508.375 86.0156,508.1406 Q86.2813,507.9063 86.8906,507.9063 L87.1563,507.9063 L87.1563,501.25 L86.8906,501.25 Q86.2656,501.25 86,501.0156 Q85.75,500.7813 85.75,500.3906 Q85.75,500.0156 86,499.7813 Q86.2656,499.5469 86.8906,499.5469 L94.5156,499.5469 L94.5156,502.1406 Q94.5156,502.75 94.2813,503.0156 Q94.0625,503.2656 93.6719,503.2656 Q93.2969,503.2656 93.0625,503.0156 Q92.8281,502.75 92.8281,502.1406 L92.8281,501.25 L88.8594,501.25 L88.8594,503.7031 L90.3438,503.7031 Q90.3438,503.0469 90.4688,502.8594 Q90.7344,502.4531 91.2031,502.4531 Q91.5781,502.4531 91.8125,502.7188 Q92.0469,502.9688 92.0469,503.5781 L92.0469,505.5469 Q92.0469,506.0938 91.9219,506.2813 Q91.6563,506.6719 91.2031,506.6719 Q90.7344,506.6719 90.4688,506.2656 Q90.3438,506.0781 90.3438,505.4063 L88.8594,505.4063 Z " fill="#000000"/><text fill="#000000" font-family="sans-serif" font-size="14" lengthAdjust="spacing" textLength="171.1787" x="104" y="510.3379">CubicBezierCommandType</text><line style="stroke:#181818;stroke-width:0.5;" x1="76" x2="277.1787" y1="520.6094" y2="520.6094"/><text fill="#000000" font-family="sans-serif" font-size="14" lengthAdjust="spacing" textLength="136.917" x="81" y="539.1426">SMOOTH_RELATIVE</text><text fill="#000000" font-family="sans-serif" font-size="14" lengthAdjust="spacing" textLength="61.4414" x="81" y="556.752">SMOOTH</text><text fill="#000000" font-family="sans-serif" font-size="14" lengthAdjust="spacing" textLength="67.6895" x="81" y="574.3613">RELATIVE</text><text fill="#000000" font-family="sans-serif" font-size="14" lengthAdjust="spacing" textLength="74.6895" x="81" y="591.9707">ABSOLUTE</text><line style="stroke:#181818;stroke-width:0.5;" x1="76" x2="277.1787" y1="599.0469" y2="599.0469"/></g><!--class IPathCommand--><g class="entity" data-qualified-name="IPathCommand" data-source-line="137" id="ent0011"><rect fill="#F1F1F1" height="83.2188" rx="2.5" ry="2.5" style="stroke:#181818;stroke-width:0.5;" width="321.3467" x="313" y="506.1094"/><ellipse cx="420.7891" cy="522.1094" fill="#B4A7E5" rx="11" ry="11" style="stroke:#181818;stroke-width:1;"/><path d="M421.7422,518.75 L421.7422,525.4063 L423.4609,525.4063 Q424.0703,525.4063 424.3359,525.6406 Q424.6016,525.875 424.6016,526.2656 Q424.6016,526.6406 424.3359,526.875 Q424.0703,527.1094 423.4609,527.1094 L418.3203,527.1094 Q417.7109,527.1094 417.4453,526.875 Q417.1797,526.6406 417.1797,526.25 Q417.1797,525.875 417.4453,525.6406 Q417.7109,525.4063 418.3203,525.4063 L420.0391,525.4063 L420.0391,518.75 L418.3203,518.75 Q417.7109,518.75 417.4453,518.5156 Q417.1797,518.2813 417.1797,517.8906 Q417.1797,517.5156 417.4453,517.2813 Q417.7109,517.0469 418.3203,517.0469 L423.4609,517.0469 Q424.0703,517.0469 424.3359,517.2813 Q424.6016,517.5156 424.6016,517.8906 Q424.6016,518.2813 424.3359,518.5156 Q424.0703,518.75 423.4609,518.75 L421.7422,518.75 Z " fill="#000000"/><text fill="#000000" font-family="sans-serif" font-size="14" font-style="italic" lengthAdjust="spacing" textLength="97.2686" x="441.2891" y="527.8379">IPathCommand</text><line style="stroke:#181818;stroke-width:0.5;" x1="314" x2="633.3467" y1="538.1094" y2="538.1094"/><line style="stroke:#181818;stroke-width:0.5;" x1="314" x2="633.3467" y1="546.1094" y2="546.1094"/><text fill="#000000" font-family="sans-serif" font-size="14" lengthAdjust="spacing" textLength="309.3467" x="319" y="564.6426">+translate(double dx, double dy) : IPathCommand</text><text fill="#000000" font-family="sans-serif" font-size="14" lengthAdjust="spacing" textLength="121.0098" x="319" y="582.252">+getValue() : String</text></g><!--class MoveCommandType--><g class="entity" data-qualified-name="MoveCommandType" data-source-line="142" id="ent0012"><rect fill="#F1F1F1" height="188.875" rx="2.5" ry="2.5" style="stroke:#181818;stroke-width:0.5;" width="177.7031" x="669.5" y="453.1094"/><ellipse cx="691.5945" cy="469.1094" fill="#EB937F" rx="11" ry="11" style="stroke:#181818;stroke-width:1;"/><path d="M690.4539,469.9063 L690.4539,472.4063 L694.782,472.4063 L694.782,471.4844 Q694.782,470.875 695.0164,470.6094 Q695.2664,470.3438 695.6414,470.3438 Q696.0164,470.3438 696.2508,470.6094 Q696.4852,470.875 696.4852,471.4844 L696.4852,474.1094 L688.4852,474.1094 Q687.8602,474.1094 687.5945,473.875 Q687.3445,473.6406 687.3445,473.25 Q687.3445,472.875 687.6102,472.6406 Q687.8758,472.4063 688.4852,472.4063 L688.7508,472.4063 L688.7508,465.75 L688.4852,465.75 Q687.8602,465.75 687.5945,465.5156 Q687.3445,465.2813 687.3445,464.8906 Q687.3445,464.5156 687.5945,464.2813 Q687.8602,464.0469 688.4852,464.0469 L696.1102,464.0469 L696.1102,466.6406 Q696.1102,467.25 695.8758,467.5156 Q695.657,467.7656 695.2664,467.7656 Q694.8914,467.7656 694.657,467.5156 Q694.4227,467.25 694.4227,466.6406 L694.4227,465.75 L690.4539,465.75 L690.4539,468.2031 L691.9383,468.2031 Q691.9383,467.5469 692.0633,467.3594 Q692.3289,466.9531 692.7977,466.9531 Q693.1727,466.9531 693.407,467.2188 Q693.6414,467.4688 693.6414,468.0781 L693.6414,470.0469 Q693.6414,470.5938 693.5164,470.7813 Q693.2508,471.1719 692.7977,471.1719 Q692.3289,471.1719 692.0633,470.7656 Q691.9383,470.5781 691.9383,469.9063 L690.4539,469.9063 Z " fill="#000000"/><text fill="#000000" font-family="sans-serif" font-size="14" lengthAdjust="spacing" textLength="129.9375" x="707.1711" y="474.8379">MoveCommandType</text><line style="stroke:#181818;stroke-width:0.5;" x1="670.5" x2="846.2031" y1="485.1094" y2="485.1094"/><text fill="#000000" font-family="sans-serif" font-size="14" lengthAdjust="spacing" textLength="143.9375" x="675.5" y="503.6426">VERTICAL_RELATIVE</text><text fill="#000000" font-family="sans-serif" font-size="14" lengthAdjust="spacing" textLength="68.4619" x="675.5" y="521.252">VERTICAL</text><text fill="#000000" font-family="sans-serif" font-size="14" lengthAdjust="spacing" textLength="165.7031" x="675.5" y="538.8613">HORIZONTAL_RELATIVE</text><text fill="#000000" font-family="sans-serif" font-size="14" lengthAdjust="spacing" textLength="90.2275" x="675.5" y="556.4707">HORIZONTAL</text><text fill="#000000" font-family="sans-serif" font-size="14" lengthAdjust="spacing" textLength="106.5996" x="675.5" y="574.0801">LINE_RELATIVE</text><text fill="#000000" font-family="sans-serif" font-size="14" lengthAdjust="spacing" textLength="31.124" x="675.5" y="591.6895">LINE</text><text fill="#000000" font-family="sans-serif" font-size="14" lengthAdjust="spacing" textLength="67.6895" x="675.5" y="609.2988">RELATIVE</text><text fill="#000000" font-family="sans-serif" font-size="14" lengthAdjust="spacing" textLength="74.6895" x="675.5" y="626.9082">ABSOLUTE</text><line style="stroke:#181818;stroke-width:0.5;" x1="670.5" x2="846.2031" y1="633.9844" y2="633.9844"/></g><!--class QuadBezierCommandType--><g class="entity" data-qualified-name="QuadBezierCommandType" data-source-line="153" id="ent0013"><rect fill="#F1F1F1" height="118.4375" rx="2.5" ry="2.5" style="stroke:#181818;stroke-width:0.5;" width="201.6338" x="882.5" y="488.6094"/><ellipse cx="897.5" cy="504.6094" fill="#EB937F" rx="11" ry="11" style="stroke:#181818;stroke-width:1;"/><path d="M896.3594,505.4063 L896.3594,507.9063 L900.6875,507.9063 L900.6875,506.9844 Q900.6875,506.375 900.9219,506.1094 Q901.1719,505.8438 901.5469,505.8438 Q901.9219,505.8438 902.1563,506.1094 Q902.3906,506.375 902.3906,506.9844 L902.3906,509.6094 L894.3906,509.6094 Q893.7656,509.6094 893.5,509.375 Q893.25,509.1406 893.25,508.75 Q893.25,508.375 893.5156,508.1406 Q893.7813,507.9063 894.3906,507.9063 L894.6563,507.9063 L894.6563,501.25 L894.3906,501.25 Q893.7656,501.25 893.5,501.0156 Q893.25,500.7813 893.25,500.3906 Q893.25,500.0156 893.5,499.7813 Q893.7656,499.5469 894.3906,499.5469 L902.0156,499.5469 L902.0156,502.1406 Q902.0156,502.75 901.7813,503.0156 Q901.5625,503.2656 901.1719,503.2656 Q900.7969,503.2656 900.5625,503.0156 Q900.3281,502.75 900.3281,502.1406 L900.3281,501.25 L896.3594,501.25 L896.3594,503.7031 L897.8438,503.7031 Q897.8438,503.0469 897.9688,502.8594 Q898.2344,502.4531 898.7031,502.4531 Q899.0781,502.4531 899.3125,502.7188 Q899.5469,502.9688 899.5469,503.5781 L899.5469,505.5469 Q899.5469,506.0938 899.4219,506.2813 Q899.1563,506.6719 898.7031,506.6719 Q898.2344,506.6719 897.9688,506.2656 Q897.8438,506.0781 897.8438,505.4063 L896.3594,505.4063 Z " fill="#000000"/><text fill="#000000" font-family="sans-serif" font-size="14" lengthAdjust="spacing" textLength="169.6338" x="911.5" y="510.3379">QuadBezierCommandType</text><line style="stroke:#181818;stroke-width:0.5;" x1="883.5" x2="1083.1338" y1="520.6094" y2="520.6094"/><text fill="#000000" font-family="sans-serif" font-size="14" lengthAdjust="spacing" textLength="74.6895" x="888.5" y="539.1426">ABSOLUTE</text><text fill="#000000" font-family="sans-serif" font-size="14" lengthAdjust="spacing" textLength="67.6895" x="888.5" y="556.752">RELATIVE</text><text fill="#000000" font-family="sans-serif" font-size="14" lengthAdjust="spacing" textLength="61.4414" x="888.5" y="574.3613">SMOOTH</text><text fill="#000000" font-family="sans-serif" font-size="14" lengthAdjust="spacing" textLength="136.917" x="888.5" y="591.9707">SMOOTH_RELATIVE</text><line style="stroke:#181818;stroke-width:0.5;" x1="883.5" x2="1083.1338" y1="599.0469" y2="599.0469"/></g><!--class SVGPath--><g class="entity" data-qualified-name="SVGPath" data-source-line="160" id="ent0014"><rect fill="#F1F1F1" height="400.1875" rx="2.5" ry="2.5" style="stroke:#181818;stroke-width:0.5;" width="879.3574" x="1556" y="347.6094"/><ellipse cx="1962.2461" cy="363.6094" fill="#ADD1B2" rx="11" ry="11" style="stroke:#181818;stroke-width:1;"/><path d="M1965.0117,359.4844 Q1965.168,359.2656 1965.3555,359.1563 Q1965.543,359.0469 1965.7617,359.0469 Q1966.1367,359.0469 1966.3711,359.3125 Q1966.6055,359.5625 1966.6055,360.1719 L1966.6055,361.625 Q1966.6055,362.2344 1966.3711,362.5 Q1966.1367,362.7656 1965.7617,362.7656 Q1965.418,362.7656 1965.2148,362.5625 Q1965.0117,362.375 1964.9023,361.8594 Q1964.8555,361.5 1964.668,361.3125 Q1964.3398,360.9375 1963.7305,360.7188 Q1963.1211,360.5 1962.4961,360.5 Q1961.7305,360.5 1961.0898,360.8281 Q1960.4648,361.1563 1959.9648,361.9063 Q1959.4805,362.6563 1959.4805,363.6875 L1959.4805,364.7813 Q1959.4805,366.0156 1960.3711,366.8438 Q1961.2617,367.6563 1962.8555,367.6563 Q1963.793,367.6563 1964.4492,367.4063 Q1964.8398,367.25 1965.2617,366.8125 Q1965.5273,366.5469 1965.668,366.4688 Q1965.8242,366.3906 1966.0273,366.3906 Q1966.3555,366.3906 1966.6055,366.6563 Q1966.8711,366.9063 1966.8711,367.25 Q1966.8711,367.5938 1966.5273,368 Q1966.0273,368.5781 1965.2305,368.9063 Q1964.1523,369.3594 1962.8555,369.3594 Q1961.3398,369.3594 1960.1367,368.7344 Q1959.1523,368.2344 1958.4648,367.1719 Q1957.7773,366.0938 1957.7773,364.8125 L1957.7773,363.6563 Q1957.7773,362.3281 1958.3867,361.1875 Q1959.0117,360.0313 1960.1055,359.4219 Q1961.1992,358.7969 1962.4336,358.7969 Q1963.168,358.7969 1963.8086,358.9688 Q1964.4648,359.125 1965.0117,359.4844 Z " fill="#000000"/><text fill="#000000" font-family="sans-serif" font-size="14" lengthAdjust="spacing" textLength="58.3652" x="1982.7461" y="369.3379">SVGPath</text><line style="stroke:#181818;stroke-width:0.5;" x1="1557" x2="2434.3574" y1="379.6094" y2="379.6094"/><text fill="#000000" font-family="sans-serif" font-size="14" lengthAdjust="spacing" textLength="220.2061" x="1562" y="398.1426">-commands : List&lt;IPathCommand&gt;</text><text fill="#000000" font-family="sans-serif" font-size="14" lengthAdjust="spacing" textLength="105.041" x="1562" y="415.752">-isDirty : boolean</text><text fill="#000000" font-family="sans-serif" font-size="14" lengthAdjust="spacing" textLength="168.8887" x="1562" y="433.3613">-cachedBox : BoundingBox</text><line style="stroke:#181818;stroke-width:1;" x1="1557" x2="2434.3574" y1="440.4375" y2="440.4375"/><text fill="#000000" font-family="sans-serif" font-size="14" lengthAdjust="spacing" textLength="237.7607" x="1562" y="458.9707">+translate(double dx, double dy) : void</text><text fill="#000000" font-family="sans-serif" font-size="14" lengthAdjust="spacing" textLength="120.2168" x="1562" y="476.5801">+close() : SVGPath</text><text fill="#000000" font-family="sans-serif" font-size="14" lengthAdjust="spacing" textLength="342.0361" x="1562" y="494.1895">+move(double x, double y, boolean relative) : SVGPath</text><text fill="#000000" font-family="sans-serif" font-size="14" lengthAdjust="spacing" textLength="329.5947" x="1562" y="511.7988">+line(double x, double y, boolean relative) : SVGPath</text><text fill="#000000" font-family="sans-serif" font-size="14" lengthAdjust="spacing" textLength="334.2637" x="1562" y="529.4082">+horizontal(double value, boolean relative) : SVGPath</text><text fill="#000000" font-family="sans-serif" font-size="14" lengthAdjust="spacing" textLength="317.9053" x="1562" y="547.0176">+vertical(double value, boolean relative) : SVGPath</text><text fill="#000000" font-family="sans-serif" font-size="14" lengthAdjust="spacing" textLength="654.1514" x="1562" y="564.627">+cubicBezier(double x1, double y1, double x2, double y2, double x, double y, boolean relative) : SVGPath</text><text fill="#000000" font-family="sans-serif" font-size="14" lengthAdjust="spacing" textLength="565.4072" x="1562" y="582.2363">+cubicBezierSmooth(double x2, double y2, double x, double y, boolean relative) : SVGPath</text><text fill="#000000" font-family="sans-serif" font-size="14" lengthAdjust="spacing" textLength="515.6211" x="1562" y="599.8457">+quadBezier(double x1, double y1, double x, double y, boolean relative) : SVGPath</text><text fill="#000000" font-family="sans-serif" font-size="14" lengthAdjust="spacing" textLength="426.877" x="1562" y="617.4551">+quadBezierSmooth(double x, double y, boolean relative) : SVGPath</text><text fill="#000000" font-family="sans-serif" font-size="14" lengthAdjust="spacing" textLength="867.3574" x="1562" y="635.0645">+arc(double rx, double ry, double xAxisRotation, boolean largeArcFlag, boolean sweepFlag, double x, double y, boolean relative) : SVGPath</text><text fill="#000000" font-family="sans-serif" font-size="14" lengthAdjust="spacing" textLength="118.6582" x="1562" y="652.6738">+reset() : SVGPath</text><text fill="#000000" font-family="sans-serif" font-size="14" lengthAdjust="spacing" textLength="119.0342" x="1562" y="670.2832">-refreshBox() : void</text><text fill="#000000" font-family="sans-serif" font-size="14" lengthAdjust="spacing" textLength="215.209" x="1562" y="687.8926">+getBoundingBox() : BoundingBox</text><text fill="#000000" font-family="sans-serif" font-size="14" lengthAdjust="spacing" textLength="288.2852" x="1562" y="705.502">+getDrawCommands() : List&lt;IPathCommand&gt;</text><text fill="#000000" font-family="sans-serif" font-size="14" lengthAdjust="spacing" textLength="150.6025" x="1562" y="723.1113">+hasContent() : boolean</text><text fill="#000000" font-family="sans-serif" font-size="14" lengthAdjust="spacing" textLength="134.2373" x="1562" y="740.7207">+getContent() : String</text></g><!--class ParseCommands--><g class="entity" data-qualified-name="ParseCommands" data-source-line="184" id="ent0015"><rect fill="#F1F1F1" height="118.4375" rx="2.5" ry="2.5" style="stroke:#181818;stroke-width:0.5;" width="338.8535" x="7" y="1054.1094"/><ellipse cx="118.1011" cy="1070.1094" fill="#ADD1B2" rx="11" ry="11" style="stroke:#181818;stroke-width:1;"/><path d="M120.8667,1065.9844 Q121.0229,1065.7656 121.2104,1065.6563 Q121.3979,1065.5469 121.6167,1065.5469 Q121.9917,1065.5469 122.2261,1065.8125 Q122.4604,1066.0625 122.4604,1066.6719 L122.4604,1068.125 Q122.4604,1068.7344 122.2261,1069 Q121.9917,1069.2656 121.6167,1069.2656 Q121.2729,1069.2656 121.0698,1069.0625 Q120.8667,1068.875 120.7573,1068.3594 Q120.7104,1068 120.5229,1067.8125 Q120.1948,1067.4375 119.5854,1067.2188 Q118.9761,1067 118.3511,1067 Q117.5854,1067 116.9448,1067.3281 Q116.3198,1067.6563 115.8198,1068.4063 Q115.3354,1069.1563 115.3354,1070.1875 L115.3354,1071.2813 Q115.3354,1072.5156 116.2261,1073.3438 Q117.1167,1074.1563 118.7104,1074.1563 Q119.6479,1074.1563 120.3042,1073.9063 Q120.6948,1073.75 121.1167,1073.3125 Q121.3823,1073.0469 121.5229,1072.9688 Q121.6792,1072.8906 121.8823,1072.8906 Q122.2104,1072.8906 122.4604,1073.1563 Q122.7261,1073.4063 122.7261,1073.75 Q122.7261,1074.0938 122.3823,1074.5 Q121.8823,1075.0781 121.0854,1075.4063 Q120.0073,1075.8594 118.7104,1075.8594 Q117.1948,1075.8594 115.9917,1075.2344 Q115.0073,1074.7344 114.3198,1073.6719 Q113.6323,1072.5938 113.6323,1071.3125 L113.6323,1070.1563 Q113.6323,1068.8281 114.2417,1067.6875 Q114.8667,1066.5313 115.9604,1065.9219 Q117.0542,1065.2969 118.2886,1065.2969 Q119.0229,1065.2969 119.6636,1065.4688 Q120.3198,1065.625 120.8667,1065.9844 Z " fill="#000000"/><text fill="#000000" font-family="sans-serif" font-size="14" lengthAdjust="spacing" textLength="108.1514" x="138.6011" y="1075.8379">ParseCommands</text><line style="stroke:#181818;stroke-width:0.5;" x1="8" x2="344.8535" y1="1086.1094" y2="1086.1094"/><line style="stroke:#181818;stroke-width:0.5;" x1="8" x2="344.8535" y1="1094.1094" y2="1094.1094"/><text fill="#000000" font-family="sans-serif" font-size="14" lengthAdjust="spacing" text-decoration="underline" textLength="262.6162" x="13" y="1112.6426">+parse(String raw) : List&lt;IPathCommand&gt;</text><text fill="#000000" font-family="sans-serif" font-size="14" lengthAdjust="spacing" text-decoration="underline" textLength="326.8535" x="13" y="1130.252">-parseDouble(List&lt;String&gt; tokens, int index) : double</text><text fill="#000000" font-family="sans-serif" font-size="14" lengthAdjust="spacing" text-decoration="underline" textLength="317.5088" x="13" y="1147.8613">-parseFlag(List&lt;String&gt; tokens, int index) : boolean</text><text fill="#000000" font-family="sans-serif" font-size="14" lengthAdjust="spacing" text-decoration="underline" textLength="210.0957" x="13" y="1165.4707">-isNumber(String token) : boolean</text></g><!--class SVGStyle--><g class="entity" data-qualified-name="SVGStyle" data-source-line="191" id="ent0016"><rect fill="#F1F1F1" height="523.4531" rx="2.5" ry="2.5" style="stroke:#181818;stroke-width:0.5;" width="308.8779" x="2470" y="286.1094"/><ellipse cx="2589.8442" cy="302.1094" fill="#ADD1B2" rx="11" ry="11" style="stroke:#181818;stroke-width:1;"/><path d="M2592.6099,297.9844 Q2592.7661,297.7656 2592.9536,297.6563 Q2593.1411,297.5469 2593.3599,297.5469 Q2593.7349,297.5469 2593.9692,297.8125 Q2594.2036,298.0625 2594.2036,298.6719 L2594.2036,300.125 Q2594.2036,300.7344 2593.9692,301 Q2593.7349,301.2656 2593.3599,301.2656 Q2593.0161,301.2656 2592.813,301.0625 Q2592.6099,300.875 2592.5005,300.3594 Q2592.4536,300 2592.2661,299.8125 Q2591.938,299.4375 2591.3286,299.2188 Q2590.7192,299 2590.0942,299 Q2589.3286,299 2588.688,299.3281 Q2588.063,299.6563 2587.563,300.4063 Q2587.0786,301.1563 2587.0786,302.1875 L2587.0786,303.2813 Q2587.0786,304.5156 2587.9692,305.3438 Q2588.8599,306.1563 2590.4536,306.1563 Q2591.3911,306.1563 2592.0474,305.9063 Q2592.438,305.75 2592.8599,305.3125 Q2593.1255,305.0469 2593.2661,304.9688 Q2593.4224,304.8906 2593.6255,304.8906 Q2593.9536,304.8906 2594.2036,305.1563 Q2594.4692,305.4063 2594.4692,305.75 Q2594.4692,306.0938 2594.1255,306.5 Q2593.6255,307.0781 2592.8286,307.4063 Q2591.7505,307.8594 2590.4536,307.8594 Q2588.938,307.8594 2587.7349,307.2344 Q2586.7505,306.7344 2586.063,305.6719 Q2585.3755,304.5938 2585.3755,303.3125 L2585.3755,302.1563 Q2585.3755,300.8281 2585.9849,299.6875 Q2586.6099,298.5313 2587.7036,297.9219 Q2588.7974,297.2969 2590.0317,297.2969 Q2590.7661,297.2969 2591.4067,297.4688 Q2592.063,297.625 2592.6099,297.9844 Z " fill="#000000"/><text fill="#000000" font-family="sans-serif" font-size="14" lengthAdjust="spacing" textLength="60.6895" x="2610.3442" y="307.8379">SVGStyle</text><line style="stroke:#181818;stroke-width:0.5;" x1="2471" x2="2777.8779" y1="318.1094" y2="318.1094"/><text fill="#000000" font-family="sans-serif" font-size="14" lengthAdjust="spacing" textLength="203.1025" x="2476" y="336.6426">-strokeWidth : Optional&lt;Double&gt;</text><text fill="#000000" font-family="sans-serif" font-size="14" lengthAdjust="spacing" textLength="189.8613" x="2476" y="354.252">-strokeColor : Optional&lt;Color&gt;</text><text fill="#000000" font-family="sans-serif" font-size="14" lengthAdjust="spacing" textLength="225.6543" x="2476" y="371.8613">-strokeDashArray : Optional&lt;String&gt;</text><text fill="#000000" font-family="sans-serif" font-size="14" lengthAdjust="spacing" textLength="164.958" x="2476" y="389.4707">-fillColor : Optional&lt;Color&gt;</text><text fill="#000000" font-family="sans-serif" font-size="14" lengthAdjust="spacing" textLength="179.7783" x="2476" y="407.0801">-fontSize : Optional&lt;Double&gt;</text><text fill="#000000" font-family="sans-serif" font-size="14" lengthAdjust="spacing" textLength="185.9717" x="2476" y="424.6895">-fontFamily : Optional&lt;String&gt;</text><text fill="#000000" font-family="sans-serif" font-size="14" lengthAdjust="spacing" textLength="188.3232" x="2476" y="442.2988">-textAnchor : Optional&lt;String&gt;</text><text fill="#000000" font-family="sans-serif" font-size="14" lengthAdjust="spacing" textLength="235.8057" x="2476" y="459.9082">-alignmentBaseline : Optional&lt;String&gt;</text><line style="stroke:#181818;stroke-width:1;" x1="2471" x2="2777.8779" y1="466.9844" y2="466.9844"/><text fill="#000000" font-family="sans-serif" font-size="14" lengthAdjust="spacing" textLength="242.3818" x="2476" y="485.5176">+strokeWidth(double width) : SVGStyle</text><text fill="#000000" font-family="sans-serif" font-size="14" lengthAdjust="spacing" textLength="215.9404" x="2476" y="503.127">+strokeWidth() : Optional&lt;Double&gt;</text><text fill="#000000" font-family="sans-serif" font-size="14" lengthAdjust="spacing" textLength="229.127" x="2476" y="520.7363">+strokeColor(Color color) : SVGStyle</text><text fill="#000000" font-family="sans-serif" font-size="14" lengthAdjust="spacing" textLength="202.6992" x="2476" y="538.3457">+strokeColor() : Optional&lt;Color&gt;</text><text fill="#000000" font-family="sans-serif" font-size="14" lengthAdjust="spacing" textLength="253.2578" x="2476" y="555.9551">+strokeDashArray(int values) : SVGStyle</text><text fill="#000000" font-family="sans-serif" font-size="14" lengthAdjust="spacing" textLength="238.4922" x="2476" y="573.5645">+strokeDashArray() : Optional&lt;String&gt;</text><text fill="#000000" font-family="sans-serif" font-size="14" lengthAdjust="spacing" textLength="204.2236" x="2476" y="591.1738">+fillColor(Color color) : SVGStyle</text><text fill="#000000" font-family="sans-serif" font-size="14" lengthAdjust="spacing" textLength="177.7959" x="2476" y="608.7832">+fillColor() : Optional&lt;Color&gt;</text><text fill="#000000" font-family="sans-serif" font-size="14" lengthAdjust="spacing" textLength="211.2715" x="2476" y="626.3926">+fontSize(double size) : SVGStyle</text><text fill="#000000" font-family="sans-serif" font-size="14" lengthAdjust="spacing" textLength="192.6162" x="2476" y="644.002">+fontSize() : Optional&lt;Double&gt;</text><text fill="#000000" font-family="sans-serif" font-size="14" lengthAdjust="spacing" textLength="231.4512" x="2476" y="661.6113">+fontFamily(String family) : SVGStyle</text><text fill="#000000" font-family="sans-serif" font-size="14" lengthAdjust="spacing" textLength="198.8096" x="2476" y="679.2207">+fontFamily() : Optional&lt;String&gt;</text><text fill="#000000" font-family="sans-serif" font-size="14" lengthAdjust="spacing" textLength="240.0508" x="2476" y="696.8301">+textAnchor(String anchor) : SVGStyle</text><text fill="#000000" font-family="sans-serif" font-size="14" lengthAdjust="spacing" textLength="201.1611" x="2476" y="714.4395">+textAnchor() : Optional&lt;String&gt;</text><text fill="#000000" font-family="sans-serif" font-size="14" lengthAdjust="spacing" textLength="296.8779" x="2476" y="732.0488">+alignmentBaseline(String baseline) : SVGStyle</text><text fill="#000000" font-family="sans-serif" font-size="14" lengthAdjust="spacing" textLength="248.6436" x="2476" y="749.6582">+alignmentBaseline() : Optional&lt;String&gt;</text><text fill="#000000" font-family="sans-serif" font-size="14" lengthAdjust="spacing" textLength="150.6025" x="2476" y="767.2676">+hasContent() : boolean</text><text fill="#000000" font-family="sans-serif" font-size="14" lengthAdjust="spacing" textLength="134.2373" x="2476" y="784.877">+getContent() : String</text><text fill="#000000" font-family="sans-serif" font-size="14" lengthAdjust="spacing" textLength="119.4307" x="2476" y="802.4863">+copy() : SVGStyle</text></g><!--class Color--><g class="entity" data-qualified-name="Color" data-source-line="222" id="ent0017"><rect fill="#F1F1F1" height="382.5781" rx="2.5" ry="2.5" style="stroke:#181818;stroke-width:0.5;" width="228.7061" x="381" y="921.6094"/><ellipse cx="474.3755" cy="937.6094" fill="#ADD1B2" rx="11" ry="11" style="stroke:#181818;stroke-width:1;"/><path d="M477.1411,933.4844 Q477.2974,933.2656 477.4849,933.1563 Q477.6724,933.0469 477.8911,933.0469 Q478.2661,933.0469 478.5005,933.3125 Q478.7349,933.5625 478.7349,934.1719 L478.7349,935.625 Q478.7349,936.2344 478.5005,936.5 Q478.2661,936.7656 477.8911,936.7656 Q477.5474,936.7656 477.3442,936.5625 Q477.1411,936.375 477.0317,935.8594 Q476.9849,935.5 476.7974,935.3125 Q476.4692,934.9375 475.8599,934.7188 Q475.2505,934.5 474.6255,934.5 Q473.8599,934.5 473.2192,934.8281 Q472.5942,935.1563 472.0942,935.9063 Q471.6099,936.6563 471.6099,937.6875 L471.6099,938.7813 Q471.6099,940.0156 472.5005,940.8438 Q473.3911,941.6563 474.9849,941.6563 Q475.9224,941.6563 476.5786,941.4063 Q476.9692,941.25 477.3911,940.8125 Q477.6567,940.5469 477.7974,940.4688 Q477.9536,940.3906 478.1567,940.3906 Q478.4849,940.3906 478.7349,940.6563 Q479.0005,940.9063 479.0005,941.25 Q479.0005,941.5938 478.6567,942 Q478.1567,942.5781 477.3599,942.9063 Q476.2817,943.3594 474.9849,943.3594 Q473.4692,943.3594 472.2661,942.7344 Q471.2817,942.2344 470.5942,941.1719 Q469.9067,940.0938 469.9067,938.8125 L469.9067,937.6563 Q469.9067,936.3281 470.5161,935.1875 Q471.1411,934.0313 472.2349,933.4219 Q473.3286,932.7969 474.563,932.7969 Q475.2974,932.7969 475.938,932.9688 Q476.5942,933.125 477.1411,933.4844 Z " fill="#000000"/><text fill="#000000" font-family="sans-serif" font-size="14" lengthAdjust="spacing" textLength="33.4551" x="494.8755" y="943.3379">Color</text><line style="stroke:#181818;stroke-width:0.5;" x1="382" x2="608.7061" y1="953.6094" y2="953.6094"/><text fill="#000000" font-family="sans-serif" font-size="14" lengthAdjust="spacing" text-decoration="underline" textLength="157.5342" x="387" y="972.1426">+TRANSPARENT : Color</text><text fill="#000000" font-family="sans-serif" font-size="14" lengthAdjust="spacing" text-decoration="underline" textLength="99.21" x="387" y="989.752">+BLACK : Color</text><text fill="#000000" font-family="sans-serif" font-size="14" lengthAdjust="spacing" text-decoration="underline" textLength="98.4033" x="387" y="1007.3613">+WHITE : Color</text><text fill="#000000" font-family="sans-serif" font-size="14" lengthAdjust="spacing" text-decoration="underline" textLength="82.8584" x="387" y="1024.9707">+RED : Color</text><text fill="#000000" font-family="sans-serif" font-size="14" lengthAdjust="spacing" text-decoration="underline" textLength="103.0859" x="387" y="1042.5801">+GREEN : Color</text><text fill="#000000" font-family="sans-serif" font-size="14" lengthAdjust="spacing" text-decoration="underline" textLength="89.8721" x="387" y="1060.1895">+BLUE : Color</text><text fill="#000000" font-family="sans-serif" font-size="14" lengthAdjust="spacing" text-decoration="underline" textLength="113.9756" x="387" y="1077.7988">+ORANGE : Color</text><text fill="#000000" font-family="sans-serif" font-size="14" lengthAdjust="spacing" text-decoration="underline" textLength="109.3203" x="387" y="1095.4082">+PURPLE : Color</text><text fill="#000000" font-family="sans-serif" font-size="14" lengthAdjust="spacing" text-decoration="underline" textLength="92.1963" x="387" y="1113.0176">+CYAN : Color</text><text fill="#000000" font-family="sans-serif" font-size="14" lengthAdjust="spacing" text-decoration="underline" textLength="122.5273" x="387" y="1130.627">+MAGENTA : Color</text><text fill="#000000" font-family="sans-serif" font-size="14" lengthAdjust="spacing" text-decoration="underline" textLength="111.6514" x="387" y="1148.2363">+YELLOW : Color</text><text fill="#000000" font-family="sans-serif" font-size="14" lengthAdjust="spacing" text-decoration="underline" textLength="92.9756" x="387" y="1165.8457">+GRAY : Color</text><text fill="#000000" font-family="sans-serif" font-size="14" lengthAdjust="spacing" textLength="75.4756" x="387" y="1183.4551">-hex : String</text><line style="stroke:#181818;stroke-width:1;" x1="382" x2="608.7061" y1="1190.5313" y2="1190.5313"/><text fill="#000000" font-family="sans-serif" font-size="14" lengthAdjust="spacing" text-decoration="underline" textLength="148.2305" x="387" y="1209.0645">+hex(String hex) : Color</text><text fill="#000000" font-family="sans-serif" font-size="14" lengthAdjust="spacing" text-decoration="underline" textLength="174.6787" x="387" y="1226.6738">+rgb(int r, int g, int b) : Color</text><text fill="#000000" font-family="sans-serif" font-size="14" lengthAdjust="spacing" text-decoration="underline" textLength="216.7061" x="387" y="1244.2832">+rgba(int r, int g, int b, int a) : Color</text><text fill="#000000" font-family="sans-serif" font-size="14" lengthAdjust="spacing" text-decoration="underline" textLength="110.0928" x="387" y="1261.8926">+random() : Color</text><text fill="#000000" font-family="sans-serif" font-size="14" lengthAdjust="spacing" text-decoration="underline" textLength="148.2031" x="387" y="1279.502">+raw(String raw) : Color</text><text fill="#000000" font-family="sans-serif" font-size="14" lengthAdjust="spacing" textLength="113.9893" x="387" y="1297.1113">+toString() : String</text></g><!--class SVGContentProcessor--><g class="entity" data-qualified-name="SVGContentProcessor" data-source-line="245" id="ent0018"><rect fill="#F1F1F1" height="65.6094" rx="2.5" ry="2.5" style="stroke:#181818;stroke-width:0.5;" width="527.5938" x="2814.5" y="514.6094"/><ellipse cx="3003.2368" cy="530.6094" fill="#ADD1B2" rx="11" ry="11" style="stroke:#181818;stroke-width:1;"/><path d="M3006.0024,526.4844 Q3006.1587,526.2656 3006.3462,526.1563 Q3006.5337,526.0469 3006.7524,526.0469 Q3007.1274,526.0469 3007.3618,526.3125 Q3007.5962,526.5625 3007.5962,527.1719 L3007.5962,528.625 Q3007.5962,529.2344 3007.3618,529.5 Q3007.1274,529.7656 3006.7524,529.7656 Q3006.4087,529.7656 3006.2056,529.5625 Q3006.0024,529.375 3005.8931,528.8594 Q3005.8462,528.5 3005.6587,528.3125 Q3005.3306,527.9375 3004.7212,527.7188 Q3004.1118,527.5 3003.4868,527.5 Q3002.7212,527.5 3002.0806,527.8281 Q3001.4556,528.1563 3000.9556,528.9063 Q3000.4712,529.6563 3000.4712,530.6875 L3000.4712,531.7813 Q3000.4712,533.0156 3001.3618,533.8438 Q3002.2524,534.6563 3003.8462,534.6563 Q3004.7837,534.6563 3005.4399,534.4063 Q3005.8306,534.25 3006.2524,533.8125 Q3006.5181,533.5469 3006.6587,533.4688 Q3006.8149,533.3906 3007.0181,533.3906 Q3007.3462,533.3906 3007.5962,533.6563 Q3007.8618,533.9063 3007.8618,534.25 Q3007.8618,534.5938 3007.5181,535 Q3007.0181,535.5781 3006.2212,535.9063 Q3005.1431,536.3594 3003.8462,536.3594 Q3002.3306,536.3594 3001.1274,535.7344 Q3000.1431,535.2344 2999.4556,534.1719 Q2998.7681,533.0938 2998.7681,531.8125 L2998.7681,530.6563 Q2998.7681,529.3281 2999.3774,528.1875 Q3000.0024,527.0313 3001.0962,526.4219 Q3002.1899,525.7969 3003.4243,525.7969 Q3004.1587,525.7969 3004.7993,525.9688 Q3005.4556,526.125 3006.0024,526.4844 Z " fill="#000000"/><text fill="#000000" font-family="sans-serif" font-size="14" lengthAdjust="spacing" textLength="141.6201" x="3023.7368" y="536.3379">SVGContentProcessor</text><line style="stroke:#181818;stroke-width:0.5;" x1="2815.5" x2="3341.0938" y1="546.6094" y2="546.6094"/><line style="stroke:#181818;stroke-width:0.5;" x1="2815.5" x2="3341.0938" y1="554.6094" y2="554.6094"/><text fill="#000000" font-family="sans-serif" font-size="14" lengthAdjust="spacing" textLength="515.5938" x="2820.5" y="573.1426">+process(Set&lt;TypeElement&gt; annotations, RoundEnvironment roundEnv) : boolean</text></g><!--class ISVGAttribute--><g class="entity" data-qualified-name="ISVGAttribute" data-source-line="249" id="ent0019"><rect fill="#F1F1F1" height="83.2188" rx="2.5" ry="2.5" style="stroke:#181818;stroke-width:0.5;" width="162.6025" x="2228" y="81.1094"/><ellipse cx="2263.2544" cy="97.1094" fill="#B4A7E5" rx="11" ry="11" style="stroke:#181818;stroke-width:1;"/><path d="M2264.2075,93.75 L2264.2075,100.4063 L2265.9263,100.4063 Q2266.5356,100.4063 2266.8013,100.6406 Q2267.0669,100.875 2267.0669,101.2656 Q2267.0669,101.6406 2266.8013,101.875 Q2266.5356,102.1094 2265.9263,102.1094 L2260.7856,102.1094 Q2260.1763,102.1094 2259.9106,101.875 Q2259.645,101.6406 2259.645,101.25 Q2259.645,100.875 2259.9106,100.6406 Q2260.1763,100.4063 2260.7856,100.4063 L2262.5044,100.4063 L2262.5044,93.75 L2260.7856,93.75 Q2260.1763,93.75 2259.9106,93.5156 Q2259.645,93.2813 2259.645,92.8906 Q2259.645,92.5156 2259.9106,92.2813 Q2260.1763,92.0469 2260.7856,92.0469 L2265.9263,92.0469 Q2266.5356,92.0469 2266.8013,92.2813 Q2267.0669,92.5156 2267.0669,92.8906 Q2267.0669,93.2813 2266.8013,93.5156 Q2266.5356,93.75 2265.9263,93.75 L2264.2075,93.75 Z " fill="#000000"/><text fill="#000000" font-family="sans-serif" font-size="14" font-style="italic" lengthAdjust="spacing" textLength="85.5928" x="2281.7554" y="102.8379">ISVGAttribute</text><line style="stroke:#181818;stroke-width:0.5;" x1="2229" x2="2389.6025" y1="113.1094" y2="113.1094"/><line style="stroke:#181818;stroke-width:0.5;" x1="2229" x2="2389.6025" y1="121.1094" y2="121.1094"/><text fill="#000000" font-family="sans-serif" font-size="14" lengthAdjust="spacing" textLength="150.6025" x="2234" y="139.6426">+hasContent() : boolean</text><text fill="#000000" font-family="sans-serif" font-size="14" lengthAdjust="spacing" textLength="134.2373" x="2234" y="157.252">+getContent() : String</text></g><!--class ISVGShape--><g class="entity" data-qualified-name="ISVGShape" data-source-line="254" id="ent0020"><rect fill="#F1F1F1" height="83.2188" rx="2.5" ry="2.5" style="stroke:#181818;stroke-width:0.5;" width="217.7686" x="1211.5" y="81.1094"/><ellipse cx="1279.1655" cy="97.1094" fill="#B4A7E5" rx="11" ry="11" style="stroke:#181818;stroke-width:1;"/><path d="M1280.1187,93.75 L1280.1187,100.4063 L1281.8374,100.4063 Q1282.4468,100.4063 1282.7124,100.6406 Q1282.978,100.875 1282.978,101.2656 Q1282.978,101.6406 1282.7124,101.875 Q1282.4468,102.1094 1281.8374,102.1094 L1276.6968,102.1094 Q1276.0874,102.1094 1275.8218,101.875 Q1275.5562,101.6406 1275.5562,101.25 Q1275.5562,100.875 1275.8218,100.6406 Q1276.0874,100.4063 1276.6968,100.4063 L1278.4155,100.4063 L1278.4155,93.75 L1276.6968,93.75 Q1276.0874,93.75 1275.8218,93.5156 Q1275.5562,93.2813 1275.5562,92.8906 Q1275.5562,92.5156 1275.8218,92.2813 Q1276.0874,92.0469 1276.6968,92.0469 L1281.8374,92.0469 Q1282.4468,92.0469 1282.7124,92.2813 Q1282.978,92.5156 1282.978,92.8906 Q1282.978,93.2813 1282.7124,93.5156 Q1282.4468,93.75 1281.8374,93.75 L1280.1187,93.75 Z " fill="#000000"/><text fill="#000000" font-family="sans-serif" font-size="14" font-style="italic" lengthAdjust="spacing" textLength="73.9375" x="1299.6655" y="102.8379">ISVGShape</text><line style="stroke:#181818;stroke-width:0.5;" x1="1212.5" x2="1428.2686" y1="113.1094" y2="113.1094"/><line style="stroke:#181818;stroke-width:0.5;" x1="1212.5" x2="1428.2686" y1="121.1094" y2="121.1094"/><text fill="#000000" font-family="sans-serif" font-size="14" lengthAdjust="spacing" textLength="140.4443" x="1217.5" y="139.6426">~getStyle() : SVGStyle</text><text fill="#000000" font-family="sans-serif" font-size="14" lengthAdjust="spacing" textLength="205.7686" x="1217.5" y="157.252">~getTransform() : SVGTransform</text></g><!--class SVGPointProcessor--><g class="entity" data-qualified-name="SVGPointProcessor" data-source-line="259" id="ent0021"><rect fill="#F1F1F1" height="65.6094" rx="2.5" ry="2.5" style="stroke:#181818;stroke-width:0.5;" width="527.5938" x="3377.5" y="514.6094"/><ellipse cx="3574.7988" cy="530.6094" fill="#ADD1B2" rx="11" ry="11" style="stroke:#181818;stroke-width:1;"/><path d="M3577.5645,526.4844 Q3577.7207,526.2656 3577.9082,526.1563 Q3578.0957,526.0469 3578.3145,526.0469 Q3578.6895,526.0469 3578.9238,526.3125 Q3579.1582,526.5625 3579.1582,527.1719 L3579.1582,528.625 Q3579.1582,529.2344 3578.9238,529.5 Q3578.6895,529.7656 3578.3145,529.7656 Q3577.9707,529.7656 3577.7676,529.5625 Q3577.5645,529.375 3577.4551,528.8594 Q3577.4082,528.5 3577.2207,528.3125 Q3576.8926,527.9375 3576.2832,527.7188 Q3575.6738,527.5 3575.0488,527.5 Q3574.2832,527.5 3573.6426,527.8281 Q3573.0176,528.1563 3572.5176,528.9063 Q3572.0332,529.6563 3572.0332,530.6875 L3572.0332,531.7813 Q3572.0332,533.0156 3572.9238,533.8438 Q3573.8145,534.6563 3575.4082,534.6563 Q3576.3457,534.6563 3577.002,534.4063 Q3577.3926,534.25 3577.8145,533.8125 Q3578.0801,533.5469 3578.2207,533.4688 Q3578.377,533.3906 3578.5801,533.3906 Q3578.9082,533.3906 3579.1582,533.6563 Q3579.4238,533.9063 3579.4238,534.25 Q3579.4238,534.5938 3579.0801,535 Q3578.5801,535.5781 3577.7832,535.9063 Q3576.7051,536.3594 3575.4082,536.3594 Q3573.8926,536.3594 3572.6895,535.7344 Q3571.7051,535.2344 3571.0176,534.1719 Q3570.3301,533.0938 3570.3301,531.8125 L3570.3301,530.6563 Q3570.3301,529.3281 3570.9395,528.1875 Q3571.5645,527.0313 3572.6582,526.4219 Q3573.752,525.7969 3574.9863,525.7969 Q3575.7207,525.7969 3576.3613,525.9688 Q3577.0176,526.125 3577.5645,526.4844 Z " fill="#000000"/><text fill="#000000" font-family="sans-serif" font-size="14" lengthAdjust="spacing" textLength="124.4961" x="3595.2988" y="536.3379">SVGPointProcessor</text><line style="stroke:#181818;stroke-width:0.5;" x1="3378.5" x2="3904.0938" y1="546.6094" y2="546.6094"/><line style="stroke:#181818;stroke-width:0.5;" x1="3378.5" x2="3904.0938" y1="554.6094" y2="554.6094"/><text fill="#000000" font-family="sans-serif" font-size="14" lengthAdjust="spacing" textLength="515.5938" x="3383.5" y="573.1426">+process(Set&lt;TypeElement&gt; annotations, RoundEnvironment roundEnv) : boolean</text></g><!--class SVGTagProcessor--><g class="entity" data-qualified-name="SVGTagProcessor" data-source-line="263" id="ent0022"><rect fill="#F1F1F1" height="83.2188" rx="2.5" ry="2.5" style="stroke:#181818;stroke-width:0.5;" width="527.5938" x="3940.5" y="506.1094"/><ellipse cx="4141.6919" cy="522.1094" fill="#ADD1B2" rx="11" ry="11" style="stroke:#181818;stroke-width:1;"/><path d="M4144.4575,517.9844 Q4144.6138,517.7656 4144.8013,517.6563 Q4144.9888,517.5469 4145.2075,517.5469 Q4145.5825,517.5469 4145.8169,517.8125 Q4146.0513,518.0625 4146.0513,518.6719 L4146.0513,520.125 Q4146.0513,520.7344 4145.8169,521 Q4145.5825,521.2656 4145.2075,521.2656 Q4144.8638,521.2656 4144.6606,521.0625 Q4144.4575,520.875 4144.3481,520.3594 Q4144.3013,520 4144.1138,519.8125 Q4143.7856,519.4375 4143.1763,519.2188 Q4142.5669,519 4141.9419,519 Q4141.1763,519 4140.5356,519.3281 Q4139.9106,519.6563 4139.4106,520.4063 Q4138.9263,521.1563 4138.9263,522.1875 L4138.9263,523.2813 Q4138.9263,524.5156 4139.8169,525.3438 Q4140.7075,526.1563 4142.3013,526.1563 Q4143.2388,526.1563 4143.895,525.9063 Q4144.2856,525.75 4144.7075,525.3125 Q4144.9731,525.0469 4145.1138,524.9688 Q4145.27,524.8906 4145.4731,524.8906 Q4145.8013,524.8906 4146.0513,525.1563 Q4146.3169,525.4063 4146.3169,525.75 Q4146.3169,526.0938 4145.9731,526.5 Q4145.4731,527.0781 4144.6763,527.4063 Q4143.5981,527.8594 4142.3013,527.8594 Q4140.7856,527.8594 4139.5825,527.2344 Q4138.5981,526.7344 4137.9106,525.6719 Q4137.2231,524.5938 4137.2231,523.3125 L4137.2231,522.1563 Q4137.2231,520.8281 4137.8325,519.6875 Q4138.4575,518.5313 4139.5513,517.9219 Q4140.645,517.2969 4141.8794,517.2969 Q4142.6138,517.2969 4143.2544,517.4688 Q4143.9106,517.625 4144.4575,517.9844 Z " fill="#000000"/><text fill="#000000" font-family="sans-serif" font-size="14" lengthAdjust="spacing" textLength="116.71" x="4162.1919" y="527.8379">SVGTagProcessor</text><line style="stroke:#181818;stroke-width:0.5;" x1="3941.5" x2="4467.0938" y1="538.1094" y2="538.1094"/><line style="stroke:#181818;stroke-width:0.5;" x1="3941.5" x2="4467.0938" y1="546.1094" y2="546.1094"/><text fill="#000000" font-family="sans-serif" font-size="14" lengthAdjust="spacing" textLength="515.5938" x="3946.5" y="564.6426">+process(Set&lt;TypeElement&gt; annotations, RoundEnvironment roundEnv) : boolean</text><text fill="#000000" font-family="sans-serif" font-size="14" lengthAdjust="spacing" textLength="270.0127" x="3946.5" y="582.252">-levenshteinDistance(String a, String b) : int</text></g><!--class AbstractProcessor--><g class="entity" data-qualified-name="AbstractProcessor" data-source-line="274" id="ent0029"><rect fill="#F1F1F1" height="48" rx="2.5" ry="2.5" style="stroke:#181818;stroke-width:0.5;" width="146.3721" x="3568.5" y="98.6094"/><ellipse cx="3583.5" cy="114.6094" fill="#ADD1B2" rx="11" ry="11" style="stroke:#181818;stroke-width:1;"/><path d="M3586.2656,110.4844 Q3586.4219,110.2656 3586.6094,110.1563 Q3586.7969,110.0469 3587.0156,110.0469 Q3587.3906,110.0469 3587.625,110.3125 Q3587.8594,110.5625 3587.8594,111.1719 L3587.8594,112.625 Q3587.8594,113.2344 3587.625,113.5 Q3587.3906,113.7656 3587.0156,113.7656 Q3586.6719,113.7656 3586.4688,113.5625 Q3586.2656,113.375 3586.1563,112.8594 Q3586.1094,112.5 3585.9219,112.3125 Q3585.5938,111.9375 3584.9844,111.7188 Q3584.375,111.5 3583.75,111.5 Q3582.9844,111.5 3582.3438,111.8281 Q3581.7188,112.1563 3581.2188,112.9063 Q3580.7344,113.6563 3580.7344,114.6875 L3580.7344,115.7813 Q3580.7344,117.0156 3581.625,117.8438 Q3582.5156,118.6563 3584.1094,118.6563 Q3585.0469,118.6563 3585.7031,118.4063 Q3586.0938,118.25 3586.5156,117.8125 Q3586.7813,117.5469 3586.9219,117.4688 Q3587.0781,117.3906 3587.2813,117.3906 Q3587.6094,117.3906 3587.8594,117.6563 Q3588.125,117.9063 3588.125,118.25 Q3588.125,118.5938 3587.7813,119 Q3587.2813,119.5781 3586.4844,119.9063 Q3585.4063,120.3594 3584.1094,120.3594 Q3582.5938,120.3594 3581.3906,119.7344 Q3580.4063,119.2344 3579.7188,118.1719 Q3579.0313,117.0938 3579.0313,115.8125 L3579.0313,114.6563 Q3579.0313,113.3281 3579.6406,112.1875 Q3580.2656,111.0313 3581.3594,110.4219 Q3582.4531,109.7969 3583.6875,109.7969 Q3584.4219,109.7969 3585.0625,109.9688 Q3585.7188,110.125 3586.2656,110.4844 Z " fill="#000000"/><text fill="#000000" font-family="sans-serif" font-size="14" lengthAdjust="spacing" textLength="114.3721" x="3597.5" y="120.3379">AbstractProcessor</text><line style="stroke:#181818;stroke-width:0.5;" x1="3569.5" x2="3713.8721" y1="130.6094" y2="130.6094"/><line style="stroke:#181818;stroke-width:0.5;" x1="3569.5" x2="3713.8721" y1="138.6094" y2="138.6094"/></g><!--reverse link ISVGShape to AbstractAnimate--><g class="link" data-entity-1="ent0020" data-entity-2="ent0002" data-link-type="extension" data-source-line="268" id="lnk23"><path codeLine="268" d="M1320.5,182.1694 C1320.5,206.6694 1320.5,222.3194 1320.5,259.5694" fill="none" id="ISVGShape-backto-AbstractAnimate" style="stroke:#181818;stroke-width:1;stroke-dasharray:7,7;"/><polygon fill="none" points="1320.5,164.1694,1314.5,182.1694,1326.5,182.1694,1320.5,164.1694" style="stroke:#181818;stroke-width:1;"/></g><!--reverse link AbstractAnimate to SVGAnimate--><g class="link" data-entity-1="ent0002" data-entity-2="ent0006" data-link-type="extension" data-source-line="269" id="lnk24"><path codeLine="269" d="M1123.6851,850.8115 C1092.1951,899.1515 1070.67,932.2094 1043.17,974.4394" fill="none" id="AbstractAnimate-backto-SVGAnimate" style="stroke:#181818;stroke-width:1;"/><polygon fill="none" points="1133.51,835.7294,1118.6577,847.5365,1128.7125,854.0865,1133.51,835.7294" style="stroke:#181818;stroke-width:1;"/></g><!--reverse link AbstractAnimate to SVGAnimateMotion--><g class="link" data-entity-1="ent0002" data-entity-2="ent0007" data-link-type="extension" data-source-line="270" id="lnk25"><path codeLine="270" d="M1320.5,853.7294 C1320.5,902.0694 1320.5,932.2094 1320.5,974.4394" fill="none" id="AbstractAnimate-backto-SVGAnimateMotion" style="stroke:#181818;stroke-width:1;"/><polygon fill="none" points="1320.5,835.7294,1314.5,853.7294,1326.5,853.7294,1320.5,835.7294" style="stroke:#181818;stroke-width:1;"/></g><!--reverse link AbstractAnimate to SVGAnimateTransform--><g class="link" data-entity-1="ent0002" data-entity-2="ent0008" data-link-type="extension" data-source-line="271" id="lnk26"><path codeLine="271" d="M1531.572,846.6994 C1546.612,867.9394 1551.24,874.4794 1565.92,895.2094" fill="none" id="AbstractAnimate-backto-SVGAnimateTransform" style="stroke:#181818;stroke-width:1;"/><polygon fill="none" points="1521.17,832.0094,1526.6753,850.1668,1536.4687,843.2321,1521.17,832.0094" style="stroke:#181818;stroke-width:1;"/></g><!--reverse link ISVGAttribute to SVGPath--><g class="link" data-entity-1="ent0019" data-entity-2="ent0014" data-link-type="extension" data-source-line="272" id="lnk27"><path codeLine="272" d="M2268.6612,178.6225 C2236.7712,221.5825 2194.75,278.1894 2143.32,347.4794" fill="none" id="ISVGAttribute-backto-SVGPath" style="stroke:#181818;stroke-width:1;stroke-dasharray:7,7;"/><polygon fill="none" points="2279.39,164.1694,2263.8435,175.0462,2273.4789,182.1988,2279.39,164.1694" style="stroke:#181818;stroke-width:1;"/></g><!--reverse link ISVGAttribute to SVGStyle--><g class="link" data-entity-1="ent0019" data-entity-2="ent0016" data-link-type="extension" data-source-line="273" id="lnk28"><path codeLine="273" d="M2371.9583,176.0216 C2401.1983,201.6416 2424.45,224.5794 2452.5,259.6094 C2459.31,268.1094 2466.04,276.9094 2472.67,285.9094" fill="none" id="ISVGAttribute-backto-SVGStyle" style="stroke:#181818;stroke-width:1;stroke-dasharray:7,7;"/><polygon fill="none" points="2358.42,164.1594,2368.0043,180.5344,2375.9124,171.5089,2358.42,164.1594" style="stroke:#181818;stroke-width:1;"/></g><!--reverse link AbstractProcessor to SVGContentProcessor--><g class="link" data-entity-1="ent0029" data-entity-2="ent0018" data-link-type="extension" data-source-line="274" id="lnk30"><path codeLine="274" d="M3561.6591,153.2677 C3502.1391,176.6777 3428.71,209.9194 3359.5,259.6094 C3252.16,336.6794 3149.76,456.9094 3103.8,514.1694" fill="none" id="AbstractProcessor-backto-SVGContentProcessor" style="stroke:#181818;stroke-width:1;"/><polygon fill="none" points="3578.41,146.6794,3559.463,147.6841,3563.8552,158.8514,3578.41,146.6794" style="stroke:#181818;stroke-width:1;"/></g><!--reverse link AbstractProcessor to SVGPointProcessor--><g class="link" data-entity-1="ent0029" data-entity-2="ent0021" data-link-type="extension" data-source-line="275" id="lnk31"><path codeLine="275" d="M3641.5,164.6494 C3641.5,235.5094 3641.5,432.3294 3641.5,514.3294" fill="none" id="AbstractProcessor-backto-SVGPointProcessor" style="stroke:#181818;stroke-width:1;"/><polygon fill="none" points="3641.5,146.6494,3635.5,164.6494,3647.5,164.6494,3641.5,146.6494" style="stroke:#181818;stroke-width:1;"/></g><!--reverse link AbstractProcessor to SVGTagProcessor--><g class="link" data-entity-1="ent0029" data-entity-2="ent0022" data-link-type="extension" data-source-line="276" id="lnk32"><path codeLine="276" d="M3721.3409,153.2677 C3780.8609,176.6777 3854.29,209.9194 3923.5,259.6094 C4026.03,333.2194 4124.05,446.2094 4172.68,506.0994" fill="none" id="AbstractProcessor-backto-SVGTagProcessor" style="stroke:#181818;stroke-width:1;"/><polygon fill="none" points="3704.59,146.6794,3719.1448,158.8514,3723.537,147.6841,3704.59,146.6794" style="stroke:#181818;stroke-width:1;"/></g><?plantuml-src jLbBRnit4BxhLopGYmpRHTjZOGHOIueZL9PSIN6GNW9gHKiBxovLadevZz_UuPjSBINBQ0wnbfnlFf8pm-6GuJalSC8sYrQBFUVL2b5K9bc164ivf_bipN4_8zKaVy79RwqMcZ5EKSOL94brCwto4d6SV6qboNKomukyIlvCHYkUameLDnDWgXRlf11NyvXelgQ-I972TtTDvQz2bI5t38Lshq1Hp3YYl14vLZ83N674EsHTDOEbn8TsNxMMfxme6c7lGI0Xr_3dKbcqhMob6XUWLhE-XnHIXPQTO7EZ39ynLO6gAO97sWTJ5xqn3g4WPNKbAGNNDT2LyTMKUYqHEhHheaExA1qenEbqCBJh4M04CLQZ5p1hNGsmmTCE8yONnUcTTZ24xF8WtKPdMTbn_kvHnuauRGV1ARjYb18Ui0aLOooirh4X-LnsBJ2Vy7s1LV0ztic6aKmfgjWJeQMHsexMzrOBL-io74Ic88fBiX4KJnJZ5_61rfouxSI9Yd4_t0_OZFS58IgsQC_WOxl4rPUAy2-mubmEKU4DfcTIspLCzokLDBdeAPJzM8Ra-YdXkkCPRtVwTtzoA9MPmL9-KlubGIQT3r69OnduYP8o9kCa9fdj8n8rps1aauU2JkrQFuH2fLfQ4jCqHEAxGLz2QcgS62LE6bH0N5EOxMtEtJSeWBYcK8lk1c_S4xahrK6vGdmPcExnxW6wb5MVyVw1v1LdCREh-8X92StZfx1oZ1Y-hSUKZN2DQgeEgQK2BJlj18sHR4UKnwdK3IVNOeXKAygYmJKAjM13eLfH2Wq-strsvseFlcfNSR7Bcqxv80_yb1sOeFay5vdAbzyIKc2aIn2KPUjoNTGYoOUyRHUxF7roEmlxj2F9KSYE4KlTuAW9z5-HBaA-y_96RIvd991Gyp2J6B-rPyeJjkEebOsI06aNAe5rikEpNKSPdMATyt2pg4EEPXrIbgYQsyDjt1kaq_vZ3pxJsybey77Qi_3EUfPdj_WbnxIkDhaVZQOVldZQgYVE29a5qoUKuQGlifGcb6INxeXjpybw1fUU-UugCP_IExwIgJyUKR76JOVvFLGOzHa_ziRJVYST-7CsVV3vOJJk_pCQJaE0wuN6e3_i-KBHFc71lzTetcn02mq8h17hzlNJdJmIL8hB5AiuXWOvupU-bLGAoLatfroae9cD3z13sHBFRybEniswceFreENLBoSTOal4h20C7nn0eiWpkavrVsMc0I4Az6xFMCKYhzwck8HpuuLK71L6VIFYuxGYr8WypyvMozpkiFFztKtOVUx-SBtkyworUMDDIaBWmF__kF-rCNfY6MyZhStt7194CwD7dIBTkocbkvoDHSK1PulZAn1TOCXrxmkqSBriY_5ATRrbCYwbkbxne03N6BQ4lNDmR_BsbSxF_ZwJa2v5MxrRLTNLk8aXj17hG6HZVSkSUPaUM7nH_QhnW2WpgP3fPFkL2ODbtw5o1A6jwz3s8fv6Gfskj5fROdL10mViCwxOLG9v7lxDiRpeA_CsC0W_l4BVprcM86V3TJc3SBK7FsZwQ3zPoWkhpfPm6GReftmULlPgDUyyI8SK97WYaXq-eelOCgKKHMixSSq-HlC4JfCFTv692FbxLEP5T0IETt2npvRX445zMUIBgeJGk4KCYxnwzCRXMSVikgre7DpyVU15y_mlVKEsbHqoyJT2fd0NZRQwh9kyBK949caMeNFGY-ObNph_79sTGyNcPlneJCRW-v36WABcSkwsnR1iDL9fO7HjBZBiNK2s3iWyO9Ji88XirQpR1wo76b7oinERF0p9QX--HzaDhtnPItFJSJgSFAJZtd0AIX8I0cu7QUUlPj6d3_rfhraqxdMR1NVZNcyO6-bZX6q4axoBo1u-ZXy64LddSnePwpwzWnMdpSBFlS5Wz2as__Ip9xbEbdZdUq3d2ui7iOc9fKhR3QHqCPFxbgeClr0_ipWQDS7L3uffmN6bRuYDqctjh7EWKyzrEX8VACamOpR4LghTdc1-8ohxNe55tB-3_LRfgWHEjB4u-7lL9gT4Rek4wexQcUNTaCILpzpAzLXlgG52niaIwSl7Z-Yxxe_Jxxhk7Y9UYtwkIUnOKxJuYIE982_m1kgF9STvrOMw13AcUqcvIapE4rgmQZ4tPzARRx_-Ul3MNl_ljvjlrzV-8-K9kNuFEu5oZWb3Hix8rAdD8kLnm--CQqQeX_mHQ1W8Hu2-5rl_0G00?></g></svg>