<?plantuml 1.2026.1?><svg xmlns="http://www.w3.org/2000/svg" xmlns:xlink="http://www.w3.org/1999/xlink" contentStyleType="text/css" data-diagram-type="CLASS" height="952px" preserveAspectRatio="none" style="width:1916px;height:952px;background:#FFFFFF;" version="1.1" viewBox="0 0 1916 952" width="1916px" zoomAndPan="magnify"><title>visustats</title><defs/><g><g class="title" data-source-line="1"><text fill="#000000" font-family="sans-serif" font-size="14" font-weight="bold" lengthAdjust="spacing" textLength="60.6963" x="921.1133" y="24.5332">visustats</text></g><!--class AbstractDataGroupView--><g class="entity" data-qualified-name="AbstractDataGroupView" data-source-line="5" id="ent0002"><rect fill="#F1F1F1" height="347.3594" rx="2.5" ry="2.5" style="stroke:#181818;stroke-width:0.5;" width="299.9229" x="980" y="331.6094"/><ellipse cx="1050.6221" cy="347.6094" fill="#A9DCDF" rx="11" ry="11" style="stroke:#181818;stroke-width:1;"/><path d="M1052.8096,349.375 L1048.6689,349.375 L1048.2471,350.4063 L1048.6689,350.4063 Q1049.2783,350.4063 1049.5439,350.6406 Q1049.8096,350.875 1049.8096,351.2656 Q1049.8096,351.6406 1049.5439,351.875 Q1049.2783,352.1094 1048.6689,352.1094 L1046.3721,352.1094 Q1045.7627,352.1094 1045.5127,351.875 Q1045.2471,351.6406 1045.2471,351.25 Q1045.2471,350.875 1045.5283,350.6406 Q1045.7939,350.3906 1046.4189,350.4063 L1049.0908,343.75 L1047.9814,343.75 Q1047.3721,343.75 1047.1064,343.5156 Q1046.8408,343.2813 1046.8408,342.8906 Q1046.8408,342.5156 1047.1064,342.2813 Q1047.3721,342.0469 1047.9814,342.0469 L1051.6533,342.0469 L1055.0439,350.4063 Q1055.6377,350.4063 1055.8252,350.5469 Q1056.2158,350.8125 1056.2158,351.2656 Q1056.2158,351.6406 1055.9502,351.875 Q1055.7002,352.1094 1055.0908,352.1094 L1052.7939,352.1094 Q1052.1846,352.1094 1051.9189,351.875 Q1051.6533,351.6406 1051.6533,351.25 Q1051.6533,350.875 1051.9189,350.6406 Q1052.1846,350.4063 1052.7939,350.4063 L1053.2158,350.4063 L1052.8096,349.375 Z M1052.0908,347.6719 L1050.7314,344.2969 L1049.3564,347.6719 L1052.0908,347.6719 Z " fill="#000000"/><text fill="#000000" font-family="sans-serif" font-size="14" font-style="italic" lengthAdjust="spacing" textLength="150.1787" x="1071.1221" y="353.3379">AbstractDataGroupView</text><line style="stroke:#181818;stroke-width:0.5;" x1="981" x2="1278.9229" y1="363.6094" y2="363.6094"/><text fill="#000000" font-family="sans-serif" font-size="14" lengthAdjust="spacing" textLength="115.1855" x="986" y="382.1426">#data : DataGroup</text><text fill="#000000" font-family="sans-serif" font-size="14" lengthAdjust="spacing" textLength="109.751" x="986" y="399.752">#spacing : double</text><text fill="#000000" font-family="sans-serif" font-size="14" lengthAdjust="spacing" textLength="90.2754" x="986" y="417.3613">#center : Point</text><line style="stroke:#181818;stroke-width:1;" x1="981" x2="1278.9229" y1="424.4375" y2="424.4375"/><text fill="#000000" font-family="sans-serif" font-size="14" font-style="italic" lengthAdjust="spacing" textLength="220.2334" x="986" y="442.9707">#getTotalElementsHeight() : double</text><text fill="#000000" font-family="sans-serif" font-size="14" lengthAdjust="spacing" textLength="215.5508" x="986" y="460.5801">#getTotalElementsWidth() : double</text><text fill="#000000" font-family="sans-serif" font-size="14" font-style="italic" lengthAdjust="spacing" textLength="166.5439" x="986" y="478.1895">#isAxisEnabled() : boolean</text><text fill="#000000" font-family="sans-serif" font-size="14" font-style="italic" lengthAdjust="spacing" textLength="170.4199" x="986" y="495.7988">#getAxisElement() : IShape</text><text fill="#000000" font-family="sans-serif" font-size="14" font-style="italic" lengthAdjust="spacing" textLength="177.4268" x="986" y="513.4082">#getElementWidth() : double</text><text fill="#000000" font-family="sans-serif" font-size="14" font-style="italic" lengthAdjust="spacing" textLength="287.9229" x="986" y="531.0176">#createElement(Point position) : IDataSetView</text><text fill="#000000" font-family="sans-serif" font-size="14" lengthAdjust="spacing" textLength="235.7783" x="986" y="548.627">-getElementCenterAt(int index) : Point</text><text fill="#000000" font-family="sans-serif" font-size="14" lengthAdjust="spacing" textLength="97.2822" x="986" y="566.2363">#update() : void</text><text fill="#000000" font-family="sans-serif" font-size="14" lengthAdjust="spacing" textLength="159.9063" x="986" y="583.8457">+setTitle(Label title) : void</text><text fill="#000000" font-family="sans-serif" font-size="14" lengthAdjust="spacing" textLength="211.2783" x="986" y="601.4551">+setData(DataGroup group) : void</text><text fill="#000000" font-family="sans-serif" font-size="14" lengthAdjust="spacing" textLength="189.5059" x="986" y="619.0645">+addData(DataSet data) : void</text><text fill="#000000" font-family="sans-serif" font-size="14" lengthAdjust="spacing" textLength="205.1123" x="986" y="636.6738">+addLegend(Label legend) : void</text><text fill="#000000" font-family="sans-serif" font-size="14" lengthAdjust="spacing" textLength="221.4092" x="986" y="654.2832">+resize(double px, double py) : void</text><text fill="#000000" font-family="sans-serif" font-size="14" lengthAdjust="spacing" textLength="159.9404" x="986" y="671.8926">+rotate(double deg) : void</text></g><!--class DataAxisView--><g class="entity" data-qualified-name="DataAxisView" data-source-line="26" id="ent0003"><rect fill="#F1F1F1" height="171.2656" rx="2.5" ry="2.5" style="stroke:#181818;stroke-width:0.5;" width="137.3027" x="807.5" y="419.6094"/><ellipse cx="831.0219" cy="435.6094" fill="#ADD1B2" rx="11" ry="11" style="stroke:#181818;stroke-width:1;"/><path d="M833.7875,431.4844 Q833.9438,431.2656 834.1313,431.1563 Q834.3188,431.0469 834.5375,431.0469 Q834.9125,431.0469 835.1469,431.3125 Q835.3813,431.5625 835.3813,432.1719 L835.3813,433.625 Q835.3813,434.2344 835.1469,434.5 Q834.9125,434.7656 834.5375,434.7656 Q834.1938,434.7656 833.9906,434.5625 Q833.7875,434.375 833.6781,433.8594 Q833.6313,433.5 833.4438,433.3125 Q833.1156,432.9375 832.5063,432.7188 Q831.8969,432.5 831.2719,432.5 Q830.5063,432.5 829.8656,432.8281 Q829.2406,433.1563 828.7406,433.9063 Q828.2563,434.6563 828.2563,435.6875 L828.2563,436.7813 Q828.2563,438.0156 829.1469,438.8438 Q830.0375,439.6563 831.6313,439.6563 Q832.5688,439.6563 833.225,439.4063 Q833.6156,439.25 834.0375,438.8125 Q834.3031,438.5469 834.4438,438.4688 Q834.6,438.3906 834.8031,438.3906 Q835.1313,438.3906 835.3813,438.6563 Q835.6469,438.9063 835.6469,439.25 Q835.6469,439.5938 835.3031,440 Q834.8031,440.5781 834.0063,440.9063 Q832.9281,441.3594 831.6313,441.3594 Q830.1156,441.3594 828.9125,440.7344 Q827.9281,440.2344 827.2406,439.1719 Q826.5531,438.0938 826.5531,436.8125 L826.5531,435.6563 Q826.5531,434.3281 827.1625,433.1875 Q827.7875,432.0313 828.8813,431.4219 Q829.975,430.7969 831.2094,430.7969 Q831.9438,430.7969 832.5844,430.9688 Q833.2406,431.125 833.7875,431.4844 Z " fill="#000000"/><text fill="#000000" font-family="sans-serif" font-size="14" lengthAdjust="spacing" textLength="86.3652" x="846.9156" y="441.3379">DataAxisView</text><line style="stroke:#181818;stroke-width:0.5;" x1="808.5" x2="943.8027" y1="451.6094" y2="451.6094"/><text fill="#000000" font-family="sans-serif" font-size="14" lengthAdjust="spacing" textLength="87.1514" x="813.5" y="470.1426">-center : Point</text><text fill="#000000" font-family="sans-serif" font-size="14" lengthAdjust="spacing" textLength="120.6201" x="813.5" y="487.752">-totalWidth : double</text><text fill="#000000" font-family="sans-serif" font-size="14" lengthAdjust="spacing" textLength="125.3027" x="813.5" y="505.3613">-totalHeight : double</text><text fill="#000000" font-family="sans-serif" font-size="14" lengthAdjust="spacing" textLength="106.627" x="813.5" y="522.9707">-spacing : double</text><text fill="#000000" font-family="sans-serif" font-size="14" lengthAdjust="spacing" textLength="120.627" x="813.5" y="540.5801">-maxValue : double</text><text fill="#000000" font-family="sans-serif" font-size="14" lengthAdjust="spacing" textLength="94.9375" x="813.5" y="558.1895">-stepCount : int</text><line style="stroke:#181818;stroke-width:1;" x1="808.5" x2="943.8027" y1="565.2656" y2="565.2656"/><text fill="#000000" font-family="sans-serif" font-size="14" lengthAdjust="spacing" textLength="94.1582" x="813.5" y="583.7988">-update() : void</text></g><!--class BarDataGroupView--><g class="entity" data-qualified-name="BarDataGroupView" data-source-line="37" id="ent0004"><rect fill="#F1F1F1" height="188.875" rx="2.5" ry="2.5" style="stroke:#181818;stroke-width:0.5;" width="317.8193" x="922" y="747.1094"/><ellipse cx="1016.353" cy="763.1094" fill="#ADD1B2" rx="11" ry="11" style="stroke:#181818;stroke-width:1;"/><path d="M1019.1187,758.9844 Q1019.2749,758.7656 1019.4624,758.6563 Q1019.6499,758.5469 1019.8687,758.5469 Q1020.2437,758.5469 1020.478,758.8125 Q1020.7124,759.0625 1020.7124,759.6719 L1020.7124,761.125 Q1020.7124,761.7344 1020.478,762 Q1020.2437,762.2656 1019.8687,762.2656 Q1019.5249,762.2656 1019.3218,762.0625 Q1019.1187,761.875 1019.0093,761.3594 Q1018.9624,761 1018.7749,760.8125 Q1018.4468,760.4375 1017.8374,760.2188 Q1017.228,760 1016.603,760 Q1015.8374,760 1015.1968,760.3281 Q1014.5718,760.6563 1014.0718,761.4063 Q1013.5874,762.1563 1013.5874,763.1875 L1013.5874,764.2813 Q1013.5874,765.5156 1014.478,766.3438 Q1015.3687,767.1563 1016.9624,767.1563 Q1017.8999,767.1563 1018.5562,766.9063 Q1018.9468,766.75 1019.3687,766.3125 Q1019.6343,766.0469 1019.7749,765.9688 Q1019.9312,765.8906 1020.1343,765.8906 Q1020.4624,765.8906 1020.7124,766.1563 Q1020.978,766.4063 1020.978,766.75 Q1020.978,767.0938 1020.6343,767.5 Q1020.1343,768.0781 1019.3374,768.4063 Q1018.2593,768.8594 1016.9624,768.8594 Q1015.4468,768.8594 1014.2437,768.2344 Q1013.2593,767.7344 1012.5718,766.6719 Q1011.8843,765.5938 1011.8843,764.3125 L1011.8843,763.1563 Q1011.8843,761.8281 1012.4937,760.6875 Q1013.1187,759.5313 1014.2124,758.9219 Q1015.3062,758.2969 1016.5405,758.2969 Q1017.2749,758.2969 1017.9155,758.4688 Q1018.5718,758.625 1019.1187,758.9844 Z " fill="#000000"/><text fill="#000000" font-family="sans-serif" font-size="14" lengthAdjust="spacing" textLength="120.6133" x="1036.853" y="768.8379">BarDataGroupView</text><line style="stroke:#181818;stroke-width:0.5;" x1="923" x2="1238.8193" y1="779.1094" y2="779.1094"/><text fill="#000000" font-family="sans-serif" font-size="14" lengthAdjust="spacing" text-decoration="underline" textLength="236.5029" x="928" y="797.6426">-DEFAULT_AXIS_STEP_COUNT : int</text><text fill="#000000" font-family="sans-serif" font-size="14" lengthAdjust="spacing" textLength="125.2891" x="928" y="815.252">-maxHeight : double</text><text fill="#000000" font-family="sans-serif" font-size="14" lengthAdjust="spacing" textLength="114.3926" x="928" y="832.8613">-barWidth : double</text><line style="stroke:#181818;stroke-width:1;" x1="923" x2="1238.8193" y1="839.9375" y2="839.9375"/><text fill="#000000" font-family="sans-serif" font-size="14" lengthAdjust="spacing" textLength="220.2334" x="928" y="858.4707">#getTotalElementsHeight() : double</text><text fill="#000000" font-family="sans-serif" font-size="14" lengthAdjust="spacing" textLength="177.4268" x="928" y="876.0801">#getElementWidth() : double</text><text fill="#000000" font-family="sans-serif" font-size="14" lengthAdjust="spacing" textLength="305.8193" x="928" y="893.6895">#createElement(Point position) : BarDataSetView</text><text fill="#000000" font-family="sans-serif" font-size="14" lengthAdjust="spacing" textLength="166.5439" x="928" y="911.2988">#isAxisEnabled() : boolean</text><text fill="#000000" font-family="sans-serif" font-size="14" lengthAdjust="spacing" textLength="170.4199" x="928" y="928.9082">#getAxisElement() : IShape</text></g><!--class ColumnsDataGroupView--><g class="entity" data-qualified-name="ColumnsDataGroupView" data-source-line="49" id="ent0005"><rect fill="#F1F1F1" height="206.4844" rx="2.5" ry="2.5" style="stroke:#181818;stroke-width:0.5;" width="299.9229" x="1275" y="738.6094"/><ellipse cx="1343.6772" cy="754.6094" fill="#ADD1B2" rx="11" ry="11" style="stroke:#181818;stroke-width:1;"/><path d="M1346.4429,750.4844 Q1346.5991,750.2656 1346.7866,750.1563 Q1346.9741,750.0469 1347.1929,750.0469 Q1347.5679,750.0469 1347.8022,750.3125 Q1348.0366,750.5625 1348.0366,751.1719 L1348.0366,752.625 Q1348.0366,753.2344 1347.8022,753.5 Q1347.5679,753.7656 1347.1929,753.7656 Q1346.8491,753.7656 1346.646,753.5625 Q1346.4429,753.375 1346.3335,752.8594 Q1346.2866,752.5 1346.0991,752.3125 Q1345.771,751.9375 1345.1616,751.7188 Q1344.5522,751.5 1343.9272,751.5 Q1343.1616,751.5 1342.521,751.8281 Q1341.896,752.1563 1341.396,752.9063 Q1340.9116,753.6563 1340.9116,754.6875 L1340.9116,755.7813 Q1340.9116,757.0156 1341.8022,757.8438 Q1342.6929,758.6563 1344.2866,758.6563 Q1345.2241,758.6563 1345.8804,758.4063 Q1346.271,758.25 1346.6929,757.8125 Q1346.9585,757.5469 1347.0991,757.4688 Q1347.2554,757.3906 1347.4585,757.3906 Q1347.7866,757.3906 1348.0366,757.6563 Q1348.3022,757.9063 1348.3022,758.25 Q1348.3022,758.5938 1347.9585,759 Q1347.4585,759.5781 1346.6616,759.9063 Q1345.5835,760.3594 1344.2866,760.3594 Q1342.771,760.3594 1341.5679,759.7344 Q1340.5835,759.2344 1339.896,758.1719 Q1339.2085,757.0938 1339.2085,755.8125 L1339.2085,754.6563 Q1339.2085,753.3281 1339.8179,752.1875 Q1340.4429,751.0313 1341.5366,750.4219 Q1342.6304,749.7969 1343.8647,749.7969 Q1344.5991,749.7969 1345.2397,749.9688 Q1345.896,750.125 1346.4429,750.4844 Z " fill="#000000"/><text fill="#000000" font-family="sans-serif" font-size="14" lengthAdjust="spacing" textLength="154.0684" x="1364.1772" y="760.3379">ColumnsDataGroupView</text><line style="stroke:#181818;stroke-width:0.5;" x1="1276" x2="1573.9229" y1="770.6094" y2="770.6094"/><text fill="#000000" font-family="sans-serif" font-size="14" lengthAdjust="spacing" text-decoration="underline" textLength="236.5029" x="1281" y="789.1426">-DEFAULT_AXIS_STEP_COUNT : int</text><text fill="#000000" font-family="sans-serif" font-size="14" lengthAdjust="spacing" textLength="125.2891" x="1281" y="806.752">-maxHeight : double</text><text fill="#000000" font-family="sans-serif" font-size="14" lengthAdjust="spacing" textLength="114.3926" x="1281" y="824.3613">-barWidth : double</text><text fill="#000000" font-family="sans-serif" font-size="14" lengthAdjust="spacing" textLength="140.0957" x="1281" y="841.9707">-innerSpacing : double</text><line style="stroke:#181818;stroke-width:1;" x1="1276" x2="1573.9229" y1="849.0469" y2="849.0469"/><text fill="#000000" font-family="sans-serif" font-size="14" lengthAdjust="spacing" textLength="220.2334" x="1281" y="867.5801">#getTotalElementsHeight() : double</text><text fill="#000000" font-family="sans-serif" font-size="14" lengthAdjust="spacing" textLength="177.4268" x="1281" y="885.1895">#getElementWidth() : double</text><text fill="#000000" font-family="sans-serif" font-size="14" lengthAdjust="spacing" textLength="287.9229" x="1281" y="902.7988">#createElement(Point position) : IDataSetView</text><text fill="#000000" font-family="sans-serif" font-size="14" lengthAdjust="spacing" textLength="166.5439" x="1281" y="920.4082">#isAxisEnabled() : boolean</text><text fill="#000000" font-family="sans-serif" font-size="14" lengthAdjust="spacing" textLength="170.4199" x="1281" y="938.0176">#getAxisElement() : IShape</text></g><!--class IDataGroupView--><g class="entity" data-qualified-name="IDataGroupView" data-source-line="62" id="ent0006"><rect fill="#F1F1F1" height="118.4375" rx="2.5" ry="2.5" style="stroke:#181818;stroke-width:0.5;" width="223.2783" x="982.5" y="153.6094"/><ellipse cx="1038.5308" cy="169.6094" fill="#B4A7E5" rx="11" ry="11" style="stroke:#181818;stroke-width:1;"/><path d="M1039.4839,166.25 L1039.4839,172.9063 L1041.2026,172.9063 Q1041.812,172.9063 1042.0776,173.1406 Q1042.3433,173.375 1042.3433,173.7656 Q1042.3433,174.1406 1042.0776,174.375 Q1041.812,174.6094 1041.2026,174.6094 L1036.062,174.6094 Q1035.4526,174.6094 1035.187,174.375 Q1034.9214,174.1406 1034.9214,173.75 Q1034.9214,173.375 1035.187,173.1406 Q1035.4526,172.9063 1036.062,172.9063 L1037.7808,172.9063 L1037.7808,166.25 L1036.062,166.25 Q1035.4526,166.25 1035.187,166.0156 Q1034.9214,165.7813 1034.9214,165.3906 Q1034.9214,165.0156 1035.187,164.7813 Q1035.4526,164.5469 1036.062,164.5469 L1041.2026,164.5469 Q1041.812,164.5469 1042.0776,164.7813 Q1042.3433,165.0156 1042.3433,165.3906 Q1042.3433,165.7813 1042.0776,166.0156 Q1041.812,166.25 1041.2026,166.25 L1039.4839,166.25 Z " fill="#000000"/><text fill="#000000" font-family="sans-serif" font-size="14" font-style="italic" lengthAdjust="spacing" textLength="102.7168" x="1059.0308" y="175.3379">IDataGroupView</text><line style="stroke:#181818;stroke-width:0.5;" x1="983.5" x2="1204.7783" y1="185.6094" y2="185.6094"/><line style="stroke:#181818;stroke-width:0.5;" x1="983.5" x2="1204.7783" y1="193.6094" y2="193.6094"/><text fill="#000000" font-family="sans-serif" font-size="14" lengthAdjust="spacing" textLength="159.9063" x="988.5" y="212.1426">+setTitle(Label title) : void</text><text fill="#000000" font-family="sans-serif" font-size="14" lengthAdjust="spacing" textLength="211.2783" x="988.5" y="229.752">+setData(DataGroup group) : void</text><text fill="#000000" font-family="sans-serif" font-size="14" lengthAdjust="spacing" textLength="208.1816" x="988.5" y="247.3613">+addData(DataSet dataset) : void</text><text fill="#000000" font-family="sans-serif" font-size="14" lengthAdjust="spacing" textLength="205.1123" x="988.5" y="264.9707">+addLegend(Label legend) : void</text></g><!--class PieDataGroupView--><g class="entity" data-qualified-name="PieDataGroupView" data-source-line="69" id="ent0007"><rect fill="#F1F1F1" height="153.6563" rx="2.5" ry="2.5" style="stroke:#181818;stroke-width:0.5;" width="299.9229" x="1610" y="764.6094"/><ellipse cx="1696.1807" cy="780.6094" fill="#ADD1B2" rx="11" ry="11" style="stroke:#181818;stroke-width:1;"/><path d="M1698.9463,776.4844 Q1699.1025,776.2656 1699.29,776.1563 Q1699.4775,776.0469 1699.6963,776.0469 Q1700.0713,776.0469 1700.3057,776.3125 Q1700.54,776.5625 1700.54,777.1719 L1700.54,778.625 Q1700.54,779.2344 1700.3057,779.5 Q1700.0713,779.7656 1699.6963,779.7656 Q1699.3525,779.7656 1699.1494,779.5625 Q1698.9463,779.375 1698.8369,778.8594 Q1698.79,778.5 1698.6025,778.3125 Q1698.2744,777.9375 1697.665,777.7188 Q1697.0557,777.5 1696.4307,777.5 Q1695.665,777.5 1695.0244,777.8281 Q1694.3994,778.1563 1693.8994,778.9063 Q1693.415,779.6563 1693.415,780.6875 L1693.415,781.7813 Q1693.415,783.0156 1694.3057,783.8438 Q1695.1963,784.6563 1696.79,784.6563 Q1697.7275,784.6563 1698.3838,784.4063 Q1698.7744,784.25 1699.1963,783.8125 Q1699.4619,783.5469 1699.6025,783.4688 Q1699.7588,783.3906 1699.9619,783.3906 Q1700.29,783.3906 1700.54,783.6563 Q1700.8057,783.9063 1700.8057,784.25 Q1700.8057,784.5938 1700.4619,785 Q1699.9619,785.5781 1699.165,785.9063 Q1698.0869,786.3594 1696.79,786.3594 Q1695.2744,786.3594 1694.0713,785.7344 Q1693.0869,785.2344 1692.3994,784.1719 Q1691.7119,783.0938 1691.7119,781.8125 L1691.7119,780.6563 Q1691.7119,779.3281 1692.3213,778.1875 Q1692.9463,777.0313 1694.04,776.4219 Q1695.1338,775.7969 1696.3682,775.7969 Q1697.1025,775.7969 1697.7432,775.9688 Q1698.3994,776.125 1698.9463,776.4844 Z " fill="#000000"/><text fill="#000000" font-family="sans-serif" font-size="14" lengthAdjust="spacing" textLength="119.0615" x="1716.6807" y="786.3379">PieDataGroupView</text><line style="stroke:#181818;stroke-width:0.5;" x1="1611" x2="1908.9229" y1="796.6094" y2="796.6094"/><text fill="#000000" font-family="sans-serif" font-size="14" lengthAdjust="spacing" textLength="99.627" x="1616" y="815.1426">#radius : double</text><line style="stroke:#181818;stroke-width:1;" x1="1611" x2="1908.9229" y1="822.2188" y2="822.2188"/><text fill="#000000" font-family="sans-serif" font-size="14" lengthAdjust="spacing" textLength="220.2334" x="1616" y="840.752">#getTotalElementsHeight() : double</text><text fill="#000000" font-family="sans-serif" font-size="14" lengthAdjust="spacing" textLength="177.4268" x="1616" y="858.3613">#getElementWidth() : double</text><text fill="#000000" font-family="sans-serif" font-size="14" lengthAdjust="spacing" textLength="287.9229" x="1616" y="875.9707">#createElement(Point position) : IDataSetView</text><text fill="#000000" font-family="sans-serif" font-size="14" lengthAdjust="spacing" textLength="166.5439" x="1616" y="893.5801">#isAxisEnabled() : boolean</text><text fill="#000000" font-family="sans-serif" font-size="14" lengthAdjust="spacing" textLength="170.4199" x="1616" y="911.1895">#getAxisElement() : IShape</text></g><!--class AbstractDataSetView--><g class="entity" data-qualified-name="AbstractDataSetView" data-source-line="79" id="ent0008"><rect fill="#F1F1F1" height="153.6563" rx="2.5" ry="2.5" style="stroke:#181818;stroke-width:0.5;" width="233.4092" x="539.5" y="428.1094"/><ellipse cx="585.8135" cy="444.1094" fill="#A9DCDF" rx="11" ry="11" style="stroke:#181818;stroke-width:1;"/><path d="M588.001,445.875 L583.8604,445.875 L583.4385,446.9063 L583.8604,446.9063 Q584.4697,446.9063 584.7354,447.1406 Q585.001,447.375 585.001,447.7656 Q585.001,448.1406 584.7354,448.375 Q584.4697,448.6094 583.8604,448.6094 L581.5635,448.6094 Q580.9541,448.6094 580.7041,448.375 Q580.4385,448.1406 580.4385,447.75 Q580.4385,447.375 580.7197,447.1406 Q580.9854,446.8906 581.6104,446.9063 L584.2822,440.25 L583.1729,440.25 Q582.5635,440.25 582.2979,440.0156 Q582.0322,439.7813 582.0322,439.3906 Q582.0322,439.0156 582.2979,438.7813 Q582.5635,438.5469 583.1729,438.5469 L586.8447,438.5469 L590.2354,446.9063 Q590.8291,446.9063 591.0166,447.0469 Q591.4072,447.3125 591.4072,447.7656 Q591.4072,448.1406 591.1416,448.375 Q590.8916,448.6094 590.2822,448.6094 L587.9854,448.6094 Q587.376,448.6094 587.1104,448.375 Q586.8447,448.1406 586.8447,447.75 Q586.8447,447.375 587.1104,447.1406 Q587.376,446.9063 587.9854,446.9063 L588.4072,446.9063 L588.001,445.875 Z M587.2822,444.1719 L585.9229,440.7969 L584.5479,444.1719 L587.2822,444.1719 Z " fill="#000000"/><text fill="#000000" font-family="sans-serif" font-size="14" font-style="italic" lengthAdjust="spacing" textLength="132.2822" x="606.3135" y="449.8379">AbstractDataSetView</text><line style="stroke:#181818;stroke-width:0.5;" x1="540.5" x2="771.9092" y1="460.1094" y2="460.1094"/><text fill="#000000" font-family="sans-serif" font-size="14" lengthAdjust="spacing" textLength="90.2754" x="545.5" y="478.6426">#center : Point</text><line style="stroke:#181818;stroke-width:1;" x1="540.5" x2="771.9092" y1="485.7188" y2="485.7188"/><text fill="#000000" font-family="sans-serif" font-size="14" lengthAdjust="spacing" textLength="184.8232" x="545.5" y="504.252">+setData(DataSet data) : void</text><text fill="#000000" font-family="sans-serif" font-size="14" lengthAdjust="spacing" textLength="122.5615" x="545.5" y="521.8613">+getCenter() : Point</text><text fill="#000000" font-family="sans-serif" font-size="14" lengthAdjust="spacing" textLength="218.2988" x="545.5" y="539.4707">+move(double dx, double dy) : void</text><text fill="#000000" font-family="sans-serif" font-size="14" lengthAdjust="spacing" textLength="221.4092" x="545.5" y="557.0801">+resize(double px, double py) : void</text><text fill="#000000" font-family="sans-serif" font-size="14" lengthAdjust="spacing" textLength="159.9404" x="545.5" y="574.6895">+rotate(double deg) : void</text></g><!--class BarDataSetView--><g class="entity" data-qualified-name="BarDataSetView" data-source-line="89" id="ent0009"><rect fill="#F1F1F1" height="171.2656" rx="2.5" ry="2.5" style="stroke:#181818;stroke-width:0.5;" width="224.0508" x="7" y="756.1094"/><ellipse cx="63.417" cy="772.1094" fill="#ADD1B2" rx="11" ry="11" style="stroke:#181818;stroke-width:1;"/><path d="M66.1826,767.9844 Q66.3389,767.7656 66.5264,767.6563 Q66.7139,767.5469 66.9326,767.5469 Q67.3076,767.5469 67.542,767.8125 Q67.7764,768.0625 67.7764,768.6719 L67.7764,770.125 Q67.7764,770.7344 67.542,771 Q67.3076,771.2656 66.9326,771.2656 Q66.5889,771.2656 66.3857,771.0625 Q66.1826,770.875 66.0732,770.3594 Q66.0264,770 65.8389,769.8125 Q65.5107,769.4375 64.9014,769.2188 Q64.292,769 63.667,769 Q62.9014,769 62.2607,769.3281 Q61.6357,769.6563 61.1357,770.4063 Q60.6514,771.1563 60.6514,772.1875 L60.6514,773.2813 Q60.6514,774.5156 61.542,775.3438 Q62.4326,776.1563 64.0264,776.1563 Q64.9639,776.1563 65.6201,775.9063 Q66.0107,775.75 66.4326,775.3125 Q66.6982,775.0469 66.8389,774.9688 Q66.9951,774.8906 67.1982,774.8906 Q67.5264,774.8906 67.7764,775.1563 Q68.042,775.4063 68.042,775.75 Q68.042,776.0938 67.6982,776.5 Q67.1982,777.0781 66.4014,777.4063 Q65.3232,777.8594 64.0264,777.8594 Q62.5107,777.8594 61.3076,777.2344 Q60.3232,776.7344 59.6357,775.6719 Q58.9482,774.5938 58.9482,773.3125 L58.9482,772.1563 Q58.9482,770.8281 59.5576,769.6875 Q60.1826,768.5313 61.2764,767.9219 Q62.3701,767.2969 63.6045,767.2969 Q64.3389,767.2969 64.9795,767.4688 Q65.6357,767.625 66.1826,767.9844 Z " fill="#000000"/><text fill="#000000" font-family="sans-serif" font-size="14" lengthAdjust="spacing" textLength="102.7168" x="83.917" y="777.8379">BarDataSetView</text><line style="stroke:#181818;stroke-width:0.5;" x1="8" x2="230.0508" y1="788.1094" y2="788.1094"/><text fill="#000000" font-family="sans-serif" font-size="14" lengthAdjust="spacing" textLength="114.3926" x="13" y="806.6426">-barWidth : double</text><text fill="#000000" font-family="sans-serif" font-size="14" lengthAdjust="spacing" textLength="125.2891" x="13" y="824.252">-maxHeight : double</text><line style="stroke:#181818;stroke-width:1;" x1="8" x2="230.0508" y1="831.3281" y2="831.3281"/><text fill="#000000" font-family="sans-serif" font-size="14" lengthAdjust="spacing" textLength="184.8232" x="13" y="849.8613">+setData(DataSet data) : void</text><text fill="#000000" font-family="sans-serif" font-size="14" lengthAdjust="spacing" textLength="103.1133" x="13" y="867.4707">+copy() : IShape</text><text fill="#000000" font-family="sans-serif" font-size="14" lengthAdjust="spacing" textLength="212.0508" x="13" y="885.0801">+getDescription(int indent) : String</text><text fill="#000000" font-family="sans-serif" font-size="14" lengthAdjust="spacing" textLength="131.1406" x="13" y="902.6895">+getHeight() : double</text><text fill="#000000" font-family="sans-serif" font-size="14" lengthAdjust="spacing" textLength="126.458" x="13" y="920.2988">+getWidth() : double</text></g><!--class ColumnsDataSetView--><g class="entity" data-qualified-name="ColumnsDataSetView" data-source-line="100" id="ent0010"><rect fill="#F1F1F1" height="188.875" rx="2.5" ry="2.5" style="stroke:#181818;stroke-width:0.5;" width="224.0508" x="266" y="747.1094"/><ellipse cx="306.1455" cy="763.1094" fill="#ADD1B2" rx="11" ry="11" style="stroke:#181818;stroke-width:1;"/><path d="M308.9111,758.9844 Q309.0674,758.7656 309.2549,758.6563 Q309.4424,758.5469 309.6611,758.5469 Q310.0361,758.5469 310.2705,758.8125 Q310.5049,759.0625 310.5049,759.6719 L310.5049,761.125 Q310.5049,761.7344 310.2705,762 Q310.0361,762.2656 309.6611,762.2656 Q309.3174,762.2656 309.1143,762.0625 Q308.9111,761.875 308.8018,761.3594 Q308.7549,761 308.5674,760.8125 Q308.2393,760.4375 307.6299,760.2188 Q307.0205,760 306.3955,760 Q305.6299,760 304.9893,760.3281 Q304.3643,760.6563 303.8643,761.4063 Q303.3799,762.1563 303.3799,763.1875 L303.3799,764.2813 Q303.3799,765.5156 304.2705,766.3438 Q305.1611,767.1563 306.7549,767.1563 Q307.6924,767.1563 308.3486,766.9063 Q308.7393,766.75 309.1611,766.3125 Q309.4268,766.0469 309.5674,765.9688 Q309.7236,765.8906 309.9268,765.8906 Q310.2549,765.8906 310.5049,766.1563 Q310.7705,766.4063 310.7705,766.75 Q310.7705,767.0938 310.4268,767.5 Q309.9268,768.0781 309.1299,768.4063 Q308.0518,768.8594 306.7549,768.8594 Q305.2393,768.8594 304.0361,768.2344 Q303.0518,767.7344 302.3643,766.6719 Q301.6768,765.5938 301.6768,764.3125 L301.6768,763.1563 Q301.6768,761.8281 302.2861,760.6875 Q302.9111,759.5313 304.0049,758.9219 Q305.0986,758.2969 306.333,758.2969 Q307.0674,758.2969 307.708,758.4688 Q308.3643,758.625 308.9111,758.9844 Z " fill="#000000"/><text fill="#000000" font-family="sans-serif" font-size="14" lengthAdjust="spacing" textLength="136.1719" x="325.7334" y="768.8379">ColumnsDataSetView</text><line style="stroke:#181818;stroke-width:0.5;" x1="267" x2="489.0508" y1="779.1094" y2="779.1094"/><text fill="#000000" font-family="sans-serif" font-size="14" lengthAdjust="spacing" textLength="114.3926" x="272" y="797.6426">-barWidth : double</text><text fill="#000000" font-family="sans-serif" font-size="14" lengthAdjust="spacing" textLength="106.627" x="272" y="815.252">-spacing : double</text><text fill="#000000" font-family="sans-serif" font-size="14" lengthAdjust="spacing" textLength="125.2891" x="272" y="832.8613">-maxHeight : double</text><line style="stroke:#181818;stroke-width:1;" x1="267" x2="489.0508" y1="839.9375" y2="839.9375"/><text fill="#000000" font-family="sans-serif" font-size="14" lengthAdjust="spacing" textLength="184.8232" x="272" y="858.4707">+setData(DataSet data) : void</text><text fill="#000000" font-family="sans-serif" font-size="14" lengthAdjust="spacing" textLength="103.1133" x="272" y="876.0801">+copy() : IShape</text><text fill="#000000" font-family="sans-serif" font-size="14" lengthAdjust="spacing" textLength="212.0508" x="272" y="893.6895">+getDescription(int indent) : String</text><text fill="#000000" font-family="sans-serif" font-size="14" lengthAdjust="spacing" textLength="131.1406" x="272" y="911.2988">+getHeight() : double</text><text fill="#000000" font-family="sans-serif" font-size="14" lengthAdjust="spacing" textLength="126.458" x="272" y="928.9082">+getWidth() : double</text></g><!--class IDataSetView--><g class="entity" data-qualified-name="IDataSetView" data-source-line="112" id="ent0011"><rect fill="#F1F1F1" height="65.6094" rx="2.5" ry="2.5" style="stroke:#181818;stroke-width:0.5;" width="196.8232" x="583.5" y="179.6094"/><ellipse cx="635.2515" cy="195.6094" fill="#B4A7E5" rx="11" ry="11" style="stroke:#181818;stroke-width:1;"/><path d="M636.2046,192.25 L636.2046,198.9063 L637.9233,198.9063 Q638.5327,198.9063 638.7983,199.1406 Q639.064,199.375 639.064,199.7656 Q639.064,200.1406 638.7983,200.375 Q638.5327,200.6094 637.9233,200.6094 L632.7827,200.6094 Q632.1733,200.6094 631.9077,200.375 Q631.6421,200.1406 631.6421,199.75 Q631.6421,199.375 631.9077,199.1406 Q632.1733,198.9063 632.7827,198.9063 L634.5015,198.9063 L634.5015,192.25 L632.7827,192.25 Q632.1733,192.25 631.9077,192.0156 Q631.6421,191.7813 631.6421,191.3906 Q631.6421,191.0156 631.9077,190.7813 Q632.1733,190.5469 632.7827,190.5469 L637.9233,190.5469 Q638.5327,190.5469 638.7983,190.7813 Q639.064,191.0156 639.064,191.3906 Q639.064,191.7813 638.7983,192.0156 Q638.5327,192.25 637.9233,192.25 L636.2046,192.25 Z " fill="#000000"/><text fill="#000000" font-family="sans-serif" font-size="14" font-style="italic" lengthAdjust="spacing" textLength="84.8203" x="655.7515" y="201.3379">IDataSetView</text><line style="stroke:#181818;stroke-width:0.5;" x1="584.5" x2="779.3232" y1="211.6094" y2="211.6094"/><line style="stroke:#181818;stroke-width:0.5;" x1="584.5" x2="779.3232" y1="219.6094" y2="219.6094"/><text fill="#000000" font-family="sans-serif" font-size="14" lengthAdjust="spacing" textLength="184.8232" x="589.5" y="238.1426">+setData(DataSet data) : void</text></g><!--class PieDataSetView--><g class="entity" data-qualified-name="PieDataSetView" data-source-line="116" id="ent0012"><rect fill="#F1F1F1" height="171.2656" rx="2.5" ry="2.5" style="stroke:#181818;stroke-width:0.5;" width="361.0635" x="525.5" y="756.1094"/><ellipse cx="651.1992" cy="772.1094" fill="#ADD1B2" rx="11" ry="11" style="stroke:#181818;stroke-width:1;"/><path d="M653.9648,767.9844 Q654.1211,767.7656 654.3086,767.6563 Q654.4961,767.5469 654.7148,767.5469 Q655.0898,767.5469 655.3242,767.8125 Q655.5586,768.0625 655.5586,768.6719 L655.5586,770.125 Q655.5586,770.7344 655.3242,771 Q655.0898,771.2656 654.7148,771.2656 Q654.3711,771.2656 654.168,771.0625 Q653.9648,770.875 653.8555,770.3594 Q653.8086,770 653.6211,769.8125 Q653.293,769.4375 652.6836,769.2188 Q652.0742,769 651.4492,769 Q650.6836,769 650.043,769.3281 Q649.418,769.6563 648.918,770.4063 Q648.4336,771.1563 648.4336,772.1875 L648.4336,773.2813 Q648.4336,774.5156 649.3242,775.3438 Q650.2148,776.1563 651.8086,776.1563 Q652.7461,776.1563 653.4023,775.9063 Q653.793,775.75 654.2148,775.3125 Q654.4805,775.0469 654.6211,774.9688 Q654.7773,774.8906 654.9805,774.8906 Q655.3086,774.8906 655.5586,775.1563 Q655.8242,775.4063 655.8242,775.75 Q655.8242,776.0938 655.4805,776.5 Q654.9805,777.0781 654.1836,777.4063 Q653.1055,777.8594 651.8086,777.8594 Q650.293,777.8594 649.0898,777.2344 Q648.1055,776.7344 647.418,775.6719 Q646.7305,774.5938 646.7305,773.3125 L646.7305,772.1563 Q646.7305,770.8281 647.3398,769.6875 Q647.9648,768.5313 649.0586,767.9219 Q650.1523,767.2969 651.3867,767.2969 Q652.1211,767.2969 652.7617,767.4688 Q653.418,767.625 653.9648,767.9844 Z " fill="#000000"/><text fill="#000000" font-family="sans-serif" font-size="14" lengthAdjust="spacing" textLength="101.165" x="671.6992" y="777.8379">PieDataSetView</text><line style="stroke:#181818;stroke-width:0.5;" x1="526.5" x2="885.5635" y1="788.1094" y2="788.1094"/><text fill="#000000" font-family="sans-serif" font-size="14" lengthAdjust="spacing" textLength="96.5029" x="531.5" y="806.6426">-radius : double</text><line style="stroke:#181818;stroke-width:1;" x1="526.5" x2="885.5635" y1="813.7188" y2="813.7188"/><text fill="#000000" font-family="sans-serif" font-size="14" lengthAdjust="spacing" textLength="126.458" x="531.5" y="832.252">+getWidth() : double</text><text fill="#000000" font-family="sans-serif" font-size="14" lengthAdjust="spacing" textLength="131.1406" x="531.5" y="849.8613">+getHeight() : double</text><text fill="#000000" font-family="sans-serif" font-size="14" lengthAdjust="spacing" textLength="212.0508" x="531.5" y="867.4707">+getDescription(int indent) : String</text><text fill="#000000" font-family="sans-serif" font-size="14" lengthAdjust="spacing" textLength="103.1133" x="531.5" y="885.0801">+copy() : IShape</text><text fill="#000000" font-family="sans-serif" font-size="14" lengthAdjust="spacing" textLength="184.8232" x="531.5" y="902.6895">+setData(DataSet data) : void</text><text fill="#000000" font-family="sans-serif" font-size="14" lengthAdjust="spacing" textLength="349.0635" x="531.5" y="920.2988">+createSlice(double startAngle, double endAngle) : Path</text></g><!--class Group--><g class="entity" data-qualified-name="Group" data-source-line="127" id="ent0013"><rect fill="#F1F1F1" height="48" rx="2.5" ry="2.5" style="stroke:#181818;stroke-width:0.5;" width="70.9102" x="840.5" y="188.6094"/><ellipse cx="855.5" cy="204.6094" fill="#ADD1B2" rx="11" ry="11" style="stroke:#181818;stroke-width:1;"/><path d="M858.2656,200.4844 Q858.4219,200.2656 858.6094,200.1563 Q858.7969,200.0469 859.0156,200.0469 Q859.3906,200.0469 859.625,200.3125 Q859.8594,200.5625 859.8594,201.1719 L859.8594,202.625 Q859.8594,203.2344 859.625,203.5 Q859.3906,203.7656 859.0156,203.7656 Q858.6719,203.7656 858.4688,203.5625 Q858.2656,203.375 858.1563,202.8594 Q858.1094,202.5 857.9219,202.3125 Q857.5938,201.9375 856.9844,201.7188 Q856.375,201.5 855.75,201.5 Q854.9844,201.5 854.3438,201.8281 Q853.7188,202.1563 853.2188,202.9063 Q852.7344,203.6563 852.7344,204.6875 L852.7344,205.7813 Q852.7344,207.0156 853.625,207.8438 Q854.5156,208.6563 856.1094,208.6563 Q857.0469,208.6563 857.7031,208.4063 Q858.0938,208.25 858.5156,207.8125 Q858.7813,207.5469 858.9219,207.4688 Q859.0781,207.3906 859.2813,207.3906 Q859.6094,207.3906 859.8594,207.6563 Q860.125,207.9063 860.125,208.25 Q860.125,208.5938 859.7813,209 Q859.2813,209.5781 858.4844,209.9063 Q857.4063,210.3594 856.1094,210.3594 Q854.5938,210.3594 853.3906,209.7344 Q852.4063,209.2344 851.7188,208.1719 Q851.0313,207.0938 851.0313,205.8125 L851.0313,204.6563 Q851.0313,203.3281 851.6406,202.1875 Q852.2656,201.0313 853.3594,200.4219 Q854.4531,199.7969 855.6875,199.7969 Q856.4219,199.7969 857.0625,199.9688 Q857.7188,200.125 858.2656,200.4844 Z " fill="#000000"/><text fill="#000000" font-family="sans-serif" font-size="14" lengthAdjust="spacing" textLength="38.9102" x="869.5" y="210.3379">Group</text><line style="stroke:#181818;stroke-width:0.5;" x1="841.5" x2="910.4102" y1="220.6094" y2="220.6094"/><line style="stroke:#181818;stroke-width:0.5;" x1="841.5" x2="910.4102" y1="228.6094" y2="228.6094"/></g><!--class IShape--><g class="entity" data-qualified-name="IShape" data-source-line="132" id="ent0019"><rect fill="#F1F1F1" height="48" rx="2.5" ry="2.5" style="stroke:#181818;stroke-width:0.5;" width="76.3721" x="819" y="45.6094"/><ellipse cx="834" cy="61.6094" fill="#ADD1B2" rx="11" ry="11" style="stroke:#181818;stroke-width:1;"/><path d="M836.7656,57.4844 Q836.9219,57.2656 837.1094,57.1563 Q837.2969,57.0469 837.5156,57.0469 Q837.8906,57.0469 838.125,57.3125 Q838.3594,57.5625 838.3594,58.1719 L838.3594,59.625 Q838.3594,60.2344 838.125,60.5 Q837.8906,60.7656 837.5156,60.7656 Q837.1719,60.7656 836.9688,60.5625 Q836.7656,60.375 836.6563,59.8594 Q836.6094,59.5 836.4219,59.3125 Q836.0938,58.9375 835.4844,58.7188 Q834.875,58.5 834.25,58.5 Q833.4844,58.5 832.8438,58.8281 Q832.2188,59.1563 831.7188,59.9063 Q831.2344,60.6563 831.2344,61.6875 L831.2344,62.7813 Q831.2344,64.0156 832.125,64.8438 Q833.0156,65.6563 834.6094,65.6563 Q835.5469,65.6563 836.2031,65.4063 Q836.5938,65.25 837.0156,64.8125 Q837.2813,64.5469 837.4219,64.4688 Q837.5781,64.3906 837.7813,64.3906 Q838.1094,64.3906 838.3594,64.6563 Q838.625,64.9063 838.625,65.25 Q838.625,65.5938 838.2813,66 Q837.7813,66.5781 836.9844,66.9063 Q835.9063,67.3594 834.6094,67.3594 Q833.0938,67.3594 831.8906,66.7344 Q830.9063,66.2344 830.2188,65.1719 Q829.5313,64.0938 829.5313,62.8125 L829.5313,61.6563 Q829.5313,60.3281 830.1406,59.1875 Q830.7656,58.0313 831.8594,57.4219 Q832.9531,56.7969 834.1875,56.7969 Q834.9219,56.7969 835.5625,56.9688 Q836.2188,57.125 836.7656,57.4844 Z " fill="#000000"/><text fill="#000000" font-family="sans-serif" font-size="14" lengthAdjust="spacing" textLength="44.3721" x="848" y="67.3379">IShape</text><line style="stroke:#181818;stroke-width:0.5;" x1="820" x2="894.3721" y1="77.6094" y2="77.6094"/><line style="stroke:#181818;stroke-width:0.5;" x1="820" x2="894.3721" y1="85.6094" y2="85.6094"/></g><!--reverse link Group to AbstractDataGroupView--><g class="link" data-entity-1="ent0013" data-entity-2="ent0002" data-link-type="extension" data-source-line="127" id="lnk14"><path codeLine="127" d="M908.2057,250.4422 C927.5657,272.5922 946.76,294.5394 979.97,332.5294" fill="none" id="Group-backto-AbstractDataGroupView" style="stroke:#181818;stroke-width:1;"/><polygon fill="none" points="896.36,236.8894,903.6881,254.3908,912.7233,246.4936,896.36,236.8894" style="stroke:#181818;stroke-width:1;"/></g><!--reverse link IDataGroupView to AbstractDataGroupView--><g class="link" data-entity-1="ent0006" data-entity-2="ent0002" data-link-type="extension" data-source-line="128" id="lnk15"><path codeLine="128" d="M1103.4079,289.5634 C1105.6079,307.3634 1105.95,310.0694 1108.6,331.4594" fill="none" id="IDataGroupView-backto-AbstractDataGroupView" style="stroke:#181818;stroke-width:1;stroke-dasharray:7,7;"/><polygon fill="none" points="1101.2,271.6994,1097.4532,290.2994,1109.3626,288.8275,1101.2,271.6994" style="stroke:#181818;stroke-width:1;"/></g><!--reverse link Group to DataAxisView--><g class="link" data-entity-1="ent0013" data-entity-2="ent0003" data-link-type="extension" data-source-line="129" id="lnk16"><path codeLine="129" d="M876,254.8894 C876,293.9994 876,356.7594 876,419.3094" fill="none" id="Group-backto-DataAxisView" style="stroke:#181818;stroke-width:1;"/><polygon fill="none" points="876,236.8894,870,254.8894,882,254.8894,876,236.8894" style="stroke:#181818;stroke-width:1;"/></g><!--reverse link AbstractDataGroupView to BarDataGroupView--><g class="link" data-entity-1="ent0002" data-entity-2="ent0004" data-link-type="extension" data-source-line="130" id="lnk17"><path codeLine="130" d="M1102.1007,696.5592 C1098.6607,720.0392 1097.85,725.5694 1094.72,746.9194" fill="none" id="AbstractDataGroupView-backto-BarDataGroupView" style="stroke:#181818;stroke-width:1;"/><polygon fill="none" points="1104.71,678.7494,1096.1641,695.6895,1108.0373,697.429,1104.71,678.7494" style="stroke:#181818;stroke-width:1;"/></g><!--reverse link AbstractDataGroupView to ColumnsDataGroupView--><g class="link" data-entity-1="ent0002" data-entity-2="ent0005" data-link-type="extension" data-source-line="131" id="lnk18"><path codeLine="131" d="M1291.9981,689.7974 C1310.6481,710.9374 1317.33,718.5194 1334.67,738.1894" fill="none" id="AbstractDataGroupView-backto-ColumnsDataGroupView" style="stroke:#181818;stroke-width:1;"/><polygon fill="none" points="1280.09,676.2994,1287.4988,693.7668,1296.4975,685.828,1280.09,676.2994" style="stroke:#181818;stroke-width:1;"/></g><!--reverse link IShape to IDataGroupView--><g class="link" data-entity-1="ent0019" data-entity-2="ent0006" data-link-type="extension" data-source-line="132" id="lnk20"><path codeLine="132" d="M910.5486,102.4638 C937.9586,118.7738 960.78,132.3494 996.44,153.5694" fill="none" id="IShape-backto-IDataGroupView" style="stroke:#181818;stroke-width:1;"/><polygon fill="none" points="895.08,93.2594,907.4805,107.62,913.6168,97.3076,895.08,93.2594" style="stroke:#181818;stroke-width:1;"/></g><!--reverse link AbstractDataGroupView to PieDataGroupView--><g class="link" data-entity-1="ent0002" data-entity-2="ent0007" data-link-type="extension" data-source-line="133" id="lnk21"><path codeLine="133" d="M1296.3855,585.4952 C1387.7955,629.9752 1490.18,681.5194 1593,738.6094 C1607.7,746.7694 1622.96,755.5894 1638.02,764.5094" fill="none" id="AbstractDataGroupView-backto-PieDataGroupView" style="stroke:#181818;stroke-width:1;"/><polygon fill="none" points="1280.2,577.6194,1293.7602,590.8904,1299.0108,580.1001,1280.2,577.6194" style="stroke:#181818;stroke-width:1;"/></g><!--reverse link Group to AbstractDataSetView--><g class="link" data-entity-1="ent0013" data-entity-2="ent0008" data-link-type="extension" data-source-line="134" id="lnk22"><path codeLine="134" d="M847.5022,251.2383 C816.5022,292.1683 761.84,364.3494 713.71,427.8994" fill="none" id="Group-backto-AbstractDataSetView" style="stroke:#181818;stroke-width:1;"/><polygon fill="none" points="858.37,236.8894,842.7193,247.6157,852.2852,254.8609,858.37,236.8894" style="stroke:#181818;stroke-width:1;"/></g><!--reverse link IDataSetView to AbstractDataSetView--><g class="link" data-entity-1="ent0011" data-entity-2="ent0008" data-link-type="extension" data-source-line="135" id="lnk23"><path codeLine="135" d="M677.5141,263.7376 C673.6041,307.3876 668.11,368.7694 662.81,428.0294" fill="none" id="IDataSetView-backto-AbstractDataSetView" style="stroke:#181818;stroke-width:1;stroke-dasharray:7,7;"/><polygon fill="none" points="679.12,245.8094,671.538,263.2023,683.4901,264.2729,679.12,245.8094" style="stroke:#181818;stroke-width:1;"/></g><!--reverse link AbstractDataSetView to BarDataSetView--><g class="link" data-entity-1="ent0008" data-entity-2="ent0009" data-link-type="extension" data-source-line="136" id="lnk24"><path codeLine="136" d="M523.4594,574.9919 C440.2994,619.4919 342.79,674.6594 248,738.6094 C239.83,744.1194 231.53,749.9994 223.26,756.0394" fill="none" id="AbstractDataSetView-backto-BarDataSetView" style="stroke:#181818;stroke-width:1;"/><polygon fill="none" points="539.33,566.4994,520.6285,569.7017,526.2902,580.2821,539.33,566.4994" style="stroke:#181818;stroke-width:1;"/></g><!--reverse link AbstractDataSetView to ColumnsDataSetView--><g class="link" data-entity-1="ent0008" data-entity-2="ent0010" data-link-type="extension" data-source-line="137" id="lnk25"><path codeLine="137" d="M581.0656,596.2731 C540.4456,645.1531 498.95,695.0794 455.79,747.0094" fill="none" id="AbstractDataSetView-backto-ColumnsDataSetView" style="stroke:#181818;stroke-width:1;"/><polygon fill="none" points="592.57,582.4294,576.451,592.4383,585.6802,600.1079,592.57,582.4294" style="stroke:#181818;stroke-width:1;"/></g><!--reverse link IShape to IDataSetView--><g class="link" data-entity-1="ent0019" data-entity-2="ent0011" data-link-type="extension" data-source-line="138" id="lnk26"><path codeLine="138" d="M814.0854,105.185 C785.0654,128.575 754.12,153.4994 721.75,179.5794" fill="none" id="IShape-backto-IDataSetView" style="stroke:#181818;stroke-width:1;"/><polygon fill="none" points="828.1,93.8894,810.3202,100.5135,817.8507,109.8566,828.1,93.8894" style="stroke:#181818;stroke-width:1;"/></g><!--reverse link AbstractDataSetView to PieDataSetView--><g class="link" data-entity-1="ent0008" data-entity-2="ent0012" data-link-type="extension" data-source-line="139" id="lnk27"><path codeLine="139" d="M670.0716,600.2315 C677.8116,652.0015 685.38,702.6794 693.37,756.0994" fill="none" id="AbstractDataSetView-backto-PieDataSetView" style="stroke:#181818;stroke-width:1;"/><polygon fill="none" points="667.41,582.4294,664.1375,601.1187,676.0056,599.3443,667.41,582.4294" style="stroke:#181818;stroke-width:1;"/></g><?plantuml-src tLPDZzem4BtdLrZQ2wjjLZrNUqc1jaYeHGgxxGsPP1gi1Zko9nJAyjzhEo7amn0gTLTgBr4oVXbxthoPCJ9CWMoOoXLIL9wdVZ2UKKdN94gfKW6YPCiSOH897h9VGDvw7bqgb3J20aA2ydD4aNwK8i-U6FmaUu-G6n9h6tb7gYLhL1cD64-qFHRvCWLhZ80ZI6sR2SPHctpVslV7tGua0PmBfEauXRL6gq_0aXKERfkEsgYlBCPL6rJpobImPMhCgLwBBMufH0gKExQtoCAlHKx25St00In1VNj74YZ2qQEDd6H2CMI2M_-6k13GC6eegRaUMhu279X_68zXUriZxuRacUOUxDuRmM9jkoDAKsCIFfZI9QG4pNiRO7OSLFaYYNasC3IEAum-carn6p2517XSRfFQZmP4Wj9Q6XIaa6pxXXnVTqsSJYHMk1YIQlNWUONwp35CMYhH-Guf4JIAiDcevwAq5pfgBZWqwfCrtJxHD8SM524RYfmR3pNf-fqKL6T-JsMtM7ooDpN8eWCPZJy4ZzFv8lWs2HVXV3nR3ByyVfwV_9kJk4wzfB8RfEyiYxF5SqcwVNej0pifzgQdlCxNL4NMKAJvcgjN94p_n4663WMy8fMJlqWaC_NmdKPGU6tI-89jGV_t9vsXIlcCWMkOI1gpNFqF2RamGSiTof3TKx6P4MSJrjiN4s9G7mjtP2qsftvwwhlnxgNwSxCbb8NhBZjtZLuPS2IoNNCcMn96e2B9CfF4Qb9ogyfGtsnuSiIv96CNEbfnDQPheZitKVwDa5ijf1vmpqdRLTtawanDky_HT_2h8dUnra-rRGvXog9AxNhsI0nuaa9L7RgPMOCjEOeh4tlHBn-UVTzzKVPQBVdX-Vx-3BBcgdxhyTmNS8jhtpGkOLs3rYj8AW2Jgrsr6_Wv5exjjA6f3WD7bAjDrgFinNKhjXjVhvEcZBtV?></g></svg>